<svg width="70" height="62" viewBox="0 0 70 62" fill="none" xmlns="http://www.w3.org/2000/svg">
<g clip-path="url(#clip0_860_24)">
<path d="M62.3403 15.3408H5.94292C4.6029 15.3408 3.5166 16.4271 3.5166 17.7671V58.7132C3.5166 60.0532 4.6029 61.1395 5.94292 61.1395H62.3403C63.6803 61.1395 64.7666 60.0532 64.7666 58.7132V17.7671C64.7666 16.4271 63.6803 15.3408 62.3403 15.3408Z" fill="#4989F5"/>
<path d="M61.6324 14.9971H6.58302C4.87775 14.9971 3.55078 28.1944 3.55078 29.8997L33.6975 61.1398H61.6324C63.3429 61.1352 64.7283 59.7497 64.733 58.0392V18.0971C64.7279 16.3868 63.3426 15.0017 61.6324 14.9971Z" fill="url(#paint0_linear_860_24)"/>
<path d="M17.502 23.0104H35.002V0.0419922H20.1223L17.502 23.0104Z" fill="#3C4BA6"/>
<path d="M52.502 23.0104H35.002V0.0419922H49.8816L52.502 23.0104ZM64.7664 4.39594L64.7881 4.47423C64.7829 4.4466 64.7723 4.42094 64.7664 4.39594Z" fill="#7BABF7"/>
<path d="M64.7879 4.47325L64.7662 4.39496C64.2114 1.85437 61.9627 0.0426604 59.3623 0.0410156H49.8813L52.4998 23.0101H69.9998L64.7879 4.47325Z" fill="#3F51B5"/>
<path d="M5.23753 4.39648L5.21582 4.47477C5.22108 4.44714 5.23161 4.42148 5.23753 4.39648Z" fill="#7BABF7"/>
<path d="M5.21513 4.47325L5.23684 4.39496C5.79165 1.85437 8.04033 0.0426604 10.6408 0.0410156H20.1224L17.5 23.0101H0L5.21513 4.47325Z" fill="#7BABF7"/>
<path fill-rule="evenodd" clip-rule="evenodd" d="M17.5316 23.0049C17.5316 27.8346 13.6163 31.7499 8.78657 31.7499C3.95683 31.7499 0.0415039 27.8346 0.0415039 23.0049H17.5316Z" fill="#709BE0"/>
<path fill-rule="evenodd" clip-rule="evenodd" d="M35.0219 23.0049C35.0219 27.8346 31.1065 31.7499 26.2768 31.7499C21.4471 31.7499 17.5317 27.8346 17.5317 23.0049H35.0219Z" fill="#3C4BA6"/>
<path fill-rule="evenodd" clip-rule="evenodd" d="M52.5116 23.0049C52.5116 27.8346 48.5963 31.7499 43.7665 31.7499C38.9368 31.7499 35.0215 27.8346 35.0215 23.0049H52.5116Z" fill="#709BE0"/>
<path fill-rule="evenodd" clip-rule="evenodd" d="M69.9999 23.0049C69.9999 27.8346 66.0846 31.7499 61.2548 31.7499C56.4251 31.7499 52.5098 27.8346 52.5098 23.0049H69.9999Z" fill="#3C4BA6"/>
<path d="M61.2552 46.6975C61.2243 46.281 61.173 45.9007 61.0999 45.4152H51.5605C51.5605 46.7494 51.5605 48.2053 51.5552 49.5402H57.0815C56.9641 50.1623 56.725 50.7551 56.3778 51.2845C56.0306 51.8139 55.5823 52.2695 55.0585 52.6251C55.0585 52.6251 55.0585 52.6021 55.0545 52.6014C54.3781 53.0455 53.6161 53.3429 52.8177 53.4744C52.0172 53.6209 51.1965 53.6173 50.3973 53.4639C49.5858 53.2959 48.8175 52.963 48.1401 52.4856C47.1402 51.7766 46.3689 50.7911 45.921 49.6501C45.8868 49.5613 45.8552 49.4718 45.823 49.381V49.3711L45.8315 49.3646C45.3967 48.0885 45.3956 46.7045 45.8282 45.4277C46.133 44.532 46.6345 43.716 47.296 43.0396C48.8478 41.4344 51.1663 40.8306 53.3039 41.4751C54.1235 41.7265 54.8725 42.1673 55.4901 42.7619L57.3545 40.8975C57.6835 40.5652 58.0249 40.2435 58.3414 39.9001C57.396 39.0183 56.2863 38.3311 55.0756 37.8777C52.8722 37.0788 50.4617 37.0576 48.2447 37.8178C48.1675 37.8442 48.0907 37.8716 48.0144 37.9001C45.6225 38.7993 43.6548 40.5628 42.4999 42.8422C42.0921 43.649 41.7951 44.5072 41.617 45.3935C40.561 50.6417 43.7633 55.8076 48.9335 57.1961C50.6236 57.6488 52.4203 57.6376 54.1236 57.2507C55.6712 56.9013 57.1021 56.1577 58.2776 55.0922C59.5039 53.9639 60.3828 52.4606 60.8434 50.8639C61.2284 49.5108 61.3679 48.0997 61.2552 46.6975Z" fill="white"/>
</g>
<defs>
<linearGradient id="paint0_linear_860_24" x1="3.55078" y1="21440.7" x2="65100.8" y2="21440.7" gradientUnits="userSpaceOnUse">
<stop offset="0.03" stop-color="#4079D8"/>
<stop offset="1" stop-color="#4989F5"/>
</linearGradient>
<clipPath id="clip0_860_24">
<rect width="70" height="61.18" fill="white"/>
</clipPath>
</defs>
</svg>
