<svg width="150" height="56" viewBox="0 0 150 56" fill="none" xmlns="http://www.w3.org/2000/svg">
<g clip-path="url(#clip0_860_9)">
<path d="M72.4863 42.2147V15.9326H75.8619L85.007 31.9365H85.1546L94.2957 15.9326H97.6712V42.2147H94.2957V26.6138L94.4433 22.2089H94.2957L86.0723 36.6367H84.0892L75.8659 22.2089H75.7182L75.8659 26.6138V42.2147H72.4863ZM110.008 42.8013C107.291 42.8013 105.085 41.8955 103.381 40.0841C101.681 38.2726 100.831 35.9864 100.831 33.2213C100.831 30.6038 101.657 28.3535 103.309 26.4662C104.961 24.5829 107.072 23.6413 109.641 23.6413C112.307 23.6413 114.445 24.5111 116.045 26.2468C117.649 27.9864 118.451 30.3086 118.451 33.2213L118.415 33.8437H104.211C104.307 35.6552 104.913 37.0876 106.026 38.137C107.139 39.1903 108.444 39.717 109.936 39.717C112.358 39.717 113.998 38.6876 114.856 36.6327L117.865 37.8816C117.278 39.2781 116.308 40.4472 114.964 41.3888C113.615 42.3305 111.963 42.8013 110.008 42.8013ZM114.852 31.0547C114.78 30.0253 114.306 29.0477 113.44 28.1181C112.57 27.1884 111.281 26.7216 109.565 26.7216C108.317 26.7216 107.235 27.1126 106.318 27.8946C105.4 28.6767 104.769 29.73 104.426 31.0507H114.852V31.0547ZM129.124 42.8013C126.407 42.8013 124.201 41.8955 122.497 40.0841C120.797 38.2726 119.947 35.9864 119.947 33.2213C119.947 30.6038 120.773 28.3535 122.425 26.4662C124.077 24.5829 126.188 23.6413 128.757 23.6413C131.423 23.6413 133.561 24.5111 135.161 26.2468C136.765 27.9864 137.567 30.3086 137.567 33.2213L137.531 33.8437H123.327C123.423 35.6552 124.029 37.0876 125.142 38.137C126.256 39.1903 127.56 39.717 129.053 39.717C131.474 39.717 133.114 38.6876 133.972 36.6327L136.981 37.8816C136.394 39.2781 135.425 40.4472 134.08 41.3888C132.735 42.3305 131.083 42.8013 129.124 42.8013ZM133.968 31.0547C133.896 30.0253 133.422 29.0477 132.556 28.1181C131.686 27.1884 130.397 26.7216 128.681 26.7216C127.433 26.7216 126.351 27.1126 125.434 27.8946C124.516 28.6767 123.886 29.73 123.542 31.0507H133.968V31.0547ZM147.271 42.506C145.388 42.506 143.947 42.0033 142.958 41.0018C141.968 40.0003 141.469 38.5799 141.469 36.7445V27.3121H138.313V24.2278H141.469V18.7216H144.845V24.2278H149.25V27.3121H144.845V36.4891C144.845 38.4482 145.651 39.4257 147.267 39.4257C147.877 39.4257 148.392 39.33 148.807 39.1305L149.98 42.0312C149.25 42.3464 148.344 42.506 147.271 42.506Z" fill="#5F6368"/>
<path d="M50.0626 24.4388C50.0626 12.2294 40.1554 2.32617 27.95 2.32617C15.7446 2.32617 5.8374 12.2294 5.8374 24.4388C5.8374 36.0058 16.387 45.3863 27.95 45.3863V53.5338C41.3803 46.7189 50.0626 35.7544 50.0626 24.4388Z" fill="#00897B"/>
<path d="M41.6235 16.4385L38.7228 24.4384H22.7149L16.291 32.3147L39.836 55.8597H55.5885V30.4035L41.6235 16.4385Z" fill="url(#paint0_linear_860_9)"/>
<path opacity="0.2" d="M27.95 45.095C16.4309 45.095 5.92518 35.7904 5.84139 24.2832C5.84139 24.3351 5.8374 24.3869 5.8374 24.4388C5.8374 36.0058 16.387 45.3863 27.95 45.3863V45.095ZM27.95 53.2426V53.5339C41.3803 46.719 50.0626 35.7545 50.0626 24.4388C50.0626 24.3909 50.0586 24.3431 50.0586 24.2992C49.9828 35.5589 41.3205 46.4596 27.95 53.2426ZM32.8976 33.1649H18.35C17.6039 33.1649 16.8618 32.8817 16.2912 32.3111C15.7206 31.7405 15.4373 30.9984 15.4373 30.2522V30.5435C15.4373 31.2896 15.7206 32.0318 16.2912 32.6024C16.8618 33.1729 17.6039 33.4562 18.35 33.4562H32.8976C33.6437 33.4562 34.3858 33.1729 34.9564 32.6024C35.2272 32.3322 35.442 32.0113 35.5885 31.658C35.7351 31.3047 35.8104 30.926 35.8103 30.5435V30.2522C35.8103 30.9984 35.527 31.7405 34.9564 32.3111C34.3858 32.8817 33.6397 33.1649 32.8976 33.1649ZM35.8063 26.9126L41.6237 32.73V32.4388L35.8063 26.6213V26.9126Z" fill="#263238"/>
<path d="M35.8065 22.2556V18.6207C35.8065 17.8746 35.5232 17.1324 34.9526 16.5619C34.6825 16.2911 34.3616 16.0763 34.0083 15.9298C33.655 15.7832 33.2762 15.7079 32.8938 15.708H18.3502C17.6041 15.708 16.8619 15.9913 16.2914 16.5619C16.0206 16.832 15.8058 17.1529 15.6592 17.5062C15.5127 17.8595 15.4374 18.2382 15.4375 18.6207V30.2595C15.4375 31.0057 15.7208 31.7478 16.2914 32.3184C16.8619 32.8889 17.6041 33.1722 18.3502 33.1722H32.8977C33.6439 33.1722 34.386 32.8889 34.9566 32.3184C35.2274 32.0483 35.4422 31.7273 35.5887 31.3741C35.7352 31.0208 35.8106 30.642 35.8104 30.2595V26.6246L41.6279 32.4421V16.4382L35.8065 22.2556Z" fill="#F5F5F5"/>
<path d="M15.4414 18.6207V24.4381H41.6238V16.4382L35.8064 22.2556V18.6207C35.8064 17.8746 35.5231 17.1324 34.9525 16.5619C34.6824 16.2911 34.3615 16.0763 34.0082 15.9298C33.6549 15.7832 33.2761 15.7079 32.8937 15.708H18.3501C17.604 15.708 16.8619 15.9913 16.2913 16.5619C16.021 16.8322 15.8069 17.1532 15.661 17.5065C15.5152 17.8598 15.4405 18.2385 15.4414 18.6207Z" fill="#E0E0E0"/>
<path d="M15.4414 24.1475H41.6238V24.4387H15.4414V24.1475Z" fill="#212121" fill-opacity="0.02"/>
<path d="M15.4414 24.4385H41.6238V24.7297H15.4414V24.4385Z" fill="white" fill-opacity="0.05"/>
<path opacity="0.2" d="M18.3502 15.9993H32.8977C33.6439 15.9993 34.386 16.2826 34.9566 16.8531C35.2274 17.1233 35.4422 17.4442 35.5887 17.7975C35.7352 18.1508 35.8106 18.5295 35.8104 18.912V18.6207C35.8104 17.8746 35.5271 17.1324 34.9566 16.5619C34.6865 16.2911 34.3656 16.0763 34.0123 15.9298C33.659 15.7832 33.2802 15.7079 32.8977 15.708H18.3502C17.6041 15.708 16.8619 15.9913 16.2914 16.5619C16.0206 16.832 15.8058 17.1529 15.6592 17.5062C15.5127 17.8595 15.4374 18.2382 15.4375 18.6207V18.912C15.4375 18.1658 15.7208 17.4237 16.2914 16.8531C16.8373 16.3069 17.5779 15.9998 18.3502 15.9993ZM35.8064 22.2556V22.5469L41.6239 16.7294V16.4382L35.8064 22.2556Z" fill="white"/>
<path opacity="0.2" d="M27.95 2.61753C40.1075 2.61753 49.9828 12.4409 50.0586 24.5865C50.0586 24.5346 50.0626 24.4867 50.0626 24.4348C50.0626 12.2254 40.1554 2.32227 27.95 2.32227C15.7446 2.32227 5.8374 12.2294 5.8374 24.4388C5.8374 24.4867 5.84139 24.5306 5.84139 24.5745C5.92518 12.4369 15.7964 2.61753 27.95 2.61753Z" fill="white"/>
<path d="M50.0626 24.4388C50.0626 12.2294 40.1554 2.32617 27.95 2.32617C15.7446 2.32617 5.8374 12.2294 5.8374 24.4388C5.8374 36.0058 16.387 45.3863 27.95 45.3863V53.5338C41.3803 46.7189 50.0626 35.7544 50.0626 24.4388Z" fill="url(#paint1_radial_860_9)"/>
</g>
<defs>
<linearGradient id="paint0_linear_860_9" x1="27.7092" y1="23.1273" x2="46.8377" y2="42.2558" gradientUnits="userSpaceOnUse">
<stop stop-color="#263238" stop-opacity="0.2"/>
<stop offset="1" stop-color="#263238" stop-opacity="0.02"/>
</linearGradient>
<radialGradient id="paint1_radial_860_9" cx="0" cy="0" r="1" gradientUnits="userSpaceOnUse" gradientTransform="translate(12.1424 8.67945) scale(45.1504 45.1504)">
<stop stop-color="white" stop-opacity="0.1"/>
<stop offset="1" stop-color="white" stop-opacity="0"/>
</radialGradient>
<clipPath id="clip0_860_9">
<rect width="150" height="55.86" fill="white"/>
</clipPath>
</defs>
</svg>
