<svg width="53" height="53" viewBox="0 0 53 53" fill="none" xmlns="http://www.w3.org/2000/svg">
<g clip-path="url(#clip0_979_705)">
<path fill-rule="evenodd" clip-rule="evenodd" d="M38.1112 33.7788L34.0001 37.8899C33.8044 38.0735 33.5461 38.1757 33.2778 38.1757C33.0095 38.1757 32.7513 38.0735 32.5557 37.8899L29.7223 34.2788C29.5387 34.0831 29.4365 33.8249 29.4365 33.5566C29.4365 33.2883 29.5387 33.0301 29.7223 32.8344L30.5557 32.1677L31.3334 31.4455L32.1667 30.5566L32.8334 29.7233C33.0291 29.5397 33.2873 29.4375 33.5556 29.4375C33.8239 29.4375 34.0822 29.5397 34.2779 29.7233L37.9445 32.6122C38.1281 32.8078 38.2302 33.0661 38.2302 33.3344C38.2302 33.6027 38.1281 33.8609 37.9445 34.0566L38.1112 33.7788Z" fill="#2184B0"/>
<path fill-rule="evenodd" clip-rule="evenodd" d="M31.3893 37.4454L37.2782 31.5566C37.3668 31.4514 37.4774 31.3668 37.6021 31.3088C37.7269 31.2508 37.8628 31.2207 38.0004 31.2207C38.138 31.2207 38.2739 31.2508 38.3987 31.3088C38.5234 31.3668 38.634 31.4514 38.7227 31.5566L52.0004 44.8343C52.2621 45.0864 52.4705 45.3884 52.6137 45.7223C52.7568 46.0563 52.8316 46.4155 52.8337 46.7788C52.8338 47.1343 52.7598 47.4859 52.6163 47.8111C52.4728 48.1364 52.2631 48.4281 52.0004 48.6677L48.5004 52.2232C47.9894 52.7083 47.316 52.9856 46.6115 53.001C45.8889 52.9941 45.1951 52.7166 44.6671 52.2232L31.3893 38.8899C31.2057 38.6942 31.1035 38.436 31.1035 38.1677C31.1035 37.8994 31.2057 37.6411 31.3893 37.4454Z" fill="#1B79A4"/>
<path fill-rule="evenodd" clip-rule="evenodd" d="M32.778 5.55471C36.3775 9.15886 38.3993 14.0443 38.3993 19.138C38.3993 24.2318 36.3775 29.1172 32.778 32.7214C30.5451 34.9663 27.7921 36.6249 24.7638 37.5497C21.7355 38.4745 18.5256 38.637 15.4195 38.0225C12.3133 37.4081 9.40694 36.0359 6.9588 34.0277C4.51065 32.0196 2.59646 29.4378 1.38637 26.5118C0.176284 23.5858 -0.292266 20.4061 0.0224043 17.2554C0.337074 14.1047 1.42525 11.0805 3.19013 8.45161C4.955 5.8227 7.34195 3.67048 10.1389 2.18621C12.9358 0.701934 16.0561 -0.0684117 19.2225 -0.05639C21.7415 -0.0693469 24.2379 0.420216 26.5655 1.38368C28.8931 2.34714 31.0051 3.76515 32.778 5.55471Z" fill="#1B79A4"/>
<path fill-rule="evenodd" clip-rule="evenodd" d="M31.3885 7.05609C28.5855 4.24008 24.8924 2.48358 20.9391 2.08613C16.9857 1.68868 13.0169 2.67488 9.70945 4.87656C6.40196 7.07825 3.96054 10.3591 2.80163 14.1596C1.64272 17.9601 1.83804 22.0449 3.35425 25.7175C4.87047 29.3901 7.61368 32.4231 11.1161 34.2992C14.6186 36.1752 18.6634 36.7783 22.5608 36.0055C26.4582 35.2327 29.9669 33.1319 32.4885 30.0613C35.01 26.9907 36.3884 23.1405 36.3885 19.1672C36.3946 16.9185 35.9561 14.6909 35.098 12.6123C34.2399 10.5338 32.9792 8.64553 31.3885 7.05609Z" fill="white"/>
<path fill-rule="evenodd" clip-rule="evenodd" d="M17.8897 13.8333C18.4199 14.3869 18.7181 15.1224 18.7231 15.8889C18.7213 16.6397 18.4215 17.3589 17.8897 17.8889C17.3302 18.4098 16.5985 18.7064 15.8342 18.7222C15.0835 18.7204 14.3641 18.4207 13.8342 17.8889C13.5631 17.6324 13.3488 17.3218 13.2053 16.9773C13.0617 16.6328 12.9921 16.262 13.0009 15.8889C12.9912 15.5074 13.0601 15.128 13.2035 14.7743C13.3469 14.4207 13.5616 14.1003 13.8342 13.8333C14.3641 13.3016 15.0835 13.0018 15.8342 13C16.5985 13.0158 17.3302 13.3125 17.8897 13.8333Z" fill="#D94428"/>
<path fill-rule="evenodd" clip-rule="evenodd" d="M17.8897 22.8333C18.4199 23.3869 18.7181 24.1224 18.7231 24.8889C18.7213 25.6397 18.4215 26.3589 17.8897 26.8889C17.3302 27.4098 16.5985 27.7064 15.8342 27.7222C15.0835 27.7204 14.3641 27.4207 13.8342 26.8889C13.5631 26.6324 13.3488 26.3218 13.2053 25.9773C13.0617 25.6328 12.9921 25.262 13.0009 24.8889C12.9912 24.5074 13.0601 24.128 13.2035 23.7743C13.3469 23.4207 13.5616 23.1003 13.8342 22.8333C14.3641 22.3016 15.0835 22.0018 15.8342 22C16.5985 22.0158 17.3302 22.3125 17.8897 22.8333Z" fill="#FFC107"/>
<path fill-rule="evenodd" clip-rule="evenodd" d="M27.1577 16.3563C27.4891 16.5267 27.7829 16.7621 28.0216 17.0484C28.2602 17.3348 28.4387 17.6662 28.5465 18.023C28.6804 18.468 28.7028 18.9391 28.6116 19.3949C28.5205 19.8506 28.3187 20.2769 28.0239 20.6362C27.7292 20.9955 27.3506 21.2768 26.9215 21.4553C26.4924 21.6338 26.0259 21.704 25.5633 21.6597C25.1007 21.6154 24.656 21.458 24.2686 21.2013C23.8811 20.9447 23.5628 20.5966 23.3416 20.1879C23.1204 19.7792 23.0031 19.3223 23.0001 18.8576C22.9971 18.3928 23.1084 17.9345 23.3243 17.523C23.4947 17.1915 23.7301 16.8977 24.0165 16.6591C24.3028 16.4205 24.6342 16.2419 24.991 16.1341C25.3474 16.0166 25.7247 15.9756 26.098 16.0139C26.4714 16.0522 26.8325 16.1689 27.1577 16.3563Z" fill="#1B79A4"/>
</g>
<defs>
<clipPath id="clip0_979_705">
<rect width="53" height="53" fill="white"/>
</clipPath>
</defs>
</svg>
