<svg width="191" height="129" viewBox="0 0 191 129" fill="none" xmlns="http://www.w3.org/2000/svg">
<g opacity="0.5">
<circle cx="4.5" cy="4.5" r="4.5" fill="#D9D9D9"/>
<circle cx="30.5" cy="4.5" r="4.5" fill="#D9D9D9"/>
<circle cx="56.5" cy="4.5" r="4.5" fill="#D9D9D9"/>
<circle cx="82.5" cy="4.5" r="4.5" fill="#D9D9D9"/>
<circle cx="108.5" cy="4.5" r="4.5" fill="#D9D9D9"/>
<circle cx="134.5" cy="4.5" r="4.5" fill="#D9D9D9"/>
<circle cx="160.5" cy="4.5" r="4.5" fill="#D9D9D9"/>
<circle cx="186.5" cy="4.5" r="4.5" fill="#D9D9D9"/>
<circle cx="4.5" cy="28.5" r="4.5" fill="#D9D9D9"/>
<circle cx="30.5" cy="28.5" r="4.5" fill="#D9D9D9"/>
<circle cx="56.5" cy="28.5" r="4.5" fill="#D9D9D9"/>
<circle cx="82.5" cy="28.5" r="4.5" fill="#D9D9D9"/>
<circle cx="108.5" cy="28.5" r="4.5" fill="#D9D9D9"/>
<circle cx="134.5" cy="28.5" r="4.5" fill="#D9D9D9"/>
<circle cx="160.5" cy="28.5" r="4.5" fill="#D9D9D9"/>
<circle cx="186.5" cy="28.5" r="4.5" fill="#D9D9D9"/>
<circle cx="4.5" cy="52.5" r="4.5" fill="#D9D9D9"/>
<circle cx="30.5" cy="52.5" r="4.5" fill="#D9D9D9"/>
<circle cx="56.5" cy="52.5" r="4.5" fill="#D9D9D9"/>
<circle cx="82.5" cy="52.5" r="4.5" fill="#D9D9D9"/>
<circle cx="108.5" cy="52.5" r="4.5" fill="#D9D9D9"/>
<circle cx="134.5" cy="52.5" r="4.5" fill="#D9D9D9"/>
<circle cx="160.5" cy="52.5" r="4.5" fill="#D9D9D9"/>
<circle cx="186.5" cy="52.5" r="4.5" fill="#D9D9D9"/>
<circle cx="4.5" cy="76.5" r="4.5" fill="#D9D9D9"/>
<circle cx="30.5" cy="76.5" r="4.5" fill="#D9D9D9"/>
<circle cx="56.5" cy="76.5" r="4.5" fill="#D9D9D9"/>
<circle cx="82.5" cy="76.5" r="4.5" fill="#D9D9D9"/>
<circle cx="108.5" cy="76.5" r="4.5" fill="#D9D9D9"/>
<circle cx="134.5" cy="76.5" r="4.5" fill="#D9D9D9"/>
<circle cx="160.5" cy="76.5" r="4.5" fill="#D9D9D9"/>
<circle cx="186.5" cy="76.5" r="4.5" fill="#D9D9D9"/>
<circle cx="4.5" cy="100.5" r="4.5" fill="#D9D9D9"/>
<circle cx="30.5" cy="100.5" r="4.5" fill="#D9D9D9"/>
<circle cx="56.5" cy="100.5" r="4.5" fill="#D9D9D9"/>
<circle cx="82.5" cy="100.5" r="4.5" fill="#D9D9D9"/>
<circle cx="108.5" cy="100.5" r="4.5" fill="#D9D9D9"/>
<circle cx="134.5" cy="100.5" r="4.5" fill="#D9D9D9"/>
<circle cx="160.5" cy="100.5" r="4.5" fill="#D9D9D9"/>
<circle cx="186.5" cy="100.5" r="4.5" fill="#D9D9D9"/>
<circle cx="4.5" cy="124.5" r="4.5" fill="#D9D9D9"/>
<circle cx="30.5" cy="124.5" r="4.5" fill="#D9D9D9"/>
<circle cx="56.5" cy="124.5" r="4.5" fill="#D9D9D9"/>
<circle cx="82.5" cy="124.5" r="4.5" fill="#D9D9D9"/>
<circle cx="108.5" cy="124.5" r="4.5" fill="#D9D9D9"/>
<circle cx="134.5" cy="124.5" r="4.5" fill="#D9D9D9"/>
<circle cx="160.5" cy="124.5" r="4.5" fill="#D9D9D9"/>
<circle cx="186.5" cy="124.5" r="4.5" fill="#D9D9D9"/>
</g>
</svg>
