<svg width="70" height="70" viewBox="0 0 70 70" fill="none" xmlns="http://www.w3.org/2000/svg">
<g clip-path="url(#clip0_979_694)">
<path fill-rule="evenodd" clip-rule="evenodd" d="M55.6905 13.8505C60.5306 18.6936 63.5417 25.065 64.2107 31.8793C64.8797 38.6935 63.1652 45.529 59.3593 51.2208C55.5535 56.9127 49.8917 61.1087 43.3388 63.0941C36.786 65.0794 29.7474 64.7311 23.4225 62.1086C17.0977 59.4861 11.8778 54.7516 8.65239 48.7119C5.42699 42.6721 4.39564 35.7009 5.73404 28.9859C7.07245 22.271 10.6978 16.2279 15.9924 11.8863C21.2869 7.54476 27.9231 5.17339 34.7701 5.17627C38.6595 5.15371 42.5141 5.90953 46.1069 7.39924C49.6997 8.88894 52.9582 11.0824 55.6905 13.8505Z" fill="#D94428"/>
<path fill-rule="evenodd" clip-rule="evenodd" d="M52.4101 17.1308C50.1328 14.6253 47.3703 12.6084 44.2901 11.2025C41.21 9.79667 37.8764 9.03104 34.4914 8.95211C31.1065 8.87317 27.7409 9.48258 24.5986 10.7433C21.4562 12.0041 18.6027 13.89 16.211 16.2866C13.8193 18.6832 11.9394 21.5406 10.6851 24.6856C9.4308 27.8305 8.82838 31.1974 8.9143 34.5821C9.00022 37.9669 9.7727 41.2989 11.1849 44.3761C12.5972 47.4534 14.6197 50.2117 17.1299 52.4839C19.4073 54.9894 22.1698 57.0062 25.2499 58.4121C28.3301 59.818 31.6637 60.5836 35.0486 60.6625C38.4335 60.7415 41.7991 60.1321 44.9415 58.8713C48.0838 57.6105 50.9374 55.7246 53.329 53.328C55.7207 50.9314 57.6007 48.074 58.855 44.9291C60.1092 41.7841 60.7117 38.4172 60.6257 35.0325C60.5398 31.6478 59.7673 28.3158 58.3551 25.2385C56.9429 22.1613 54.9203 19.4029 52.4101 17.1308Z" fill="white"/>
<path fill-rule="evenodd" clip-rule="evenodd" d="M46.0686 23.4725C47.5651 24.9565 48.7528 26.7222 49.5634 28.6676C50.374 30.6131 50.7913 32.6998 50.7913 34.8073C50.7913 36.9149 50.374 39.0016 49.5634 40.947C48.7528 42.8925 47.5651 44.6582 46.0686 46.1422C43.0646 49.1246 39.0032 50.7983 34.7702 50.7983C30.5371 50.7983 26.4758 49.1246 23.4717 46.1422C21.9753 44.6582 20.7875 42.8925 19.9769 40.947C19.1663 39.0016 18.749 36.9149 18.749 34.8073C18.749 32.6998 19.1663 30.6131 19.9769 28.6676C20.7875 26.7222 21.9753 24.9565 23.4717 23.4725C26.4758 20.4901 30.5371 18.8164 34.7702 18.8164C39.0032 18.8164 43.0646 20.4901 46.0686 23.4725Z" fill="#DDEDFC"/>
<path fill-rule="evenodd" clip-rule="evenodd" d="M45.9957 46.2133C45.3906 46.8294 44.7319 47.3904 44.0275 47.8899H43.0799H25.8043L23.9819 46.3591C24.0084 46.1169 24.0084 45.8725 23.9819 45.6302C24.4939 43.3414 25.7681 41.2943 27.5957 39.8243C29.4232 38.3543 31.6958 37.5486 34.0412 37.5391H36.1551C38.5108 37.5376 40.7976 38.3341 42.6426 39.7988C44.491 41.2664 45.778 43.3256 46.2873 45.6302C46.1648 45.8109 46.0668 46.007 45.9957 46.2133Z" fill="#2185B2"/>
<path fill-rule="evenodd" clip-rule="evenodd" d="M41.3303 34.7708C41.0378 35.89 40.4307 36.9019 39.5808 37.6866C38.9557 38.3302 38.2079 38.8419 37.3815 39.1913C36.5551 39.5407 35.6671 39.7207 34.7699 39.7207C33.8727 39.7207 32.9846 39.5407 32.1582 39.1913C31.3318 38.8419 30.5839 38.3302 29.9589 37.6866C29.109 36.9019 28.5019 35.89 28.2095 34.7708C28.4849 33.6238 29.0936 32.584 29.9589 31.7822C30.5839 31.1386 31.3318 30.6269 32.1582 30.2775C32.9846 29.9281 33.8727 29.748 34.7699 29.748C35.6671 29.748 36.5551 29.9281 37.3815 30.2775C38.2079 30.6269 38.9557 31.1386 39.5808 31.7822C40.4461 32.584 41.0548 33.6238 41.3303 34.7708Z" fill="#F9C5B8"/>
<path fill-rule="evenodd" clip-rule="evenodd" d="M39.5808 27.9906C38.2987 26.7263 36.5705 26.0176 34.7699 26.0176C32.9693 26.0176 31.241 26.7263 29.9589 27.9906C28.6906 29.3053 27.9623 31.0483 27.9179 32.8744C27.8119 33.5017 27.8119 34.1424 27.9179 34.7696C28.1934 33.6226 28.8021 32.5828 29.6674 31.781C30.2944 31.1394 31.0424 30.6287 31.8683 30.2783C32.6941 29.928 33.5812 29.745 34.4783 29.74C36.3045 29.7844 38.0474 30.5128 39.3621 31.781C40.1816 32.6068 40.7612 33.6398 41.0387 34.7696C41.1447 34.1424 41.1447 33.5017 41.0387 32.8744C41.1297 32.0045 41.0477 31.1251 40.7975 30.2869C40.5473 29.4487 40.1338 28.6683 39.5808 27.9906Z" fill="#8F6E4E"/>
<path fill-rule="evenodd" clip-rule="evenodd" d="M36.0822 1.38434C36.0822 1.03636 35.9439 0.702613 35.6979 0.456552C35.4518 0.21049 35.1181 0.0722656 34.7701 0.0722656C34.4221 0.0722656 34.0884 0.21049 33.8423 0.456552C33.5962 0.702613 33.458 1.03636 33.458 1.38434V11.6623C33.458 12.0103 33.5962 12.344 33.8423 12.59C34.0884 12.8361 34.4221 12.9743 34.7701 12.9743C35.1181 12.9743 35.4518 12.8361 35.6979 12.59C35.9439 12.344 36.0822 12.0103 36.0822 11.6623V1.38434Z" fill="#FFC107"/>
<path fill-rule="evenodd" clip-rule="evenodd" d="M36.0822 57.9507C36.0822 57.6028 35.9439 57.269 35.6979 57.023C35.4518 56.7769 35.1181 56.6387 34.7701 56.6387C34.4221 56.6387 34.0884 56.7769 33.8423 57.023C33.5962 57.269 33.458 57.6028 33.458 57.9507V68.2287C33.458 68.5767 33.5962 68.9104 33.8423 69.1565C34.0884 69.4025 34.4221 69.5408 34.7701 69.5408C35.1181 69.5408 35.4518 69.4025 35.6979 69.1565C35.9439 68.9104 36.0822 68.5767 36.0822 68.2287V57.9507Z" fill="#FFC107"/>
<path fill-rule="evenodd" clip-rule="evenodd" d="M68.2279 36.1541C68.4065 36.1544 68.5833 36.1182 68.7474 36.0477C68.9116 35.9773 69.0596 35.8741 69.1824 35.7444C69.3053 35.6147 69.4004 35.4613 69.4618 35.2937C69.5233 35.126 69.5499 34.9474 69.54 34.7691C69.54 34.5968 69.506 34.4262 69.4401 34.267C69.3742 34.1078 69.2775 33.9632 69.1557 33.8413C69.0339 33.7195 68.8892 33.6229 68.73 33.5569C68.5708 33.491 68.4002 33.457 68.2279 33.457H57.8771C57.5291 33.457 57.1954 33.5953 56.9493 33.8413C56.7032 34.0874 56.565 34.4211 56.565 34.7691C56.5551 34.9474 56.5817 35.126 56.6432 35.2937C56.7046 35.4613 56.7997 35.6147 56.9226 35.7444C57.0454 35.8741 57.1934 35.9773 57.3576 36.0477C57.5217 36.1182 57.6985 36.1544 57.8771 36.1541H68.2279Z" fill="#FFC107"/>
<path fill-rule="evenodd" clip-rule="evenodd" d="M11.663 36.1541C11.8416 36.1544 12.0184 36.1182 12.1825 36.0477C12.3466 35.9773 12.4947 35.8741 12.6175 35.7444C12.7403 35.6147 12.8354 35.4613 12.8968 35.2937C12.9583 35.126 12.985 34.9474 12.975 34.7691C12.975 34.5968 12.9411 34.4262 12.8752 34.267C12.8092 34.1078 12.7125 33.9632 12.5907 33.8413C12.4689 33.7195 12.3242 33.6229 12.165 33.5569C12.0058 33.491 11.8353 33.457 11.663 33.457H1.3121C1.13979 33.457 0.96921 33.491 0.810022 33.5569C0.650834 33.6229 0.506198 33.7195 0.38436 33.8413C0.262523 33.9632 0.165837 34.1078 0.0998995 34.267C0.0339615 34.4262 7.41391e-05 34.5968 7.41391e-05 34.7691C-0.00984905 34.9474 0.01673 35.126 0.0782104 35.2937C0.139691 35.4613 0.23477 35.6147 0.35761 35.7444C0.480451 35.8741 0.628426 35.9773 0.79256 36.0477C0.956693 36.1182 1.13348 36.1544 1.3121 36.1541H11.663Z" fill="#FFC107"/>
</g>
<defs>
<clipPath id="clip0_979_694">
<rect width="69.54" height="69.54" fill="white"/>
</clipPath>
</defs>
</svg>
