<svg width="53" height="53" viewBox="0 0 53 53" fill="none" xmlns="http://www.w3.org/2000/svg">
<path d="M8.7319 8.36738H5.99774C5.76112 8.3598 5.53673 8.26046 5.37203 8.0904C5.20733 7.92034 5.11523 7.69288 5.11523 7.45614C5.11523 7.2194 5.20733 6.99194 5.37203 6.82188C5.53673 6.65182 5.76112 6.5525 5.99774 6.54492H8.7319C8.96852 6.5525 9.19291 6.65182 9.35761 6.82188C9.52231 6.99194 9.6144 7.2194 9.6144 7.45614C9.6144 7.69288 9.52231 7.92034 9.35761 8.0904C9.19291 8.26046 8.96852 8.3598 8.7319 8.36738Z" fill="#015079"/>
<path d="M8.7319 12.9221H5.99774C5.76112 12.9145 5.53673 12.8151 5.37203 12.6451C5.20733 12.475 5.11523 12.2476 5.11523 12.0108C5.11523 11.7741 5.20733 11.5466 5.37203 11.3766C5.53673 11.2065 5.76112 11.1072 5.99774 11.0996H8.7319C8.96852 11.1072 9.19291 11.2065 9.35761 11.3766C9.52231 11.5466 9.6144 11.7741 9.6144 12.0108C9.6144 12.2476 9.52231 12.475 9.35761 12.6451C9.19291 12.8151 8.96852 12.9145 8.7319 12.9221Z" fill="#015079"/>
<path d="M8.7319 17.4787H5.99774C5.76112 17.4711 5.53673 17.3718 5.37203 17.2017C5.20733 17.0317 5.11523 16.8042 5.11523 16.5675C5.11523 16.3307 5.20733 16.1033 5.37203 15.9332C5.53673 15.7631 5.76112 15.6638 5.99774 15.6562H8.7319C8.96852 15.6638 9.19291 15.7631 9.35761 15.9332C9.52231 16.1033 9.6144 16.3307 9.6144 16.5675C9.6144 16.8042 9.52231 17.0317 9.35761 17.2017C9.19291 17.3718 8.96852 17.4711 8.7319 17.4787Z" fill="#015079"/>
<path d="M8.7319 22.0353H5.99774C5.76112 22.0278 5.53673 21.9284 5.37203 21.7584C5.20733 21.5883 5.11523 21.3609 5.11523 21.1241C5.11523 20.8874 5.20733 20.6599 5.37203 20.4899C5.53673 20.3198 5.76112 20.2205 5.99774 20.2129H8.7319C8.96852 20.2205 9.19291 20.3198 9.35761 20.4899C9.52231 20.6599 9.6144 20.8874 9.6144 21.1241C9.6144 21.3609 9.52231 21.5883 9.35761 21.7584C9.19291 21.9284 8.96852 22.0278 8.7319 22.0353Z" fill="#015079"/>
<path d="M8.7319 26.5939H5.99774C5.76112 26.5864 5.53673 26.487 5.37203 26.317C5.20733 26.1469 5.11523 25.9194 5.11523 25.6827C5.11523 25.446 5.20733 25.2185 5.37203 25.0484C5.53673 24.8784 5.76112 24.7791 5.99774 24.7715H8.7319C8.96852 24.7791 9.19291 24.8784 9.35761 25.0484C9.52231 25.2185 9.6144 25.446 9.6144 25.6827C9.6144 25.9194 9.52231 26.1469 9.35761 26.317C9.19291 26.487 8.96852 26.5864 8.7319 26.5939Z" fill="#015079"/>
<path d="M8.7319 31.1467H5.99774C5.76112 31.1391 5.53673 31.0398 5.37203 30.8697C5.20733 30.6997 5.11523 30.4722 5.11523 30.2355C5.11523 29.9987 5.20733 29.7712 5.37203 29.6012C5.53673 29.4311 5.76112 29.3318 5.99774 29.3242H8.7319C8.96852 29.3318 9.19291 29.4311 9.35761 29.6012C9.52231 29.7712 9.6144 29.9987 9.6144 30.2355C9.6144 30.4722 9.52231 30.6997 9.35761 30.8697C9.19291 31.0398 8.96852 31.1391 8.7319 31.1467Z" fill="#015079"/>
<path d="M8.7319 35.7033H5.99774C5.76112 35.6957 5.53673 35.5964 5.37203 35.4264C5.20733 35.2563 5.11523 35.0288 5.11523 34.7921C5.11523 34.5554 5.20733 34.3279 5.37203 34.1578C5.53673 33.9878 5.76112 33.8884 5.99774 33.8809H8.7319C8.96852 33.8884 9.19291 33.9878 9.35761 34.1578C9.52231 34.3279 9.6144 34.5554 9.6144 34.7921C9.6144 35.0288 9.52231 35.2563 9.35761 35.4264C9.19291 35.5964 8.96852 35.6957 8.7319 35.7033Z" fill="#015079"/>
<path d="M8.7319 40.26H5.99774C5.76112 40.2524 5.53673 40.1531 5.37203 39.983C5.20733 39.8129 5.11523 39.5855 5.11523 39.3487C5.11523 39.112 5.20733 38.8845 5.37203 38.7145C5.53673 38.5444 5.76112 38.4451 5.99774 38.4375H8.7319C8.96852 38.4451 9.19291 38.5444 9.35761 38.7145C9.52231 38.8845 9.6144 39.112 9.6144 39.3487C9.6144 39.5855 9.52231 39.8129 9.35761 39.983C9.19291 40.1531 8.96852 40.2524 8.7319 40.26Z" fill="#015079"/>
<path d="M29.6897 4.17383H13.2876V15.1086H29.6897V4.17383Z" fill="#1B79A4"/>
<path d="M41.5354 15.1094V44.2678H36.068L34.585 34.8825L36.068 20.5768L41.5354 15.1094Z" fill="#6ADD1F"/>
<path d="M30.6004 26.0449L32.3976 37.7539L30.6004 44.2686H25.133L23.6958 38.1635L25.133 31.5123L30.6004 26.0449Z" fill="#A6796F"/>
<path d="M19.6666 26.0449L21.4891 38.4375L19.6666 44.2686H14.1992V31.5123L19.6666 26.0449Z" fill="#09D7FD"/>
<path d="M25.1334 31.5123V44.2686H19.667V26.0449L25.1334 31.5123Z" fill="#FDD72C"/>
<path d="M36.068 20.5762V44.2672H30.6006V26.0436L36.068 20.5762Z" fill="#D94428"/>
<path d="M47.9133 43.357H9.64257V4.17742C9.63499 3.9408 9.53566 3.7164 9.3656 3.5517C9.19554 3.387 8.96808 3.29492 8.73134 3.29492C8.49459 3.29492 8.26713 3.387 8.09707 3.5517C7.92701 3.7164 7.82769 3.9408 7.82011 4.17742V43.357H5.08689C4.96477 43.3531 4.8431 43.3738 4.72913 43.4178C4.61515 43.4619 4.5112 43.5284 4.42343 43.6134C4.33566 43.6984 4.26588 43.8001 4.21822 43.9126C4.17056 44.0251 4.146 44.1461 4.146 44.2682C4.146 44.3904 4.17056 44.5114 4.21822 44.6239C4.26588 44.7364 4.33566 44.8382 4.42343 44.9232C4.5112 45.0082 4.61515 45.0747 4.72913 45.1187C4.8431 45.1627 4.96477 45.1834 5.08689 45.1795H7.82011V48.8263C7.82769 49.0629 7.92701 49.2873 8.09707 49.452C8.26713 49.6167 8.49459 49.7088 8.73134 49.7088C8.96808 49.7088 9.19554 49.6167 9.3656 49.452C9.53566 49.2873 9.63499 49.0629 9.64257 48.8263V45.1795H47.9133C48.0354 45.1834 48.1571 45.1627 48.271 45.1187C48.385 45.0747 48.489 45.0082 48.5767 44.9232C48.6645 44.8382 48.7343 44.7364 48.782 44.6239C48.8296 44.5114 48.8542 44.3904 48.8542 44.2682C48.8542 44.1461 48.8296 44.0251 48.782 43.9126C48.7343 43.8001 48.6645 43.6984 48.5767 43.6134C48.489 43.5284 48.385 43.4619 48.271 43.4178C48.1571 43.3738 48.0354 43.3531 47.9133 43.357Z" fill="#1B79A4"/>
<path d="M24.4887 26.686L19.6656 21.8629L14.8397 26.686C14.7558 26.7739 14.6552 26.8441 14.5438 26.8926C14.4324 26.941 14.3124 26.9667 14.191 26.9681C14.0695 26.9696 13.949 26.9467 13.8365 26.9009C13.724 26.8551 13.6217 26.7873 13.5358 26.7014C13.4499 26.6155 13.382 26.5133 13.3361 26.4009C13.2902 26.2884 13.2673 26.1679 13.2686 26.0464C13.27 25.925 13.2956 25.805 13.3439 25.6935C13.3923 25.5821 13.4624 25.4815 13.5502 25.3975L19.0176 19.9301C19.1022 19.8455 19.2026 19.7783 19.3131 19.7325C19.4237 19.6867 19.5422 19.6631 19.6618 19.6631C19.7815 19.6631 19.9 19.6867 20.0106 19.7325C20.1211 19.7783 20.2215 19.8455 20.3061 19.9301L25.1292 24.7533L40.8871 8.99539C41.058 8.82452 41.2897 8.72852 41.5314 8.72852C41.773 8.72852 42.0048 8.82452 42.1756 8.99539C42.3465 9.16626 42.4425 9.398 42.4425 9.63964C42.4425 9.88129 42.3465 10.1131 42.1756 10.2839L25.78 26.686C25.6954 26.7711 25.5948 26.8386 25.484 26.8847C25.3732 26.9307 25.2544 26.9545 25.1344 26.9545C25.0144 26.9545 24.8956 26.9307 24.7848 26.8847C24.674 26.8386 24.5733 26.7711 24.4887 26.686Z" fill="#1B79A4"/>
<path d="M17.8434 8.73308H16.9326C16.8105 8.73699 16.6888 8.71632 16.5748 8.67229C16.4609 8.62826 16.3569 8.56176 16.2691 8.47676C16.1814 8.39176 16.1116 8.28998 16.0639 8.17747C16.0163 8.06497 15.9917 7.94402 15.9917 7.82184C15.9917 7.69966 16.0163 7.57874 16.0639 7.46624C16.1116 7.35373 16.1814 7.25195 16.2691 7.16695C16.3569 7.08195 16.4609 7.01545 16.5748 6.97142C16.6888 6.92738 16.8105 6.90671 16.9326 6.91062H17.8434C17.9655 6.90671 18.0871 6.92738 18.2011 6.97142C18.3151 7.01545 18.419 7.08195 18.5068 7.16695C18.5946 7.25195 18.6644 7.35373 18.712 7.46624C18.7597 7.57874 18.7843 7.69966 18.7843 7.82184C18.7843 7.94402 18.7597 8.06497 18.712 8.17747C18.6644 8.28998 18.5946 8.39176 18.5068 8.47676C18.419 8.56176 18.3151 8.62826 18.2011 8.67229C18.0871 8.71632 17.9655 8.73699 17.8434 8.73308Z" fill="#B0E0EF"/>
<path d="M26.0446 8.73261H21.488C21.2513 8.72503 21.027 8.62572 20.8623 8.45565C20.6976 8.28559 20.6055 8.05812 20.6055 7.82137C20.6055 7.58463 20.6976 7.35718 20.8623 7.18712C21.027 7.01706 21.2513 6.91774 21.488 6.91016H26.0446C26.2812 6.91774 26.5056 7.01706 26.6703 7.18712C26.835 7.35718 26.9271 7.58463 26.9271 7.82137C26.9271 8.05812 26.835 8.28559 26.6703 8.45565C26.5056 8.62572 26.2812 8.72503 26.0446 8.73261Z" fill="#B0E0EF"/>
<path d="M17.8434 12.3796H16.9326C16.8105 12.3835 16.6888 12.3628 16.5748 12.3188C16.4609 12.2747 16.3569 12.2082 16.2691 12.1232C16.1814 12.0382 16.1116 11.9365 16.0639 11.824C16.0163 11.7115 15.9917 11.5905 15.9917 11.4683C15.9917 11.3461 16.0163 11.2252 16.0639 11.1127C16.1116 11.0002 16.1814 10.8984 16.2691 10.8134C16.3569 10.7284 16.4609 10.6619 16.5748 10.6179C16.6888 10.5739 16.8105 10.5532 16.9326 10.5571H17.8434C17.9655 10.5532 18.0871 10.5739 18.2011 10.6179C18.3151 10.6619 18.419 10.7284 18.5068 10.8134C18.5946 10.8984 18.6644 11.0002 18.712 11.1127C18.7597 11.2252 18.7843 11.3461 18.7843 11.4683C18.7843 11.5905 18.7597 11.7115 18.712 11.824C18.6644 11.9365 18.5946 12.0382 18.5068 12.1232C18.419 12.2082 18.3151 12.2747 18.2011 12.3188C18.0871 12.3628 17.9655 12.3835 17.8434 12.3796Z" fill="#B0E0EF"/>
<path d="M26.0446 12.3791H21.488C21.2513 12.3715 21.027 12.2722 20.8623 12.1021C20.6976 11.9321 20.6055 11.7046 20.6055 11.4679C20.6055 11.2311 20.6976 11.0037 20.8623 10.8336C21.027 10.6635 21.2513 10.5642 21.488 10.5566H26.0446C26.2812 10.5642 26.5056 10.6635 26.6703 10.8336C26.835 11.0037 26.9271 11.2311 26.9271 11.4679C26.9271 11.7046 26.835 11.9321 26.6703 12.1021C26.5056 12.2722 26.2812 12.3715 26.0446 12.3791Z" fill="#B0E0EF"/>
</svg>
