<svg width="93" height="80" viewBox="0 0 93 80" fill="none" xmlns="http://www.w3.org/2000/svg">
<g clip-path="url(#clip0_979_678)">
<path fill-rule="evenodd" clip-rule="evenodd" d="M59.3683 76.8173L54.3966 61.9022C54.2641 61.5671 54.0368 61.278 53.7424 61.0702C53.448 60.8625 53.0995 60.7451 52.7394 60.7324H35.0948C34.7193 60.7385 34.3556 60.8649 34.0573 61.093C33.759 61.3211 33.5417 61.6389 33.4375 61.9997L28.4658 76.8173H59.3683Z" fill="#1B79A4"/>
<path fill-rule="evenodd" clip-rule="evenodd" d="M79.3522 64.1451H7.99371C6.943 64.1509 5.9017 63.9469 4.93081 63.5452C3.95993 63.1434 3.07898 62.5519 2.3396 61.8054C0.849661 60.2996 0.00967158 58.2697 0 56.1514V10.4312C0.00967158 8.31291 0.849661 6.28287 2.3396 4.7771C3.85677 3.30441 5.87954 2.46743 7.99371 2.4375H79.3522C81.4723 2.4375 83.5055 3.2797 85.0046 4.77881C86.5037 6.27792 87.3459 8.31114 87.3459 10.4312V56.1514C87.3362 58.2697 86.4962 60.2996 85.0062 61.8054C84.2737 62.561 83.394 63.1585 82.4215 63.5609C81.4491 63.9633 80.4045 64.1621 79.3522 64.1451Z" fill="#2185B2"/>
<path d="M78.1826 10.041H9.26124C8.34597 10.041 7.604 10.783 7.604 11.6982V54.8838C7.604 55.799 8.34597 56.541 9.26124 56.541H78.1826C79.0979 56.541 79.8398 55.799 79.8398 54.8838V11.6982C79.8398 10.783 79.0979 10.041 78.1826 10.041Z" fill="white"/>
<path fill-rule="evenodd" clip-rule="evenodd" d="M25.0531 75.7454C24.8318 75.7311 24.6099 75.7642 24.4023 75.8424C24.1948 75.9206 24.0063 76.0422 23.8494 76.1991C23.6926 76.3559 23.571 76.5444 23.4928 76.752C23.4146 76.9595 23.3815 77.1814 23.3958 77.4027C23.3958 77.8423 23.5705 78.2638 23.8813 78.5746C24.1921 78.8854 24.6136 79.0599 25.0531 79.0599H62.2921C62.7411 79.0606 63.1732 78.8892 63.4997 78.5809C63.8261 78.2726 64.0219 77.851 64.0468 77.4027C64.0472 77.1766 64.0013 76.9529 63.912 76.7452C63.8227 76.5375 63.6918 76.3503 63.5275 76.195C63.3631 76.0398 63.1687 75.9198 62.9563 75.8425C62.7438 75.7652 62.5178 75.7321 62.2921 75.7454H25.0531Z" fill="#2185B2"/>
<path fill-rule="evenodd" clip-rule="evenodd" d="M72.3341 28.0753C72.3105 27.5917 72.1078 27.1342 71.7654 26.7918C71.423 26.4494 70.9655 26.2468 70.4819 26.2231C70.1186 26.2225 69.764 26.3347 69.4671 26.5443C69.1703 26.7538 68.9458 27.0503 68.8247 27.3929C67.8499 24.9558 65.8027 21.1539 65.8027 20.4715C65.8027 20.0061 65.6178 19.5598 65.2887 19.2307C64.9596 18.9017 64.5134 18.7168 64.048 18.7168H16.8656C16.4002 18.7168 15.9538 18.9017 15.6248 19.2307C15.2957 19.5598 15.1108 20.0061 15.1108 20.4715V40.7483C15.1102 41.2231 15.2919 41.68 15.6184 42.0247C15.945 42.3694 16.3914 42.5755 16.8656 42.6005H70.4819C70.9655 42.5769 71.423 42.3741 71.7654 42.0317C72.1078 41.6894 72.3105 41.2319 72.3341 40.7483V28.0753Z" fill="#D94428"/>
<path fill-rule="evenodd" clip-rule="evenodd" d="M16.8656 46.5977C16.4002 46.5977 15.9538 46.7825 15.6248 47.1116C15.2957 47.4407 15.1108 47.887 15.1108 48.3524C15.1102 48.8272 15.2919 49.2841 15.6184 49.6288C15.945 49.9735 16.3914 50.1796 16.8656 50.2046H70.4819C70.9655 50.181 71.423 49.9782 71.7654 49.6359C72.1078 49.2935 72.3105 48.836 72.3341 48.3524C72.3091 47.8782 72.103 47.4318 71.7583 47.1053C71.4136 46.7787 70.9567 46.597 70.4819 46.5977H16.8656Z" fill="#B5D5F5"/>
<path fill-rule="evenodd" clip-rule="evenodd" d="M26.516 45.8182C26.5796 45.5465 26.581 45.2639 26.52 44.9915C26.459 44.7191 26.3372 44.464 26.1638 44.2453C25.9904 44.0266 25.7698 43.8499 25.5185 43.7285C25.2672 43.607 24.9917 43.5439 24.7125 43.5439C24.4334 43.5439 24.1579 43.607 23.9066 43.7285C23.6553 43.8499 23.4347 44.0266 23.2613 44.2453C23.0878 44.464 22.9661 44.7191 22.9051 44.9915C22.8441 45.2639 22.8455 45.5465 22.9091 45.8182V50.985C22.9087 51.2238 22.9571 51.4603 23.0513 51.6798C23.1455 51.8993 23.2836 52.0972 23.457 52.2615C23.6304 52.4257 23.8356 52.5529 24.0598 52.6351C24.2841 52.7173 24.5228 52.753 24.7613 52.7397C25.2266 52.7397 25.673 52.5548 26.002 52.2257C26.3311 51.8966 26.516 51.4504 26.516 50.985V45.8182Z" fill="#FFC107"/>
<path fill-rule="evenodd" clip-rule="evenodd" d="M77.2078 0C79.3378 0.0116975 81.4439 0.448907 83.4026 1.28594C85.3612 2.12297 87.1329 3.34294 88.6135 4.87421C91.5342 7.87721 93.1766 11.8958 93.1952 16.0849C93.1952 20.2733 91.5314 24.2902 88.5697 27.2518C85.6081 30.2135 81.5912 31.8773 77.4028 31.8773C73.2301 31.8267 69.2426 30.1467 66.2918 27.1959C63.341 24.2451 61.6609 20.2576 61.6104 16.0849C61.6104 14.011 62.0188 11.9574 62.8125 10.0414C63.6061 8.12536 64.7694 6.38441 66.2359 4.91795C67.7023 3.45148 69.4432 2.2882 71.3592 1.49456C73.2753 0.700913 75.3289 0.292441 77.4028 0.292441L77.2078 0Z" fill="#FFC107"/>
<path fill-rule="evenodd" clip-rule="evenodd" d="M77.2076 2.43727C75.4036 2.39492 73.6096 2.71863 71.9342 3.38882C70.2587 4.05902 68.7364 5.06181 67.4592 6.33666C64.9707 8.85481 63.5752 12.2524 63.5752 15.7926C63.5752 19.3329 64.9707 22.7304 67.4592 25.2486C68.7364 26.5234 70.2587 27.5262 71.9342 28.1964C73.6096 28.8666 75.4036 29.1903 77.2076 29.1479C80.7497 29.1479 84.1466 27.7409 86.6513 25.2363C89.1559 22.7317 90.5629 19.3347 90.5629 15.7926C90.5629 12.2506 89.1559 8.85354 86.6513 6.34893C84.1466 3.84432 80.7497 2.43727 77.2076 2.43727Z" fill="#FFAE06"/>
<path fill-rule="evenodd" clip-rule="evenodd" d="M78.8647 6.92157C78.8647 6.58546 78.7312 6.26309 78.4935 6.02543C78.2558 5.78776 77.9335 5.6543 77.5974 5.6543C77.2613 5.6543 76.9389 5.78776 76.7013 6.02543C76.4636 6.26309 76.3301 6.58546 76.3301 6.92157V8.96873C76.3301 9.30483 76.4636 9.6272 76.7013 9.86486C76.9389 10.1025 77.2613 10.2361 77.5974 10.2361C77.9335 10.2361 78.2558 10.1025 78.4935 9.86486C78.7312 9.6272 78.8647 9.30483 78.8647 8.96873V6.92157Z" fill="white"/>
<path fill-rule="evenodd" clip-rule="evenodd" d="M78.8645 22.6169C78.8645 22.2808 78.731 21.9584 78.4933 21.7207C78.2557 21.4831 77.9334 21.3496 77.5973 21.3496C77.2612 21.3496 76.9388 21.4831 76.7011 21.7207C76.4635 21.9584 76.3299 22.2808 76.3299 22.6169V24.3716C76.3165 24.546 76.3393 24.7214 76.3969 24.8866C76.4546 25.0518 76.5458 25.2032 76.6648 25.3314C76.7839 25.4596 76.9281 25.5618 77.0886 25.6315C77.2491 25.7012 77.4223 25.7369 77.5973 25.7364C77.7722 25.7369 77.9454 25.7012 78.1058 25.6315C78.2663 25.5618 78.4106 25.4596 78.5296 25.3314C78.6487 25.2032 78.7399 25.0518 78.7975 24.8866C78.8552 24.7214 78.878 24.546 78.8645 24.3716V22.6169Z" fill="white"/>
<path fill-rule="evenodd" clip-rule="evenodd" d="M79.4497 12.4782C79.4489 12.8239 79.5793 13.157 79.8145 13.4104C80.0497 13.6637 80.3723 13.8183 80.7171 13.843C81.0532 13.843 81.3755 13.7095 81.6132 13.4719C81.8508 13.2342 81.9844 12.9118 81.9844 12.5757C82.067 11.7937 81.928 11.0042 81.5833 10.2974C81.2385 9.59064 80.7019 8.9951 80.0347 8.57883C79.4521 8.09357 78.7407 7.78872 77.9875 7.70151C77.2854 7.51095 76.5451 7.51095 75.8429 7.70151C75.0393 7.97114 74.32 8.44565 73.7558 9.07819C73.1917 9.71072 72.8022 10.4794 72.6259 11.3085C72.4471 11.9732 72.4622 12.6752 72.6695 13.3316C72.8767 13.988 73.2676 14.5714 73.7957 15.0128C74.6237 15.7174 75.5851 16.2478 76.6227 16.5725C77.3048 16.8043 77.9343 17.1687 78.4749 17.6449C78.7564 17.8405 78.9842 18.1038 79.1375 18.4103C79.2908 18.7169 79.3647 19.057 79.3523 19.3996C79.3523 19.9845 78.5724 20.3745 77.89 20.6669H76.8177H75.9403C75.6206 20.4388 75.3698 20.1271 75.2151 19.7661C75.0604 19.4051 75.0078 19.0086 75.063 18.6198C75.063 18.2837 74.9294 17.9613 74.6918 17.7236C74.4541 17.486 74.1318 17.3524 73.7957 17.3524C73.6213 17.339 73.4459 17.3618 73.2807 17.4194C73.1156 17.4771 72.964 17.5683 72.8358 17.6873C72.7076 17.8064 72.6055 17.9507 72.5358 18.1111C72.4661 18.2716 72.4303 18.4448 72.4309 18.6198C72.3516 19.4862 72.5317 20.3565 72.9483 21.1203C73.3649 21.884 73.9992 22.5067 74.7705 22.909C75.4438 23.0669 76.1444 23.0669 76.8177 22.909H78.7674C79.5431 22.6679 80.2408 22.225 80.789 21.6254C81.3372 21.0259 81.716 20.2913 81.8869 19.4971C81.9668 18.7217 81.8476 17.9388 81.5406 17.2224C81.2335 16.5059 80.7487 15.8796 80.1321 15.4028C79.3506 14.7359 78.4603 14.2083 77.5001 13.843C76.7598 13.6571 76.0639 13.3257 75.4529 12.8682C75.3312 12.6792 75.2665 12.4592 75.2665 12.2345C75.2665 12.0098 75.3312 11.7898 75.4529 11.6009C75.5264 11.2078 75.6993 10.8401 75.9553 10.533C76.2113 10.2258 76.5418 9.98932 76.9152 9.84618C77.0847 9.77378 77.2671 9.7364 77.4514 9.7364C77.6357 9.7364 77.8181 9.77378 77.9875 9.84618C78.272 9.74961 78.5804 9.74961 78.8649 9.84618C79.2646 10.1396 79.5442 10.5682 79.6518 11.0523C79.7594 11.5364 79.6876 12.0431 79.4497 12.4782Z" fill="white"/>
<path fill-rule="evenodd" clip-rule="evenodd" d="M70.1888 8.38359C71.4611 7.09571 72.9803 6.0779 74.6554 5.39112C76.3305 4.70434 78.127 4.36269 79.9372 4.3867C82.5443 4.38199 85.0923 5.1634 87.2485 6.62887C85.9782 5.34469 84.4571 4.33574 82.78 3.66489C81.1029 2.99404 79.3056 2.67564 77.5001 2.72948C75.696 2.68713 73.9021 3.01084 72.2266 3.68103C70.5511 4.35122 69.0288 5.35402 67.7517 6.62887C65.2632 9.14702 63.8677 12.5446 63.8677 16.0849C63.8677 19.6251 65.2632 23.0227 67.7517 25.5408C68.4308 26.2081 69.1828 26.7967 69.9938 27.2956C67.5469 24.8147 66.1752 21.4703 66.1752 17.9858C66.1752 14.5013 67.5469 11.1569 69.9938 8.67603L70.1888 8.38359Z" fill="#FF9D05"/>
<g clip-path="url(#clip1_979_678)">
<path fill-rule="evenodd" clip-rule="evenodd" d="M43.8201 35.425L40.8894 38.4548C40.7744 38.5895 40.6323 38.6983 40.4723 38.7744C40.3124 38.8505 40.1383 38.8921 39.9612 38.8964C39.7842 38.9008 39.6082 38.8678 39.4447 38.7997C39.2812 38.7315 39.134 38.6297 39.0125 38.5008L35.9827 35.5702C35.8049 35.3071 35.7162 34.994 35.7295 34.6768C35.7429 34.3595 35.8576 34.0549 36.0568 33.8077L39.1019 30.6577L37.6597 29.2845C37.4974 29.0595 37.4014 28.7934 37.3826 28.5166C37.2955 28.1644 37.3475 27.7922 37.5278 27.4773C37.708 27.1625 38.0028 26.9292 38.3506 26.8261L48.2809 23.9534C48.4643 23.8192 48.6824 23.7406 48.9092 23.7267C49.2709 23.8073 49.5864 24.027 49.7873 24.3384C49.9883 24.6498 50.0585 25.0278 49.9829 25.3906L47.566 35.967C47.4928 36.2608 47.3459 36.531 47.1392 36.7522C47.0133 36.8767 46.864 36.9749 46.6999 37.0411C46.5358 37.1074 46.3601 37.1403 46.1832 37.1381C46.0062 37.1359 45.8314 37.0985 45.669 37.0282C45.5066 36.9579 45.3598 36.856 45.2371 36.7284L43.8201 35.425Z" fill="white"/>
</g>
</g>
<defs>
<clipPath id="clip0_979_678">
<rect width="93" height="79.0597" fill="white"/>
</clipPath>
<clipPath id="clip1_979_678">
<rect width="12.9134" height="17.292" fill="white" transform="translate(49.3052 22.6377) rotate(70.1606)"/>
</clipPath>
</defs>
</svg>
