<svg width="157" height="64" viewBox="0 0 157 64" fill="none" xmlns="http://www.w3.org/2000/svg">
<rect x="0.929199" y="0.898438" width="155.29" height="62.1159" rx="10" fill="white"/>
<rect x="51.6572" y="11.252" width="91.1033" height="6.21159" rx="3.1058" fill="#D9D9D9"/>
<rect x="51.6572" y="23.6738" width="59.0101" height="6.21159" rx="3.1058" fill="#D9D9D9"/>
<path d="M64.7837 42.5875L61.1135 42.0541L59.4728 38.728C59.428 38.6369 59.3543 38.5632 59.2632 38.5184C59.0349 38.4057 58.7573 38.4996 58.6431 38.728L57.0025 42.0541L53.3323 42.5875C53.2311 42.602 53.1386 42.6497 53.0678 42.722C52.9821 42.81 52.9349 42.9284 52.9366 43.0512C52.9382 43.174 52.9885 43.2911 53.0764 43.3768L55.7318 45.9657L55.1045 49.6214C55.0898 49.7065 55.0992 49.7939 55.1317 49.8739C55.1641 49.9539 55.2183 50.0231 55.2882 50.0738C55.358 50.1246 55.4406 50.1547 55.5267 50.1608C55.6128 50.167 55.6989 50.1489 55.7752 50.1086L59.058 48.3826L62.3408 50.1086C62.4304 50.1563 62.5345 50.1722 62.6342 50.1548C62.8857 50.1115 63.0548 49.873 63.0115 49.6214L62.3841 45.9657L65.0395 43.3768C65.1118 43.306 65.1595 43.2135 65.174 43.1123C65.213 42.8593 65.0366 42.6251 64.7837 42.5875Z" fill="#FFA943"/>
<path d="M83.2866 42.5875L79.6164 42.0541L77.9758 38.728C77.931 38.6369 77.8572 38.5632 77.7662 38.5184C77.5378 38.4057 77.2602 38.4996 77.146 38.728L75.5054 42.0541L71.8352 42.5875C71.734 42.602 71.6415 42.6497 71.5707 42.722C71.4851 42.81 71.4379 42.9284 71.4395 43.0512C71.4411 43.174 71.4914 43.2911 71.5794 43.3768L74.2348 45.9657L73.6074 49.6214C73.5927 49.7065 73.6021 49.7939 73.6346 49.8739C73.667 49.9539 73.7213 50.0231 73.7911 50.0738C73.8609 50.1246 73.9436 50.1547 74.0297 50.1608C74.1157 50.167 74.2018 50.1489 74.2781 50.1086L77.5609 48.3826L80.8437 50.1086C80.9333 50.1563 81.0374 50.1722 81.1371 50.1548C81.3886 50.1115 81.5578 49.873 81.5144 49.6214L80.8871 45.9657L83.5425 43.3768C83.6147 43.306 83.6624 43.2135 83.6769 43.1123C83.7159 42.8593 83.5396 42.6251 83.2866 42.5875Z" fill="#FFA943"/>
<path d="M101.79 42.5875L98.1194 42.0541L96.4787 38.728C96.4339 38.6369 96.3602 38.5632 96.2691 38.5184C96.0407 38.4057 95.7632 38.4996 95.649 38.728L94.0083 42.0541L90.3381 42.5875C90.237 42.602 90.1444 42.6497 90.0736 42.722C89.988 42.81 89.9408 42.9284 89.9424 43.0512C89.944 43.174 89.9944 43.2911 90.0823 43.3768L92.7377 45.9657L92.1103 49.6214C92.0956 49.7065 92.105 49.7939 92.1375 49.8739C92.17 49.9539 92.2242 50.0231 92.294 50.0738C92.3639 50.1246 92.4465 50.1547 92.5326 50.1608C92.6187 50.167 92.7048 50.1489 92.7811 50.1086L96.0638 48.3826L99.3466 50.1086C99.4362 50.1563 99.5403 50.1722 99.6401 50.1548C99.8916 50.1115 100.061 49.873 100.017 49.6214L99.39 45.9657L102.045 43.3768C102.118 43.306 102.165 43.2135 102.18 43.1123C102.219 42.8593 102.043 42.6251 101.79 42.5875Z" fill="#FFA943"/>
<path d="M119.367 42.5875L115.697 42.0541L114.056 38.728C114.011 38.6369 113.937 38.5632 113.846 38.5184C113.618 38.4057 113.34 38.4996 113.226 38.728L111.585 42.0541L107.915 42.5875C107.814 42.602 107.722 42.6497 107.651 42.722C107.565 42.81 107.518 42.9284 107.52 43.0512C107.521 43.174 107.572 43.2911 107.659 43.3768L110.315 45.9657L109.687 49.6214C109.673 49.7065 109.682 49.7939 109.715 49.8739C109.747 49.9539 109.801 50.0231 109.871 50.0738C109.941 50.1246 110.024 50.1547 110.11 50.1608C110.196 50.167 110.282 50.1489 110.358 50.1086L113.641 48.3826L116.924 50.1086C117.013 50.1563 117.117 50.1722 117.217 50.1548C117.469 50.1115 117.638 49.873 117.594 49.6214L116.967 45.9657L119.623 43.3768C119.695 43.306 119.743 43.2135 119.757 43.1123C119.796 42.8593 119.62 42.6251 119.367 42.5875Z" fill="#FFA943"/>
<path d="M136.944 42.5875L133.274 42.0541L131.633 38.728C131.589 38.6369 131.515 38.5632 131.424 38.5184C131.195 38.4057 130.918 38.4996 130.804 38.728L129.163 42.0541L125.493 42.5875C125.392 42.602 125.299 42.6497 125.228 42.722C125.143 42.81 125.096 42.9284 125.097 43.0512C125.099 43.174 125.149 43.2911 125.237 43.3768L127.892 45.9657L127.265 49.6214C127.25 49.7065 127.26 49.7939 127.292 49.8739C127.325 49.9539 127.379 50.0231 127.449 50.0738C127.519 50.1246 127.601 50.1547 127.687 50.1608C127.773 50.167 127.86 50.1489 127.936 50.1086L131.219 48.3826L134.501 50.1086C134.591 50.1563 134.695 50.1722 134.795 50.1548C135.046 50.1115 135.215 49.873 135.172 49.6214L134.545 45.9657L137.2 43.3768C137.272 43.306 137.32 43.2135 137.335 43.1123C137.374 42.8593 137.197 42.6251 136.944 42.5875Z" fill="#FFA943"/>
<rect x="11.2817" y="11.252" width="31.058" height="31.058" rx="15.529" fill="#D9D9D9"/>
</svg>
