<svg width="69" height="69" viewBox="0 0 69 69" fill="none" xmlns="http://www.w3.org/2000/svg">
<g clip-path="url(#clip0_974_268)">
<path d="M34.2956 68.1201C52.9904 68.1201 68.1454 52.9881 68.1454 34.3218C68.1454 15.6555 52.9904 0.523438 34.2956 0.523438C15.6009 0.523438 0.445801 15.6555 0.445801 34.3218C0.445801 52.9881 15.6009 68.1201 34.2956 68.1201Z" fill="#E0E0E0"/>
<path d="M34.2958 67.0928C52.7065 67.0928 67.6312 52.1908 67.6312 33.8081C67.6312 15.4255 52.7065 0.523438 34.2958 0.523438C15.8852 0.523438 0.960449 15.4255 0.960449 33.8081C0.960449 52.1908 15.8852 67.0928 34.2958 67.0928Z" fill="white"/>
<mask id="mask0_974_268" style="mask-type:luminance" maskUnits="userSpaceOnUse" x="12" y="11" width="45" height="46">
<path d="M55.9018 29.9036H34.8099V38.6357H46.9506C45.8188 44.1832 41.086 47.3678 34.8099 47.3678C27.4021 47.3678 21.4346 41.4094 21.4346 34.0128C21.4346 26.6162 27.4021 20.6579 34.8099 20.6579C37.9994 20.6579 40.8802 21.7879 43.1438 23.6371L49.7286 17.0623C45.716 13.5695 40.5716 11.4121 34.8099 11.4121C22.2577 11.4121 12.1748 21.4797 12.1748 34.0128C12.1748 46.546 22.2577 56.6136 34.8099 56.6136C46.1275 56.6136 56.4162 48.3951 56.4162 34.0128C56.4162 32.6773 56.2104 31.2391 55.9018 29.9036Z" fill="white"/>
</mask>
<g mask="url(#mask0_974_268)">
<path d="M10.1172 47.3681V20.6582L27.608 34.0132L10.1172 47.3681Z" fill="#FBBC05"/>
</g>
<mask id="mask1_974_268" style="mask-type:luminance" maskUnits="userSpaceOnUse" x="12" y="11" width="45" height="46">
<path d="M55.9018 29.9036H34.8099V38.6357H46.9506C45.8188 44.1832 41.086 47.3678 34.8099 47.3678C27.4021 47.3678 21.4346 41.4094 21.4346 34.0128C21.4346 26.6162 27.4021 20.6579 34.8099 20.6579C37.9994 20.6579 40.8802 21.7879 43.1438 23.6371L49.7286 17.0623C45.716 13.5695 40.5716 11.4121 34.8099 11.4121C22.2577 11.4121 12.1748 21.4797 12.1748 34.0128C12.1748 46.546 22.2577 56.6136 34.8099 56.6136C46.1275 56.6136 56.4162 48.3951 56.4162 34.0128C56.4162 32.6773 56.2104 31.2391 55.9018 29.9036Z" fill="white"/>
</mask>
<g mask="url(#mask1_974_268)">
<path d="M10.1172 20.6578L27.608 34.0128L34.8101 27.7462L59.5029 23.7397V9.35742H10.1172V20.6578Z" fill="#EA4335"/>
</g>
<mask id="mask2_974_268" style="mask-type:luminance" maskUnits="userSpaceOnUse" x="12" y="11" width="45" height="46">
<path d="M55.9018 29.9036H34.8099V38.6357H46.9506C45.8188 44.1832 41.086 47.3678 34.8099 47.3678C27.4021 47.3678 21.4346 41.4094 21.4346 34.0128C21.4346 26.6162 27.4021 20.6579 34.8099 20.6579C37.9994 20.6579 40.8802 21.7879 43.1438 23.6371L49.7286 17.0623C45.716 13.5695 40.5716 11.4121 34.8099 11.4121C22.2577 11.4121 12.1748 21.4797 12.1748 34.0128C12.1748 46.546 22.2577 56.6136 34.8099 56.6136C46.1275 56.6136 56.4162 48.3951 56.4162 34.0128C56.4162 32.6773 56.2104 31.2391 55.9018 29.9036Z" fill="white"/>
</mask>
<g mask="url(#mask2_974_268)">
<path d="M10.1172 47.3678L40.9833 23.7397L49.1113 24.767L59.5029 9.35742V58.6681H10.1172V47.3678Z" fill="#34A853"/>
</g>
<mask id="mask3_974_268" style="mask-type:luminance" maskUnits="userSpaceOnUse" x="12" y="11" width="45" height="46">
<path d="M55.9018 29.9036H34.8099V38.6357H46.9506C45.8188 44.1832 41.086 47.3678 34.8099 47.3678C27.4021 47.3678 21.4346 41.4094 21.4346 34.0128C21.4346 26.6162 27.4021 20.6579 34.8099 20.6579C37.9994 20.6579 40.8802 21.7879 43.1438 23.6371L49.7286 17.0623C45.716 13.5695 40.5716 11.4121 34.8099 11.4121C22.2577 11.4121 12.1748 21.4797 12.1748 34.0128C12.1748 46.546 22.2577 56.6136 34.8099 56.6136C46.1275 56.6136 56.4162 48.3951 56.4162 34.0128C56.4162 32.6773 56.2104 31.2391 55.9018 29.9036Z" fill="white"/>
</mask>
<g mask="url(#mask3_974_268)">
<path d="M59.5026 58.6685L27.6077 34.0132L23.4922 30.9313L59.5026 20.6582V58.6685Z" fill="#4285F4"/>
</g>
</g>
<defs>
<clipPath id="clip0_974_268">
<rect width="67.5967" height="67.5967" fill="white" transform="translate(0.445801 0.523438)"/>
</clipPath>
</defs>
</svg>
