<svg width="529" height="426" viewBox="0 0 529 426" fill="none" xmlns="http://www.w3.org/2000/svg">
<g clip-path="url(#clip0_855_1050)">
<g style="mix-blend-mode:multiply" opacity="0.65">
<path d="M458.541 415.523C458.541 409.781 365.095 405.116 249.723 405.116C134.351 405.116 40.9048 409.781 40.9048 415.523C40.9048 421.266 134.368 425.931 249.723 425.931C365.078 425.931 458.541 421.266 458.541 415.523Z" fill="#0CB3F4"/>
</g>
<path d="M528.983 139.394V130.974L522.685 129.559C522.435 128.841 522.143 128.138 521.809 127.454L525.177 121.998L519.182 116.003L513.726 119.371C513.044 119.035 512.341 118.742 511.621 118.495L510.206 112.197H501.786L500.372 118.495C499.652 118.742 498.949 119.035 498.267 119.371L492.794 116.003L486.799 121.998L490.167 127.454C489.839 128.138 489.552 128.841 489.308 129.559L482.993 130.974V139.394L489.308 140.826C489.552 141.538 489.839 142.236 490.167 142.914L486.799 148.387L492.794 154.382L498.267 151.014C498.946 151.352 499.65 151.639 500.372 151.873L501.786 158.188H510.206L511.621 151.873C512.343 151.639 513.047 151.352 513.726 151.014L519.182 154.382L525.177 148.387L521.809 142.914C522.143 142.236 522.435 141.539 522.685 140.826L528.983 139.394ZM506.047 142.476C504.597 142.479 503.179 142.052 501.972 141.25C500.766 140.447 499.824 139.304 499.267 137.965C498.71 136.627 498.562 135.154 498.843 133.732C499.124 132.31 499.82 131.003 500.844 129.977C501.868 128.95 503.173 128.251 504.595 127.967C506.016 127.683 507.49 127.827 508.829 128.381C510.169 128.935 511.314 129.874 512.12 131.079C512.925 132.284 513.355 133.701 513.355 135.15C513.355 137.09 512.586 138.951 511.216 140.324C509.846 141.698 507.987 142.471 506.047 142.476Z" fill="url(#paint0_linear_855_1050)"/>
<path d="M119.817 70.0136V63.8837L115.271 62.8565C115.092 62.3373 114.878 61.8309 114.631 61.3409L117.14 57.4003L112.795 53.0723L108.804 55.5647C108.314 55.3225 107.807 55.1143 107.288 54.9416L106.261 50.3779H100.131L99.1041 54.9416C98.5852 55.1143 98.0788 55.3225 97.5884 55.5647L93.6479 53.0723L89.3199 57.4003L91.8123 61.3409C91.5701 61.8312 91.3619 62.3376 91.1892 62.8565L86.6255 63.8837V70.0136L91.1892 71.0408C91.3619 71.5597 91.5701 72.0661 91.8123 72.5564L89.3199 76.5138L93.6479 80.8418L97.5884 78.3494C98.082 78.5845 98.5879 78.7925 99.1041 78.9725L100.131 83.5194H106.261L107.288 78.9725C107.805 78.7925 108.31 78.5845 108.804 78.3494L112.745 80.8418L117.089 76.5138L114.58 72.5564C114.828 72.0664 115.042 71.56 115.22 71.0408L119.817 70.0136ZM103.247 72.2365C102.201 72.2365 101.179 71.9263 100.309 71.3453C99.4394 70.7643 98.7617 69.9384 98.3614 68.9722C97.9612 68.006 97.8565 66.9428 98.0605 65.917C98.2646 64.8913 98.7682 63.9491 99.5077 63.2096C100.247 62.4701 101.189 61.9665 102.215 61.7624C103.241 61.5584 104.304 61.6631 105.27 62.0633C106.237 62.4636 107.062 63.1413 107.643 64.0109C108.224 64.8805 108.535 65.9028 108.535 66.9486C108.535 67.643 108.398 68.3307 108.132 68.9722C107.866 69.6138 107.477 70.1967 106.986 70.6877C106.495 71.1787 105.912 71.5682 105.27 71.834C104.629 72.0997 103.941 72.2365 103.247 72.2365Z" fill="url(#paint1_linear_855_1050)"/>
<path d="M453.522 71.8828H298.93C291.433 71.8828 285.356 77.9597 285.356 85.456V195.456C285.356 202.952 291.433 209.029 298.93 209.029H453.522C461.019 209.029 467.095 202.952 467.095 195.456V85.456C467.095 77.9597 461.019 71.8828 453.522 71.8828Z" fill="white"/>
<path d="M354.94 113.73H302.584C300.045 113.73 297.987 115.789 297.987 118.328V155.578C297.987 158.117 300.045 160.176 302.584 160.176H354.94C357.479 160.176 359.538 158.117 359.538 155.578V118.328C359.538 115.789 357.479 113.73 354.94 113.73Z" fill="#D9E2E0"/>
<path d="M356.355 168.681H302.079C301.025 168.681 300.014 169.099 299.269 169.845C298.523 170.59 298.105 171.601 298.105 172.655C298.102 173.178 298.203 173.697 298.402 174.181C298.601 174.665 298.893 175.105 299.263 175.476C299.632 175.847 300.071 176.141 300.554 176.342C301.037 176.543 301.555 176.646 302.079 176.646H356.355C357.41 176.642 358.421 176.219 359.166 175.471C359.911 174.723 360.329 173.711 360.329 172.655C360.329 171.601 359.91 170.59 359.165 169.845C358.42 169.099 357.409 168.681 356.355 168.681Z" fill="#D9E2E0"/>
<path d="M332.778 184.931H302.079C301.555 184.931 301.037 185.034 300.554 185.235C300.071 185.436 299.632 185.73 299.263 186.101C298.893 186.471 298.601 186.912 298.402 187.396C298.203 187.88 298.102 188.398 298.105 188.922C298.105 189.976 298.523 190.987 299.269 191.732C300.014 192.477 301.025 192.896 302.079 192.896H332.778C333.832 192.896 334.843 192.477 335.589 191.732C336.334 190.987 336.753 189.976 336.753 188.922C336.753 187.866 336.335 186.854 335.59 186.106C334.845 185.358 333.834 184.935 332.778 184.931Z" fill="#D9E2E0"/>
<path d="M467.079 98.7766V85.4728C467.081 83.689 466.732 81.9222 466.051 80.2734C465.369 78.6247 464.37 77.1264 463.109 75.8643C461.849 74.6021 460.352 73.6008 458.704 72.9176C457.056 72.2344 455.29 71.8828 453.506 71.8828H298.93C295.326 71.8828 291.869 73.3146 289.32 75.8633C286.772 78.4119 285.34 81.8685 285.34 85.4728V98.7766H467.079Z" fill="url(#paint2_linear_855_1050)"/>
<path d="M453.691 114.135H389.631V194.698H453.691V114.135Z" fill="#D9E2E0"/>
<path d="M430.755 156.675L414.504 140.424L389.631 165.28V194.7H453.708V133.738L430.755 156.675Z" fill="#CCD6D3"/>
<path d="M437.912 133.838C437.912 135.17 437.517 136.472 436.776 137.58C436.036 138.688 434.984 139.551 433.753 140.061C432.523 140.571 431.168 140.704 429.861 140.444C428.555 140.184 427.354 139.543 426.412 138.601C425.47 137.659 424.829 136.458 424.569 135.152C424.309 133.845 424.442 132.491 424.952 131.26C425.462 130.029 426.325 128.977 427.433 128.237C428.541 127.497 429.843 127.102 431.176 127.102C432.962 127.102 434.675 127.811 435.939 129.075C437.202 130.338 437.912 132.051 437.912 133.838Z" fill="#CCD6D3"/>
<path d="M130.865 179.795H10.5756C4.73487 179.795 0 184.53 0 190.371V275.969C0 281.81 4.73487 286.545 10.5756 286.545H130.865C136.706 286.545 141.441 281.81 141.441 275.969V190.371C141.441 184.53 136.706 179.795 130.865 179.795Z" fill="url(#paint3_linear_855_1050)"/>
<path d="M58.8898 232.605C58.8898 219.25 48.063 208.423 34.7074 208.423C21.3518 208.423 10.5249 219.25 10.5249 232.605C10.5249 245.961 21.3518 256.788 34.7074 256.788C48.063 256.788 58.8898 245.961 58.8898 232.605Z" fill="white"/>
<path d="M46.6809 265.764H22.5489C22.2136 265.762 21.8811 265.826 21.5706 265.952C21.2602 266.079 20.9779 266.266 20.74 266.503C20.5021 266.739 20.3132 267.02 20.1844 267.33C20.0556 267.639 19.9893 267.971 19.9893 268.307C19.9893 268.642 20.0556 268.974 20.1844 269.284C20.3132 269.593 20.5021 269.874 20.74 270.111C20.9779 270.347 21.2602 270.534 21.5706 270.661C21.8811 270.788 22.2136 270.852 22.5489 270.849H46.6809C47.0162 270.852 47.3487 270.788 47.6592 270.661C47.9696 270.534 48.252 270.347 48.4899 270.111C48.7278 269.874 48.9166 269.593 49.0454 269.284C49.1743 268.974 49.2406 268.642 49.2406 268.307C49.2406 267.971 49.1743 267.639 49.0454 267.33C48.9166 267.02 48.7278 266.739 48.4899 266.503C48.252 266.266 47.9696 266.079 47.6592 265.952C47.3487 265.826 47.0162 265.762 46.6809 265.764Z" fill="url(#paint4_linear_855_1050)"/>
<path d="M121.738 214.3H73.2212C72.5467 214.3 71.9 214.568 71.4231 215.045C70.9462 215.521 70.6783 216.168 70.6783 216.843C70.6761 217.178 70.7402 217.51 70.867 217.821C70.9938 218.131 71.1807 218.414 71.4171 218.652C71.6534 218.89 71.9345 219.078 72.2441 219.207C72.5538 219.336 72.8858 219.402 73.2212 219.402H121.738C122.417 219.402 123.068 219.133 123.548 218.653C124.028 218.173 124.297 217.522 124.297 216.843C124.293 216.167 124.021 215.52 123.542 215.044C123.062 214.567 122.414 214.3 121.738 214.3Z" fill="white"/>
<path d="M102.153 230.383H73.2212C72.5467 230.383 71.9 230.651 71.4231 231.128C70.9462 231.605 70.6783 232.251 70.6783 232.926C70.6761 233.261 70.7402 233.594 70.867 233.904C70.9938 234.214 71.1807 234.497 71.4171 234.735C71.6534 234.973 71.9345 235.161 72.2441 235.29C72.5538 235.419 72.8858 235.485 73.2212 235.485H102.153C102.828 235.481 103.475 235.209 103.952 234.73C104.428 234.25 104.695 233.602 104.695 232.926C104.691 232.253 104.422 231.608 103.946 231.133C103.47 230.657 102.826 230.387 102.153 230.383Z" fill="white"/>
<path d="M85.885 245.201H73.2212C72.5467 245.201 71.9 245.469 71.4231 245.946C70.9462 246.423 70.6783 247.07 70.6783 247.744C70.6761 248.079 70.7402 248.412 70.867 248.722C70.9938 249.033 71.1807 249.315 71.4171 249.553C71.6534 249.791 71.9345 249.98 72.2441 250.109C72.5538 250.237 72.8858 250.304 73.2212 250.304H85.885C86.5639 250.304 87.2149 250.034 87.695 249.554C88.175 249.074 88.4447 248.423 88.4447 247.744C88.4402 247.068 88.1686 246.421 87.689 245.945C87.2095 245.469 86.561 245.201 85.885 245.201Z" fill="url(#paint5_linear_855_1050)"/>
<path d="M141.441 200.71V190.353C141.441 187.548 140.326 184.858 138.343 182.875C136.36 180.892 133.67 179.777 130.865 179.777H10.5588C7.75685 179.782 5.07122 180.898 3.09154 182.881C1.11187 184.864 -3.55226e-06 187.551 0 190.353V200.71H141.441Z" fill="url(#paint6_linear_855_1050)"/>
<path d="M321.731 194.362C311.408 161.625 254.876 160.682 254.876 160.682H231.064C231.064 160.682 176.485 162.197 166.179 194.935C155.873 227.672 158.601 260.729 161.026 272.248C163.451 283.766 180.426 304.396 180.426 304.396L176.788 322.583L193.763 326.035C227.739 332.944 262.776 332.749 296.673 325.463L310.145 322.583L306.508 304.396C306.508 304.396 323.5 283.766 325.925 272.248C328.35 260.729 332.038 227.116 321.731 194.362Z" fill="url(#paint7_linear_855_1050)"/>
<path d="M176.788 322.616C176.788 322.616 151.713 327.146 145.263 336.088C138.813 345.03 237.446 421.434 336.887 339.254L310.094 322.616H176.788Z" fill="url(#paint8_linear_855_1050)"/>
<path d="M303.578 255.222H183.187C178.405 255.222 174.919 259.566 175.39 264.854L181.604 334.286C181.807 336.389 182.778 338.344 184.332 339.776C185.885 341.209 187.912 342.018 190.024 342.05H296.842C298.954 342.018 300.981 341.209 302.535 339.776C304.088 338.344 305.059 336.389 305.262 334.286L311.375 264.821C311.846 259.566 308.36 255.222 303.578 255.222Z" fill="url(#paint9_linear_855_1050)"/>
<path d="M253.377 302.577C253.377 300.485 252.757 298.44 251.595 296.701C250.432 294.962 248.781 293.606 246.848 292.806C244.916 292.006 242.789 291.796 240.738 292.204C238.687 292.612 236.802 293.619 235.323 295.098C233.844 296.578 232.837 298.462 232.429 300.513C232.021 302.565 232.23 304.691 233.031 306.624C233.831 308.556 235.187 310.208 236.926 311.37C238.665 312.532 240.71 313.152 242.801 313.152C245.606 313.152 248.296 312.038 250.279 310.055C252.263 308.071 253.377 305.381 253.377 302.577Z" fill="white"/>
<path d="M258.143 160.866V144.936H236.907V160.715H231.064C222.426 161.144 213.858 162.482 205.5 164.706C209.256 185.773 225.389 196.702 247.601 196.702C268.5 196.702 288.337 187.507 293.423 168.209C282.083 164.056 270.198 161.582 258.143 160.866Z" fill="url(#paint10_linear_855_1050)"/>
<path d="M315.483 160.849C292.85 126.63 294.501 123.885 285.676 94.3472C276.852 64.8096 255.314 58.3935 248.039 66.9146C248.039 66.9146 243.728 61.2394 227.729 68.6996C211.731 76.1598 207.016 91.5517 208.683 114.488C210.653 141.197 223.519 149.162 223.486 161.337C228.117 160.798 231.064 160.697 231.064 160.697H236.907V148.909C226.029 143.975 218.198 131.598 218.198 119.22V107.432C224.923 107.387 231.424 105.006 236.587 100.696C242.145 95.6439 247.096 91.6865 250.969 92.4443L258.059 149.145C258.059 149.145 243.391 211.151 280.153 224.673C306.322 234.306 322.017 219.402 324.998 199.413C326.783 187.558 323.904 173.58 315.483 160.849Z" fill="url(#paint11_linear_855_1050)"/>
<path d="M271.834 131.968C271.598 130.789 267.051 121.51 262.538 112.804C258.21 104.384 254.96 95.1218 253.528 93.7409C249.419 89.7835 243.424 94.3303 236.587 100.612C231.429 104.93 224.925 107.313 218.198 107.348V119.136C218.198 135.471 231.821 151.789 248.156 151.132C269.981 150.172 271.834 131.968 271.834 131.968Z" fill="url(#paint12_linear_855_1050)"/>
<path d="M223.317 403.331C223.317 403.331 204.574 411.919 188.256 411.987C171.938 412.054 147.486 412.105 141.44 413.671C135.395 415.237 119.683 412.559 126.284 398.515C132.886 384.47 144.573 381.675 151.629 382.146C158.685 382.618 188.138 396.645 215.621 382.483L223.317 403.331Z" fill="url(#paint13_linear_855_1050)"/>
<path d="M194.302 385.548C194.302 385.548 211.9 381.085 227.881 375.141C241.926 369.92 295.376 323.946 322.439 320.848C338.403 319.012 372.353 314.937 377.472 327.365C382.592 339.793 364.926 366.097 348.541 378.677C330.825 392.351 218.973 413.267 200.853 413.502C200.853 413.502 195.683 394.978 194.302 385.548Z" fill="url(#paint14_linear_855_1050)"/>
<path d="M378.331 331.256C366.357 327.888 348.019 327.618 339.127 327.416C317.235 326.945 268.954 353.165 242.498 366.469C264.525 351.498 301.439 323.257 322.438 320.849C338.403 319.013 372.352 314.921 377.472 327.366C377.956 328.611 378.246 329.923 378.331 331.256Z" fill="#0591C1"/>
<path d="M274.057 406.816C274.057 406.816 292.8 415.404 309.101 415.489C325.402 415.573 349.871 415.606 355.917 417.173C361.962 418.739 377.691 416.044 371.073 402.016C364.455 387.989 352.768 385.176 345.728 385.665C338.689 386.153 309.219 400.147 281.736 386.001L274.057 406.816Z" fill="url(#paint15_linear_855_1050)"/>
<path d="M290.308 385.548C290.308 385.548 272.693 381.085 256.728 375.141C242.684 369.92 189.233 323.946 162.171 320.848C146.206 319.012 112.257 314.937 107.137 327.365C102.018 339.793 119.683 366.097 136.052 378.677C153.784 392.351 265.637 413.267 283.757 413.502C283.757 413.502 288.994 394.978 290.308 385.548Z" fill="url(#paint16_linear_855_1050)"/>
<path d="M162.171 320.848C146.206 319.012 112.256 314.937 107.137 327.365C105.894 331.104 105.894 335.145 107.137 338.884C112.189 327.416 151.629 318.457 182.817 339.254C216.817 361.904 254.034 383.881 288.708 393.715C289.549 390.078 289.836 388.31 290.24 385.548C290.24 385.548 272.625 381.085 256.661 375.141C242.683 369.92 189.233 323.946 162.171 320.848Z" fill="#0591C1"/>
<path d="M484.222 171.492H378.752C373.637 171.492 369.49 175.639 369.49 180.754V255.811C369.49 260.926 373.637 265.073 378.752 265.073H484.222C489.337 265.073 493.484 260.926 493.484 255.811V180.754C493.484 175.639 489.337 171.492 484.222 171.492Z" fill="white"/>
<path d="M493.484 189.848V180.754C493.484 178.298 492.508 175.942 490.771 174.205C489.034 172.468 486.678 171.492 484.222 171.492H378.752C376.295 171.492 373.94 172.468 372.203 174.205C370.466 175.942 369.49 178.298 369.49 180.754V189.848H493.484Z" fill="url(#paint17_linear_855_1050)"/>
<path d="M462.549 204.415H390.389C389.925 204.413 389.465 204.502 389.036 204.678C388.607 204.854 388.218 205.113 387.889 205.44C387.56 205.767 387.299 206.156 387.122 206.584C386.944 207.012 386.852 207.471 386.852 207.935C386.852 208.873 387.225 209.772 387.888 210.435C388.551 211.099 389.451 211.471 390.389 211.471H462.549C463.487 211.471 464.386 211.099 465.049 210.435C465.712 209.772 466.085 208.873 466.085 207.935C466.085 207.471 465.993 207.012 465.815 206.584C465.638 206.156 465.377 205.767 465.048 205.44C464.72 205.113 464.33 204.854 463.901 204.678C463.472 204.502 463.012 204.413 462.549 204.415Z" fill="url(#paint18_linear_855_1050)"/>
<path d="M462.549 223.443H390.389C389.451 223.443 388.551 223.816 387.888 224.479C387.225 225.142 386.852 226.042 386.852 226.98C386.857 227.915 387.231 228.81 387.894 229.47C388.556 230.129 389.454 230.499 390.389 230.499H462.549C463.484 230.499 464.381 230.129 465.043 229.47C465.706 228.81 466.081 227.915 466.085 226.98C466.085 226.042 465.712 225.142 465.049 224.479C464.386 223.816 463.487 223.443 462.549 223.443Z" fill="url(#paint19_linear_855_1050)"/>
<path d="M424.523 242.761H390.389C389.451 242.761 388.551 243.133 387.888 243.797C387.225 244.46 386.852 245.359 386.852 246.297C386.852 247.235 387.225 248.135 387.888 248.798C388.551 249.461 389.451 249.834 390.389 249.834H424.523C425.461 249.834 426.361 249.461 427.024 248.798C427.687 248.135 428.06 247.235 428.06 246.297C428.06 245.359 427.687 244.46 427.024 243.797C426.361 243.133 425.461 242.761 424.523 242.761Z" fill="url(#paint20_linear_855_1050)"/>
<path d="M333.486 3.20898H300.008C295.693 3.22231 291.559 4.94227 288.507 7.99331C285.456 11.0443 283.736 15.1786 283.723 19.4934V62.4695L296 50.1931C297.309 50.5303 298.655 50.7056 300.008 50.7151H333.486C337.801 50.7018 341.935 48.9818 344.986 45.9308C348.037 42.8797 349.757 38.7455 349.77 34.4307V19.4934C349.757 15.1786 348.037 11.0443 344.986 7.99331C341.935 4.94227 337.801 3.22231 333.486 3.20898ZM303.696 29.6649C303.029 29.6649 302.378 29.4674 301.824 29.0973C301.271 28.7272 300.839 28.2012 300.584 27.5857C300.329 26.9703 300.262 26.2931 300.392 25.6398C300.522 24.9865 300.843 24.3863 301.314 23.9153C301.785 23.4443 302.385 23.1235 303.039 22.9935C303.692 22.8636 304.369 22.9303 304.984 23.1852C305.6 23.4401 306.126 23.8718 306.496 24.4257C306.866 24.9795 307.064 25.6307 307.064 26.2969C307.064 27.1901 306.709 28.0468 306.077 28.6784C305.446 29.31 304.589 29.6649 303.696 29.6649ZM317.505 29.6649C316.838 29.6649 316.187 29.4674 315.633 29.0973C315.079 28.7272 314.648 28.2012 314.393 27.5857C314.138 26.9703 314.071 26.2931 314.201 25.6398C314.331 24.9865 314.652 24.3863 315.123 23.9153C315.594 23.4443 316.194 23.1235 316.847 22.9935C317.501 22.8636 318.178 22.9303 318.793 23.1852C319.409 23.4401 319.935 23.8718 320.305 24.4257C320.675 24.9795 320.873 25.6307 320.873 26.2969C320.873 27.1901 320.518 28.0468 319.886 28.6784C319.254 29.31 318.398 29.6649 317.505 29.6649ZM331.852 29.6649C331.186 29.6649 330.535 29.4674 329.981 29.0973C329.427 28.7272 328.996 28.2012 328.741 27.5857C328.486 26.9703 328.419 26.2931 328.549 25.6398C328.679 24.9865 329 24.3863 329.471 23.9153C329.942 23.4443 330.542 23.1235 331.195 22.9935C331.849 22.8636 332.526 22.9303 333.141 23.1852C333.757 23.4401 334.283 23.8718 334.653 24.4257C335.023 24.9795 335.22 25.6307 335.22 26.2969C335.22 27.1901 334.865 28.0468 334.234 28.6784C333.602 29.31 332.746 29.6649 331.852 29.6649Z" fill="white"/>
<g style="mix-blend-mode:multiply" opacity="0.45">
<path d="M442.004 16.3446C439.714 14.0565 436.61 12.7712 433.373 12.7712C430.136 12.7712 427.032 14.0565 424.742 16.3446L422.031 18.9548L419.269 16.1931C418.137 15.0606 416.793 14.1623 415.314 13.5494C413.834 12.9365 412.249 12.6211 410.647 12.6211C409.046 12.6211 407.46 12.9365 405.981 13.5494C404.501 14.1623 403.157 15.0606 402.025 16.1931C400.893 17.3252 399.994 18.6694 399.381 20.1488C398.769 21.6282 398.453 23.2139 398.453 24.8152C398.453 26.4165 398.769 28.0022 399.381 29.4816C399.994 30.961 400.893 32.3052 402.025 33.4374L422.031 53.393L422.149 53.5109L442.054 33.6058C444.336 31.3096 445.612 28.2015 445.602 24.9647C445.593 21.7279 444.298 18.6273 442.004 16.3446Z" fill="#19A2D8"/>
</g>
<g style="mix-blend-mode:multiply" opacity="0.45">
<path d="M514.652 297.019C513.981 296.348 513.185 295.815 512.308 295.451C511.431 295.088 510.491 294.901 509.541 294.901C508.592 294.901 507.652 295.088 506.775 295.451C505.898 295.815 505.101 296.348 504.43 297.019L502.847 298.602L501.163 296.918C499.806 295.566 497.968 294.807 496.052 294.807C494.136 294.807 492.298 295.566 490.941 296.918C490.27 297.589 489.737 298.386 489.373 299.263C489.01 300.14 488.823 301.08 488.823 302.029C488.823 302.979 489.01 303.919 489.373 304.796C489.737 305.672 490.27 306.469 490.941 307.14L502.729 318.928L514.517 307.14C515.857 305.805 516.622 303.999 516.647 302.107C516.672 300.216 515.956 298.39 514.652 297.019Z" fill="#19A2D8"/>
</g>
<path d="M40.1636 137.257C38.8594 135.953 37.0906 135.22 35.2463 135.22C33.4021 135.22 31.6333 135.953 30.329 137.257L28.7965 138.772L27.2304 137.206C26.5843 136.558 25.8166 136.044 24.9714 135.693C24.1261 135.342 23.2199 135.161 22.3047 135.161C21.3895 135.161 20.4833 135.342 19.638 135.693C18.7927 136.044 18.025 136.558 17.3789 137.206C16.7312 137.851 16.2173 138.617 15.8666 139.461C15.516 140.305 15.3354 141.21 15.3354 142.123C15.3354 143.037 15.516 143.942 15.8666 144.786C16.2173 145.63 16.7312 146.396 17.3789 147.041L28.7292 158.408L40.0795 147.041C41.3793 145.75 42.1173 143.998 42.133 142.166C42.1488 140.334 41.4411 138.57 40.1636 137.257Z" fill="url(#paint21_linear_855_1050)"/>
<path d="M447.089 292.741H404.871C395.914 292.741 388.654 300.002 388.654 308.958V351.177C388.654 360.133 395.914 367.394 404.871 367.394H447.089C456.046 367.394 463.306 360.133 463.306 351.177V308.958C463.306 300.002 456.046 292.741 447.089 292.741Z" fill="url(#paint22_linear_855_1050)"/>
<path d="M420.212 346.445L439.326 332.973C439.792 332.643 440.171 332.206 440.434 331.699C440.696 331.192 440.833 330.63 440.833 330.059C440.833 329.489 440.696 328.926 440.434 328.419C440.171 327.912 439.792 327.476 439.326 327.146L420.212 313.674C419.681 313.297 419.056 313.074 418.406 313.028C417.756 312.983 417.106 313.117 416.527 313.416C415.948 313.715 415.463 314.167 415.124 314.724C414.785 315.28 414.605 315.919 414.605 316.57V343.515C414.599 344.169 414.774 344.812 415.111 345.373C415.447 345.935 415.932 346.392 416.512 346.695C417.092 346.998 417.745 347.135 418.397 347.091C419.05 347.047 419.678 346.823 420.212 346.445Z" fill="white"/>
<path d="M109.73 104.62H76.5048C69.4643 104.62 63.7568 110.328 63.7568 117.368V150.594C63.7568 157.634 69.4643 163.342 76.5048 163.342H109.73C116.771 163.342 122.478 157.634 122.478 150.594V117.368C122.478 110.328 116.771 104.62 109.73 104.62Z" fill="url(#paint23_linear_855_1050)"/>
<path d="M85.346 122.016V125.384L85.2281 140.86C82.9866 140.239 80.5965 140.442 78.4921 141.433C74.3999 143.235 72.0928 147.007 73.339 149.853C74.5852 152.699 78.9299 153.558 83.0389 151.756C86.407 150.274 88.5288 147.495 88.512 145.02L88.6467 124.811L104.51 121.982L104.392 137.778C102.152 137.148 99.7582 137.351 97.6562 138.351C93.564 140.153 91.2569 143.925 92.5031 146.771C93.7493 149.617 98.094 150.476 102.203 148.674C105.571 147.192 107.693 144.413 107.676 141.938L107.811 121.427V118.059L85.346 122.016Z" fill="white"/>
<path d="M79.5024 306.365H49.8468C43.5597 306.365 38.4629 311.462 38.4629 317.749V347.405C38.4629 353.692 43.5597 358.789 49.8468 358.789H79.5024C85.7895 358.789 90.8863 353.692 90.8863 347.405V317.749C90.8863 311.462 85.7895 306.365 79.5024 306.365Z" fill="url(#paint24_linear_855_1050)"/>
<path d="M65.02 316.823C61.7156 316.8 58.484 317.792 55.7612 319.665C53.0384 321.537 50.9554 324.199 49.7933 327.293C48.6312 330.386 48.446 333.761 49.2627 336.963C50.0793 340.165 51.8585 343.039 54.3602 345.198L53.215 350.065L58.4018 347.741C60.4102 348.64 62.5838 349.11 64.7842 349.122C69.0673 349.153 73.1875 347.482 76.2383 344.475C79.2891 341.469 81.0205 337.373 81.0518 333.09C81.083 328.807 79.4116 324.687 76.405 321.636C73.3985 318.585 69.3031 316.854 65.02 316.823ZM57.7787 334.656C57.4456 334.656 57.12 334.558 56.8431 334.373C56.5662 334.188 56.3503 333.925 56.2229 333.617C56.0954 333.309 56.062 332.97 56.127 332.644C56.192 332.317 56.3524 332.017 56.5879 331.782C56.8234 331.546 57.1235 331.386 57.4502 331.321C57.7768 331.256 58.1154 331.289 58.4231 331.416C58.7308 331.544 58.9938 331.76 59.1789 332.037C59.3639 332.314 59.4627 332.639 59.4627 332.972C59.4629 333.41 59.2924 333.831 58.9874 334.146C58.6825 334.46 58.267 334.643 57.8292 334.656H57.7787ZM64.9694 334.656C64.6364 334.656 64.3108 334.558 64.0338 334.373C63.7569 334.188 63.5411 333.925 63.4136 333.617C63.2861 333.309 63.2528 332.97 63.3178 332.644C63.3828 332.317 63.5431 332.017 63.7786 331.782C64.0141 331.546 64.3142 331.386 64.6409 331.321C64.9676 331.256 65.3062 331.289 65.6139 331.416C65.9216 331.544 66.1846 331.76 66.3697 332.037C66.5547 332.314 66.6535 332.639 66.6535 332.972C66.6537 333.41 66.4832 333.831 66.1782 334.146C65.8733 334.46 65.4578 334.643 65.02 334.656H64.9694ZM71.7055 334.656C71.3724 334.656 71.0468 334.558 70.7699 334.373C70.493 334.188 70.2771 333.925 70.1497 333.617C70.0222 333.309 69.9889 332.97 70.0539 332.644C70.1188 332.317 70.2792 332.017 70.5147 331.782C70.7502 331.546 71.0503 331.386 71.377 331.321C71.7036 331.256 72.0422 331.289 72.35 331.416C72.6577 331.544 72.9207 331.76 73.1057 332.037C73.2908 332.314 73.3895 332.639 73.3895 332.972C73.3897 333.41 73.2193 333.831 72.9143 334.146C72.6093 334.46 72.1938 334.643 71.756 334.656H71.7055Z" fill="white"/>
<path d="M178.674 118.008H183.608C184.492 118.006 185.364 117.805 186.16 117.42C186.956 117.035 187.655 116.476 188.205 115.785L191.472 111.659L192.466 110.413V95.6777V91.3666C192.672 90.3947 193.186 89.515 193.931 88.8574H149.625C150.369 89.515 150.883 90.3947 151.09 91.3666V97.5638V110.463L152.083 111.71L155.35 115.835C155.899 116.529 156.598 117.089 157.394 117.474C158.19 117.859 159.063 118.059 159.948 118.058H164.259C164.259 119.965 165.016 121.794 166.365 123.143C167.713 124.491 169.542 125.249 171.449 125.249C172.4 125.251 173.342 125.065 174.221 124.702C175.099 124.339 175.897 123.805 176.569 123.132C177.24 122.459 177.772 121.66 178.133 120.78C178.495 119.901 178.678 118.959 178.674 118.008Z" fill="url(#paint25_linear_855_1050)"/>
<path d="M205.803 19.2068V19.0889V18.9879C204.091 16.1781 201.988 13.6265 199.556 11.4098C193.981 6.16346 187.042 2.5919 179.533 1.10364C174.429 0.0930571 169.177 0.0930571 164.074 1.10364C156.592 2.60071 149.683 6.17215 144.135 11.4098C141.701 13.6294 139.592 16.1804 137.87 18.9879V19.0889L137.786 19.2068C135.383 22.6578 133.71 26.5635 132.87 30.6843C132.03 34.8051 132.041 39.054 132.902 43.1704C133.771 47.8937 135.404 52.4439 137.736 56.6425C137.938 56.9962 138.46 57.754 139.049 58.6128C142.114 63.0249 148.463 72.2028 148.766 80.6229C148.912 83.3989 149.21 86.1648 149.658 88.9082H194.049C194.498 86.1648 194.796 83.3989 194.942 80.6229C195.245 72.2028 201.678 63.0249 204.658 58.6128C205.265 57.754 205.77 56.9288 205.972 56.6425C208.318 52.4506 209.952 47.8979 210.805 43.1704C211.649 39.0461 211.641 34.7926 210.781 30.6716C209.921 26.5505 208.227 22.649 205.803 19.2068Z" fill="url(#paint26_linear_855_1050)"/>
<path d="M165.623 51.0856L168.418 53.8642L182.362 39.9205C182.709 39.5733 183.121 39.2978 183.575 39.1099C184.029 38.9219 184.515 38.8252 185.006 38.8252C185.497 38.8252 185.983 38.9219 186.437 39.1099C186.891 39.2978 187.303 39.5733 187.65 39.9205C188.347 40.6238 188.738 41.5741 188.738 42.5645C188.738 43.5548 188.347 44.505 187.65 45.2084L171.433 61.4086C170.979 61.8643 170.44 62.2259 169.846 62.4726C169.252 62.7194 168.615 62.8464 167.972 62.8464C167.329 62.8464 166.692 62.7194 166.098 62.4726C165.505 62.2259 164.965 61.8643 164.512 61.4086L159.897 56.7944C159.518 56.411 159.219 55.9558 159.017 55.4555C158.815 54.9551 158.716 54.4196 158.724 53.8802C158.731 53.3408 158.847 52.8084 159.063 52.3141C159.279 51.8198 159.591 51.3735 159.982 51.0014C160.745 50.273 161.764 49.8737 162.819 49.8895C163.875 49.9052 164.881 50.3348 165.623 51.0856Z" fill="white"/>
</g>
<defs>
<linearGradient id="paint0_linear_855_1050" x1="572.835" y1="201.955" x2="474.269" y2="103.373" gradientUnits="userSpaceOnUse">
<stop stop-color="#024B68"/>
<stop offset="1" stop-color="#0079AF"/>
</linearGradient>
<linearGradient id="paint1_linear_855_1050" x1="140.935" y1="104.654" x2="56.6669" y2="20.3687" gradientUnits="userSpaceOnUse">
<stop stop-color="#FF7C1A"/>
<stop offset="0.01" stop-color="#FF7D1A"/>
<stop offset="0.4" stop-color="#FF981E"/>
<stop offset="0.74" stop-color="#FFA921"/>
<stop offset="1" stop-color="#FFAF22"/>
</linearGradient>
<linearGradient id="paint2_linear_855_1050" x1="434.527" y1="147.63" x2="310.954" y2="24.0399" gradientUnits="userSpaceOnUse">
<stop stop-color="#FF7C1A"/>
<stop offset="0.01" stop-color="#FF7D1A"/>
<stop offset="0.4" stop-color="#FF981E"/>
<stop offset="0.74" stop-color="#FFA921"/>
<stop offset="1" stop-color="#FFAF22"/>
</linearGradient>
<linearGradient id="paint3_linear_855_1050" x1="121.973" y1="284.406" x2="15.274" y2="177.707" gradientUnits="userSpaceOnUse">
<stop stop-color="#024B68"/>
<stop offset="1" stop-color="#0079AF"/>
</linearGradient>
<linearGradient id="paint4_linear_855_1050" x1="1.75137" y1="268.307" x2="204.776" y2="268.307" gradientUnits="userSpaceOnUse">
<stop stop-color="#FFAF22"/>
<stop offset="0.26" stop-color="#FFA921"/>
<stop offset="0.6" stop-color="#FF981E"/>
<stop offset="0.99" stop-color="#FF7D1A"/>
<stop offset="1" stop-color="#FF7C1A"/>
</linearGradient>
<linearGradient id="paint5_linear_855_1050" x1="1.75138" y1="247.744" x2="204.777" y2="247.744" gradientUnits="userSpaceOnUse">
<stop stop-color="#FFAF22"/>
<stop offset="0.26" stop-color="#FFA921"/>
<stop offset="0.6" stop-color="#FF981E"/>
<stop offset="0.99" stop-color="#FF7D1A"/>
<stop offset="1" stop-color="#FF7C1A"/>
</linearGradient>
<linearGradient id="paint6_linear_855_1050" x1="167.779" y1="290.4" x2="-17.7157" y2="104.906" gradientUnits="userSpaceOnUse">
<stop stop-color="#FFAF22"/>
<stop offset="0.26" stop-color="#FFA921"/>
<stop offset="0.6" stop-color="#FF981E"/>
<stop offset="0.99" stop-color="#FF7D1A"/>
<stop offset="1" stop-color="#FF7C1A"/>
</linearGradient>
<linearGradient id="paint7_linear_855_1050" x1="341.333" y1="347.894" x2="172.325" y2="178.886" gradientUnits="userSpaceOnUse">
<stop stop-color="#FFAF22"/>
<stop offset="0.26" stop-color="#FFA921"/>
<stop offset="0.6" stop-color="#FF981E"/>
<stop offset="0.99" stop-color="#FF7D1A"/>
<stop offset="1" stop-color="#FF7C1A"/>
</linearGradient>
<linearGradient id="paint8_linear_855_1050" x1="240.932" y1="388.697" x2="240.932" y2="333.226" gradientUnits="userSpaceOnUse">
<stop stop-color="#0079AF"/>
<stop offset="1" stop-color="#024B68"/>
</linearGradient>
<linearGradient id="paint9_linear_855_1050" x1="237.598" y1="377.347" x2="244.856" y2="235.148" gradientUnits="userSpaceOnUse">
<stop stop-color="#A5DADB"/>
<stop offset="1" stop-color="white"/>
</linearGradient>
<linearGradient id="paint10_linear_855_1050" x1="250.043" y1="203.893" x2="249.032" y2="142.999" gradientUnits="userSpaceOnUse">
<stop stop-color="#FFD292"/>
<stop offset="0.98" stop-color="#FDBA5C"/>
</linearGradient>
<linearGradient id="paint11_linear_855_1050" x1="297.178" y1="224.05" x2="234.297" y2="78.2817" gradientUnits="userSpaceOnUse">
<stop stop-color="#0079AF"/>
<stop offset="1" stop-color="#024B68"/>
</linearGradient>
<linearGradient id="paint12_linear_855_1050" x1="245.58" y1="159.401" x2="244.435" y2="90.3729" gradientUnits="userSpaceOnUse">
<stop stop-color="#FFD292"/>
<stop offset="0.98" stop-color="#FDBA5C"/>
</linearGradient>
<linearGradient id="paint13_linear_855_1050" x1="223.317" y1="398.06" x2="124.735" y2="398.06" gradientUnits="userSpaceOnUse">
<stop stop-color="#FFD292"/>
<stop offset="0.98" stop-color="#FDBA5C"/>
</linearGradient>
<linearGradient id="paint14_linear_855_1050" x1="165.32" y1="411.347" x2="409.3" y2="323.441" gradientUnits="userSpaceOnUse">
<stop stop-color="#024B68"/>
<stop offset="1" stop-color="#0079AF"/>
</linearGradient>
<linearGradient id="paint15_linear_855_1050" x1="274.057" y1="401.545" x2="372.639" y2="401.545" gradientUnits="userSpaceOnUse">
<stop stop-color="#FFD292"/>
<stop offset="0.98" stop-color="#FDBA5C"/>
</linearGradient>
<linearGradient id="paint16_linear_855_1050" x1="263.616" y1="412.088" x2="88.9161" y2="308.538" gradientUnits="userSpaceOnUse">
<stop stop-color="#0079AF"/>
<stop offset="1" stop-color="#024B68"/>
</linearGradient>
<linearGradient id="paint17_linear_855_1050" x1="465.815" y1="217.702" x2="373.952" y2="125.855" gradientUnits="userSpaceOnUse">
<stop stop-color="#FF7C1A"/>
<stop offset="0.01" stop-color="#FF7D1A"/>
<stop offset="0.4" stop-color="#FF981E"/>
<stop offset="0.74" stop-color="#FFA921"/>
<stop offset="1" stop-color="#FFAF22"/>
</linearGradient>
<linearGradient id="paint18_linear_855_1050" x1="386.852" y1="207.935" x2="466.085" y2="207.935" gradientUnits="userSpaceOnUse">
<stop stop-color="#0079AF"/>
<stop offset="1" stop-color="#024B68"/>
</linearGradient>
<linearGradient id="paint19_linear_855_1050" x1="368.597" y1="226.98" x2="642.536" y2="226.98" gradientUnits="userSpaceOnUse">
<stop stop-color="#0079AF"/>
<stop offset="1" stop-color="#024B68"/>
</linearGradient>
<linearGradient id="paint20_linear_855_1050" x1="368.597" y1="246.297" x2="642.537" y2="246.297" gradientUnits="userSpaceOnUse">
<stop stop-color="#0079AF"/>
<stop offset="1" stop-color="#024B68"/>
</linearGradient>
<linearGradient id="paint21_linear_855_1050" x1="59.833" y1="173.21" x2="-8.7233" y2="104.654" gradientUnits="userSpaceOnUse">
<stop stop-color="#FF7C1A"/>
<stop offset="0.01" stop-color="#FF7D1A"/>
<stop offset="0.4" stop-color="#FF981E"/>
<stop offset="0.74" stop-color="#FFA921"/>
<stop offset="1" stop-color="#FFAF22"/>
</linearGradient>
<linearGradient id="paint22_linear_855_1050" x1="460.932" y1="365.019" x2="373.312" y2="277.4" gradientUnits="userSpaceOnUse">
<stop stop-color="#FF7C1A"/>
<stop offset="0.01" stop-color="#FF7D1A"/>
<stop offset="0.4" stop-color="#FF981E"/>
<stop offset="0.74" stop-color="#FFA921"/>
<stop offset="1" stop-color="#FFAF22"/>
</linearGradient>
<linearGradient id="paint23_linear_855_1050" x1="148.665" y1="189.528" x2="48.9038" y2="89.7671" gradientUnits="userSpaceOnUse">
<stop stop-color="#024B68"/>
<stop offset="1" stop-color="#0079AF"/>
</linearGradient>
<linearGradient id="paint24_linear_855_1050" x1="96.7467" y1="364.632" x2="7.08965" y2="274.975" gradientUnits="userSpaceOnUse">
<stop stop-color="#FF7C1A"/>
<stop offset="0.01" stop-color="#FF7D1A"/>
<stop offset="0.4" stop-color="#FF981E"/>
<stop offset="0.74" stop-color="#FFA921"/>
<stop offset="1" stop-color="#FFAF22"/>
</linearGradient>
<linearGradient id="paint25_linear_855_1050" x1="186.909" y1="114.623" x2="133.138" y2="60.8522" gradientUnits="userSpaceOnUse">
<stop stop-color="#024B68"/>
<stop offset="1" stop-color="#0079AF"/>
</linearGradient>
<linearGradient id="paint26_linear_855_1050" x1="232.461" y1="108.106" x2="149.743" y2="25.3871" gradientUnits="userSpaceOnUse">
<stop stop-color="#FFAF22"/>
<stop offset="0.26" stop-color="#FFA921"/>
<stop offset="0.6" stop-color="#FF981E"/>
<stop offset="0.99" stop-color="#FF7D1A"/>
<stop offset="1" stop-color="#FF7C1A"/>
</linearGradient>
<clipPath id="clip0_855_1050">
<rect width="529" height="425.585" fill="white" transform="translate(0 0.345703)"/>
</clipPath>
</defs>
</svg>
