<svg width="88" height="111" viewBox="0 0 88 111" fill="none" xmlns="http://www.w3.org/2000/svg">
<g clip-path="url(#clip0_979_432)">
<path fill-rule="evenodd" clip-rule="evenodd" d="M54.7684 105.832H77.9263C80.5059 105.832 82.9798 104.807 84.8039 102.983C86.6279 101.159 87.6526 98.6854 87.6526 96.1059V23.1584C87.6361 22.5704 87.4334 22.0029 87.0737 21.5374L66.4632 1.04265C66.2283 0.929738 65.9711 0.871094 65.7105 0.871094C65.45 0.871094 65.1927 0.929738 64.9579 1.04265H9.84211C8.55512 1.02733 7.27789 1.26758 6.08444 1.74951C4.89099 2.23143 3.80506 2.94545 2.88959 3.85015C1.97412 4.75485 1.24731 5.83227 0.751291 7.01994C0.255273 8.2076 -9.11835e-05 9.48189 2.44238e-08 10.769V96.1059C0.0304747 98.696 1.08085 101.17 2.92332 102.99C4.76578 104.811 7.25176 105.832 9.84211 105.832H54.7684Z" fill="#E6EAED"/>
<path fill-rule="evenodd" clip-rule="evenodd" d="M87.8845 24.8953V23.1584C87.8679 22.5704 87.6652 22.0029 87.3055 21.5374L66.695 1.04265C66.4602 0.929738 66.2029 0.871094 65.9424 0.871094C65.6818 0.871094 65.4246 0.929738 65.1897 1.04265H62.9897V24.2005C63.0178 24.7749 63.2586 25.3183 63.6653 25.725C64.0719 26.1316 64.6153 26.3725 65.1897 26.4005L87.8845 24.8953Z" fill="#E2E3E3"/>
<path fill-rule="evenodd" clip-rule="evenodd" d="M13.0837 14.2415C12.7609 14.1659 12.4252 14.1643 12.1017 14.2368C11.7781 14.3092 11.4752 14.4538 11.2154 14.6598C10.9556 14.8658 10.7458 15.1278 10.6015 15.4263C10.4573 15.7248 10.3823 16.0521 10.3823 16.3836C10.3823 16.7151 10.4573 17.0424 10.6015 17.3409C10.7458 17.6394 10.9556 17.9014 11.2154 18.1074C11.4752 18.3134 11.7781 18.458 12.1017 18.5304C12.4252 18.6029 12.7609 18.6012 13.0837 18.5257H52.4521C52.7354 18.5414 53.0189 18.4992 53.2853 18.4016C53.5517 18.3039 53.7954 18.1529 54.0013 17.9577C54.2073 17.7626 54.3713 17.5275 54.4832 17.2667C54.5951 17.006 54.6526 16.7252 54.6521 16.4415C54.6689 16.1482 54.6236 15.8546 54.5189 15.5801C54.4143 15.3056 54.2528 15.0562 54.0451 14.8485C53.8374 14.6408 53.5881 14.4793 53.3135 14.3747C53.039 14.2701 52.7454 14.2247 52.4521 14.2415H13.0837Z" fill="#2185B2" fill-opacity="0.54"/>
<path fill-rule="evenodd" clip-rule="evenodd" d="M13.0843 25.3574C12.5099 25.3855 11.9664 25.6262 11.5598 26.0329C11.1531 26.4395 10.9123 26.983 10.8843 27.5574C10.8843 28.1408 11.1161 28.7005 11.5286 29.113C11.9412 29.5256 12.5008 29.7574 13.0843 29.7574H52.4527C52.746 29.7742 53.0396 29.7288 53.3141 29.6242C53.5886 29.5196 53.8379 29.3581 54.0457 29.1503C54.2534 28.9426 54.4149 28.6933 54.5195 28.4188C54.6241 28.1442 54.6695 27.8507 54.6527 27.5574C54.6527 26.9739 54.4209 26.4144 54.0083 26.0018C53.5958 25.5892 53.0362 25.3574 52.4527 25.3574H13.0843Z" fill="#2185B2" fill-opacity="0.54"/>
<path fill-rule="evenodd" clip-rule="evenodd" d="M13.0843 36.5898C12.5008 36.5898 11.9412 36.8216 11.5286 37.2342C11.1161 37.6468 10.8843 38.2063 10.8843 38.7898C10.9123 39.3642 11.1531 39.9076 11.5598 40.3143C11.9664 40.7209 12.5099 40.9617 13.0843 40.9898H74.8001C75.3745 40.9617 75.9179 40.7209 76.3245 40.3143C76.7312 39.9076 76.972 39.3642 77 38.7898C77 38.2063 76.7683 37.6468 76.3557 37.2342C75.9431 36.8216 75.3835 36.5898 74.8001 36.5898H13.0843Z" fill="#2185B2" fill-opacity="0.54"/>
<path fill-rule="evenodd" clip-rule="evenodd" d="M13.0837 47.8215C12.7609 47.746 12.4252 47.7444 12.1017 47.8169C11.7781 47.8893 11.4752 48.0338 11.2154 48.2398C10.9556 48.4458 10.7458 48.7079 10.6015 49.0064C10.4573 49.3049 10.3823 49.6322 10.3823 49.9637C10.3823 50.2952 10.4573 50.6225 10.6015 50.921C10.7458 51.2195 10.9556 51.4815 11.2154 51.6875C11.4752 51.8935 11.7781 52.0381 12.1017 52.1105C12.4252 52.183 12.7609 52.1813 13.0837 52.1058H44.3469C44.6402 52.1226 44.9337 52.0772 45.2083 51.9726C45.4828 51.8679 45.7321 51.7064 45.9398 51.4987C46.1476 51.291 46.309 51.0417 46.4137 50.7672C46.5183 50.4926 46.5637 50.1991 46.5469 49.9057C46.5473 49.622 46.4898 49.3412 46.3779 49.0805C46.266 48.8197 46.102 48.5847 45.8961 48.3896C45.6901 48.1944 45.4465 48.0434 45.1801 47.9457C44.9137 47.8481 44.6302 47.8058 44.3469 47.8215H13.0837Z" fill="#2185B2" fill-opacity="0.55"/>
<path fill-rule="evenodd" clip-rule="evenodd" d="M13.0843 58.9375C12.5099 58.9656 11.9664 59.2064 11.5598 59.613C11.1531 60.0197 10.9123 60.5631 10.8843 61.1375C10.8843 61.721 11.1161 62.2806 11.5286 62.6932C11.9412 63.1058 12.5008 63.3376 13.0843 63.3376H37.1685C37.4574 63.3376 37.7435 63.2806 38.0104 63.1701C38.2773 63.0595 38.5198 62.8975 38.7241 62.6932C38.9284 62.4889 39.0905 62.2463 39.201 61.9794C39.3116 61.7125 39.3685 61.4264 39.3685 61.1375C39.3404 60.5631 39.0996 60.0197 38.693 59.613C38.2863 59.2064 37.7429 58.9656 37.1685 58.9375H13.0843Z" fill="#2185B2" fill-opacity="0.55"/>
<path fill-rule="evenodd" clip-rule="evenodd" d="M38.3267 89.9679C38.1663 89.4756 37.8285 89.0607 37.3791 88.8039C36.9296 88.547 36.4006 88.4667 35.8951 88.5784C32.653 89.5048 30.9162 89.3889 28.253 90.0837C28.0013 90.1507 27.7654 90.267 27.5589 90.4259C27.3525 90.5848 27.1796 90.783 27.0504 91.0092C26.9211 91.2354 26.8381 91.485 26.806 91.7435C26.7739 92.002 26.7935 92.2643 26.8635 92.5152L30.5688 106.178C31.0177 107.649 32.012 108.891 33.3477 109.652C34.0388 109.966 34.7889 110.128 35.5478 110.128C36.3066 110.128 37.0567 109.966 37.7478 109.652C39.2416 109.258 40.5267 108.304 41.3372 106.989C41.9163 105.579 41.9163 103.998 41.3372 102.589L38.3267 89.9679Z" fill="#1B79A4"/>
<path fill-rule="evenodd" clip-rule="evenodd" d="M35.779 74.6843L53.7263 62.2948C54.0953 61.9271 54.595 61.7207 55.1158 61.7207C55.6367 61.7207 56.1363 61.9271 56.5053 62.2948C56.5739 62.5606 56.5739 62.8395 56.5053 63.1054L63.8 90.2001C63.9118 90.7056 63.8314 91.2346 63.5746 91.6841C63.3177 92.1336 62.9028 92.4713 62.4106 92.6317H61.6L39.8316 90.8948C39.3904 90.8958 38.9653 90.7289 38.6427 90.4278C38.3201 90.1267 38.1242 89.7141 38.0948 89.2738L34.6211 76.4212C34.6444 76.0554 34.7637 75.7023 34.9669 75.3974C35.1702 75.0925 35.4503 74.8464 35.779 74.6843Z" fill="#FFE177"/>
<path fill-rule="evenodd" clip-rule="evenodd" d="M53.379 57.8941L60.3264 55.9257C60.5698 55.8567 60.8248 55.8383 61.0757 55.8716C61.3265 55.9049 61.5678 55.9893 61.7848 56.1195C62.0018 56.2497 62.1898 56.4229 62.3373 56.6286C62.4847 56.8342 62.5885 57.0679 62.6422 57.3152L72.0211 92.052C72.1328 92.5575 72.0525 93.0865 71.7956 93.536C71.5388 93.9854 71.1239 94.3233 70.6316 94.4837L63.6843 96.3363C63.4493 96.4252 63.1978 96.4621 62.9471 96.4444C62.6965 96.4267 62.4527 96.3548 62.2325 96.2337C62.0124 96.1126 61.8211 95.9451 61.6719 95.743C61.5227 95.5408 61.4192 95.3086 61.3685 95.0626L51.9895 60.3257C51.9195 60.0748 51.8999 59.8125 51.932 59.554C51.964 59.2955 52.0471 59.0459 52.1763 58.8197C52.3056 58.5935 52.4784 58.3953 52.6849 58.2364C52.8913 58.0775 53.1273 57.9612 53.379 57.8941Z" fill="#D94428"/>
<path fill-rule="evenodd" clip-rule="evenodd" d="M27.5582 76.8833L36.3582 74.3359L40.874 91.4728L32.074 93.6728C30.9716 93.9693 29.8216 94.0458 28.6896 93.8979C27.5577 93.7499 26.4659 93.3805 25.4767 92.8106C24.4875 92.2408 23.6203 91.4816 22.9245 90.5766C22.2286 89.6716 21.7179 88.6383 21.4214 87.5359C21.1249 86.4335 21.0484 85.2835 21.1963 84.1515C21.3443 83.0196 21.7137 81.9279 22.2836 80.9387C22.8534 79.9495 23.6125 79.0822 24.5176 78.3864C25.4226 77.6906 26.4558 77.1798 27.5582 76.8833Z" fill="#D94428"/>
</g>
<defs>
<clipPath id="clip0_979_432">
<rect width="88" height="110.463" fill="white"/>
</clipPath>
</defs>
</svg>
