<svg width="99" height="99" viewBox="0 0 99 99" fill="none" xmlns="http://www.w3.org/2000/svg">
<g clip-path="url(#clip0_979_669)">
<path d="M99 0H0V99H99V0Z" fill="white"/>
<path d="M51.3009 45.5622C43.2873 45.5622 34.3899 42.4182 30.0058 48.4284C26.9999 44.3092 25.3836 39.3398 25.3911 34.2404C25.3911 2.3623 73.6161 2.3134 73.6161 34.2404C73.6236 39.3398 72.0073 44.3092 69.0014 48.4284C64.6104 42.413 34.596 45.5622 51.3009 45.5622Z" fill="#2185B2"/>
<path d="M49.5002 21.4805C51.1837 21.4805 52.8293 21.9797 54.2291 22.915C55.6288 23.8503 56.7197 25.1797 57.3639 26.7351C58.008 28.2904 58.1765 30.0019 57.8479 31.653C57.5194 33.3041 56.7086 34.8207 55.518 36.0109C54.3275 37.2012 52.8108 38.0118 51.1596 38.34C49.5084 38.6682 47.797 38.4994 46.2418 37.8549C44.6866 37.2104 43.3574 36.1192 42.4224 34.7193C41.4873 33.3194 40.9884 31.6736 40.9888 29.9901C40.9892 27.7331 41.8862 25.5686 43.4823 23.9728C45.0785 22.3769 47.2431 21.4805 49.5002 21.4805Z" fill="white"/>
<path d="M68.9942 48.4297C66.7567 51.5037 63.8239 54.0052 60.4354 55.7298C57.0469 57.4545 53.2986 58.3535 49.4964 58.3535C45.6942 58.3535 41.9459 57.4545 38.5573 55.7298C35.1688 54.0052 32.2361 51.5037 29.9985 48.4297C32.2347 45.3546 35.1665 42.8522 38.5546 41.1268C41.9426 39.4014 45.6908 38.502 49.4929 38.502C53.295 38.502 57.0432 39.4014 60.4312 41.1268C63.8193 42.8522 66.7511 45.3546 68.9872 48.4297H68.9942Z" fill="#D94428"/>
<path d="M92.9019 75.9005L87.4664 81.1998L88.7484 88.6807L82.0308 85.149L75.3132 88.6807L76.597 81.1998L71.1597 75.9005L78.672 74.8106L82.0308 68.0039L85.3896 74.8106L92.9019 75.9005Z" fill="#F1D638"/>
<path d="M60.4254 75.9005L54.9898 81.1998L56.2719 88.6807L49.5542 85.149L42.8349 88.6807L44.1187 81.1998L38.6831 75.9005L46.1954 74.8106L49.5542 68.0039L52.9148 74.8106L60.4254 75.9005Z" fill="#F1D638"/>
<path d="M27.8387 75.9005L22.4031 81.1998L23.6869 88.6807L16.9693 85.149L10.2517 88.6807L11.5337 81.1998L6.09814 75.9005L13.6087 74.8106L16.9693 68.0039L20.3281 74.8106L27.8387 75.9005Z" fill="#F1D638"/>
</g>
<defs>
<clipPath id="clip0_979_669">
<rect width="99" height="99" fill="white"/>
</clipPath>
</defs>
</svg>
