<svg width="79" height="69" viewBox="0 0 79 69" fill="none" xmlns="http://www.w3.org/2000/svg">
<g clip-path="url(#clip0_979_508)">
<path fill-rule="evenodd" clip-rule="evenodd" d="M52.9361 66.932L48.4904 53.4303C48.3642 53.1409 48.1574 52.8938 47.8946 52.7187C47.6319 52.5435 47.3243 52.4476 47.0085 52.4424H31.5311C31.1926 52.4483 30.8652 52.5639 30.598 52.7717C30.3308 52.9795 30.1382 53.2684 30.0492 53.595L25.6035 66.932H52.9361Z" fill="#1B79A4"/>
<path fill-rule="evenodd" clip-rule="evenodd" d="M71.3776 55.488H7.16248C6.22396 55.4907 5.29472 55.3023 4.43135 54.9343C3.56798 54.5663 2.78855 54.0264 2.14052 53.3475C0.779591 51.9965 0.00983095 50.161 0 48.2433V7.07975C0.00983095 5.16208 0.779591 3.32655 2.14052 1.97548C2.78855 1.29659 3.56798 0.75672 4.43135 0.388726C5.29472 0.0207331 6.22396 -0.167669 7.16248 -0.165011H71.3776C73.2953 -0.15518 75.1308 0.614548 76.4819 1.97548C77.1445 2.64854 77.6676 3.44604 78.0208 4.32205C78.374 5.19806 78.5505 6.13526 78.54 7.07975V48.2433C78.5598 49.189 78.3876 50.129 78.0339 51.0063C77.6801 51.8836 77.1521 52.68 76.4819 53.3475C75.1308 54.7085 73.2953 55.4782 71.3776 55.488Z" fill="#2185B2"/>
<path d="M70.3072 6.83301H8.31489C7.49647 6.83301 6.83301 7.49647 6.83301 8.31489V47.1732C6.83301 47.9917 7.49647 48.6551 8.31489 48.6551H70.3072C71.1256 48.6551 71.7891 47.9917 71.7891 47.1732V8.31489C71.7891 7.49647 71.1256 6.83301 70.3072 6.83301Z" fill="white"/>
<path fill-rule="evenodd" clip-rule="evenodd" d="M22.5574 65.8613C22.149 65.8813 21.7626 66.0525 21.4735 66.3416C21.1843 66.6308 21.0131 67.0171 20.9932 67.4255C21.0143 67.8259 21.1884 68.203 21.4794 68.4788C21.7705 68.7545 22.1564 68.9079 22.5574 68.9074H56.0645C56.4575 68.9074 56.8344 68.7513 57.1123 68.4734C57.3902 68.1955 57.5464 67.8185 57.5464 67.4255C57.5469 67.0245 57.3935 66.6387 57.1177 66.3476C56.8419 66.0565 56.4649 65.8824 56.0645 65.8613H22.5574Z" fill="#2185B2"/>
<path fill-rule="evenodd" clip-rule="evenodd" d="M18.3587 19.9228C18.0749 19.639 17.6899 19.4795 17.2885 19.4795C16.8871 19.4795 16.5021 19.639 16.2182 19.9228C15.9344 20.2067 15.7749 20.5916 15.7749 20.993C15.7749 21.3945 15.9344 21.7795 16.2182 22.0633L18.6057 24.3685C18.8957 24.6405 19.2783 24.792 19.6759 24.792C20.0735 24.792 20.4563 24.6405 20.7462 24.3685L25.7682 19.3465C26.052 19.0627 26.2115 18.6777 26.2115 18.2763C26.2115 17.8749 26.052 17.4899 25.7682 17.206C25.4843 16.9222 25.0993 16.7627 24.6979 16.7627C24.2965 16.7627 23.9115 16.9222 23.6277 17.206L19.6759 21.1577L18.3587 19.9228Z" fill="#98DB7C"/>
<path fill-rule="evenodd" clip-rule="evenodd" d="M32.6013 16.7119C32.2083 16.7119 31.8314 16.868 31.5535 17.1459C31.2756 17.4238 31.1195 17.8008 31.1195 18.1938C31.1083 18.3952 31.1383 18.5968 31.2077 18.7862C31.2772 18.9756 31.3845 19.1489 31.5233 19.2953C31.662 19.4418 31.8292 19.5583 32.0145 19.6379C32.1999 19.7174 32.3996 19.7583 32.6013 19.758H61.2511C61.4529 19.7583 61.6525 19.7174 61.8379 19.6379C62.0233 19.5583 62.1905 19.4418 62.3292 19.2953C62.468 19.1489 62.5754 18.9756 62.6448 18.7862C62.7142 18.5968 62.7442 18.3952 62.733 18.1938C62.733 17.9992 62.6947 17.8065 62.6202 17.6267C62.5458 17.4469 62.4366 17.2835 62.299 17.1459C62.1614 17.0083 61.9981 16.8992 61.8183 16.8247C61.6385 16.7503 61.4458 16.7119 61.2511 16.7119H32.6013Z" fill="#808080"/>
<path fill-rule="evenodd" clip-rule="evenodd" d="M32.6015 21.9814C32.201 22.0025 31.824 22.1766 31.5482 22.4677C31.2725 22.7588 31.1191 23.1447 31.1196 23.5457C31.1196 23.9387 31.2757 24.3156 31.5537 24.5935C31.8316 24.8714 32.2084 25.0276 32.6015 25.0276H61.2513C61.4459 25.0276 61.6386 24.9892 61.8184 24.9148C61.9982 24.8403 62.1616 24.7311 62.2992 24.5935C62.4368 24.4559 62.5459 24.2925 62.6204 24.1127C62.6949 23.9329 62.7332 23.7403 62.7332 23.5457C62.7337 23.1447 62.5803 22.7588 62.3045 22.4677C62.0287 22.1766 61.6517 22.0025 61.2513 21.9814H32.6015Z" fill="#808080"/>
<path fill-rule="evenodd" clip-rule="evenodd" d="M32.0253 30.1318C31.6249 30.1529 31.2479 30.327 30.9721 30.6181C30.6964 30.9092 30.5429 31.2951 30.5435 31.6961C30.5435 31.8907 30.5818 32.0834 30.6563 32.2632C30.7307 32.443 30.8399 32.6063 30.9775 32.7439C31.1151 32.8815 31.2785 32.9907 31.4583 33.0652C31.6381 33.1396 31.8307 33.178 32.0253 33.178H61.2515C61.4461 33.178 61.6388 33.1396 61.8186 33.0652C61.9984 32.9907 62.1617 32.8815 62.2993 32.7439C62.4369 32.6063 62.5461 32.443 62.6206 32.2632C62.695 32.0834 62.7334 31.8907 62.7334 31.6961C62.7339 31.2951 62.5804 30.9092 62.3047 30.6181C62.0289 30.327 61.6519 30.1529 61.2515 30.1318H32.0253Z" fill="#808080"/>
<path fill-rule="evenodd" clip-rule="evenodd" d="M32.0252 35.5654C31.6322 35.5654 31.2553 35.7215 30.9774 35.9995C30.6995 36.2774 30.5433 36.6543 30.5433 37.0473C30.5321 37.2487 30.5622 37.4503 30.6316 37.6397C30.7011 37.8291 30.8084 38.0023 30.9472 38.1488C31.0859 38.2952 31.253 38.4118 31.4384 38.4914C31.6238 38.571 31.8235 38.6118 32.0252 38.6115H61.2513C61.453 38.6118 61.6527 38.571 61.8381 38.4914C62.0235 38.4118 62.1907 38.2952 62.3294 38.1488C62.4681 38.0023 62.5755 37.8291 62.645 37.6397C62.7144 37.4503 62.7444 37.2487 62.7332 37.0473C62.7332 36.6543 62.5771 36.2774 62.2992 35.9995C62.0213 35.7215 61.6443 35.5654 61.2513 35.5654H32.0252Z" fill="#808080"/>
<path d="M23.1337 29.9668H17.2885C16.4701 29.9668 15.8066 30.6303 15.8066 31.4487V37.2939C15.8066 38.1123 16.4701 38.7758 17.2885 38.7758H23.1337C23.9522 38.7758 24.6156 38.1123 24.6156 37.2939V31.4487C24.6156 30.6303 23.9522 29.9668 23.1337 29.9668Z" fill="#D94428"/>
</g>
<defs>
<clipPath id="clip0_979_508">
<rect width="78.54" height="68.9077" fill="white"/>
</clipPath>
</defs>
</svg>
