<svg width="101" height="102" viewBox="0 0 101 102" fill="none" xmlns="http://www.w3.org/2000/svg">
<g clip-path="url(#clip0_979_608)">
<path fill-rule="evenodd" clip-rule="evenodd" d="M68.0764 98.7701L62.2351 81.4588C62.1178 81.0764 61.877 80.7438 61.5503 80.5131C61.2235 80.2824 60.8293 80.1668 60.4296 80.1844H40.5696C40.1282 80.1734 39.6966 80.3154 39.3481 80.5865C38.9997 80.8575 38.7558 81.2408 38.6578 81.6713L32.9229 98.7701H68.0764Z" fill="#13749F"/>
<path fill-rule="evenodd" clip-rule="evenodd" d="M91.6538 84.0075H9.13325C7.92931 84.0309 6.73332 83.8074 5.6191 83.3508C4.50488 82.8941 3.49604 82.214 2.6548 81.3524C1.78392 80.5127 1.09083 79.5065 0.616479 78.3936C0.142125 77.2807 -0.103763 76.0838 -0.106445 74.874V21.772C-0.106445 19.3215 0.867075 16.9713 2.59986 15.2385C4.33265 13.5057 6.68272 12.5322 9.13325 12.5322H91.6538C92.8672 12.5322 94.0686 12.7712 95.1897 13.2356C96.3107 13.6999 97.3294 14.3805 98.1873 15.2385C99.0453 16.0965 99.7258 17.1151 100.19 18.2361C100.655 19.3571 100.893 20.5586 100.893 21.772V74.874C100.864 77.3133 99.8718 79.6422 98.1322 81.3524C97.291 82.214 96.2822 82.8941 95.1679 83.3508C94.0537 83.8074 92.8577 84.0309 91.6538 84.0075Z" fill="#2185B2"/>
<path d="M90.2736 21.5596H10.6207C9.56487 21.5596 8.70898 22.4155 8.70898 23.4712V73.3871C8.70898 74.4429 9.56487 75.2988 10.6207 75.2988H90.2736C91.3294 75.2988 92.1853 74.4429 92.1853 73.3871V23.4712C92.1853 22.4155 91.3294 21.5596 90.2736 21.5596Z" fill="white"/>
<path fill-rule="evenodd" clip-rule="evenodd" d="M28.9933 97.4951C28.4863 97.4951 27.9999 97.6965 27.6414 98.0551C27.2829 98.4136 27.0815 98.8998 27.0815 99.4068C27.0815 99.9138 27.2829 100.4 27.6414 100.759C27.9999 101.117 28.4863 101.318 28.9933 101.318H72.0058C72.5128 101.318 72.9991 101.117 73.3576 100.759C73.7162 100.4 73.9175 99.9138 73.9175 99.4068C73.9175 98.8998 73.7162 98.4136 73.3576 98.0551C72.9991 97.6965 72.5128 97.4951 72.0058 97.4951H28.9933Z" fill="#2185B2"/>
<path fill-rule="evenodd" clip-rule="evenodd" d="M89.4239 2.5486C90.8647 4.15247 91.6595 6.23379 91.6542 8.38981C91.6549 8.90709 91.457 9.40489 91.1013 9.7804C90.7455 10.1559 90.2592 10.3805 89.7426 10.4077H76.4671C75.9319 10.4077 75.4187 10.1951 75.0402 9.81666C74.6618 9.43824 74.4492 8.92499 74.4492 8.38981C74.4768 6.11684 75.392 3.94474 76.9993 2.33739C78.6067 0.730033 80.7787 -0.185149 83.0517 -0.212704C84.2474 -0.220588 85.4317 0.0208828 86.5289 0.496325C87.6261 0.971768 88.6119 1.67074 89.4239 2.5486Z" fill="#E2E3E3"/>
<path fill-rule="evenodd" clip-rule="evenodd" d="M82.6269 0C81.1836 0.879 80.0313 2.16363 79.3135 3.6935C78.5958 5.22338 78.3447 6.93076 78.5913 8.60254V75.0862H22.4093V9.23976C22.3958 8.02135 22.6235 6.81231 23.0792 5.68224C23.5349 4.55217 24.2095 3.52337 25.0644 2.6551C26.8429 0.966717 29.1969 0.017578 31.6491 0H82.6269Z" fill="#ECEFF1"/>
<path d="M67.1211 7.22168H33.8792C32.7648 7.22168 31.8613 8.12511 31.8613 9.23956V18.2669C31.8613 19.3813 32.7648 20.2848 33.8792 20.2848H67.1211C68.2355 20.2848 69.1389 19.3813 69.1389 18.2669V9.23956C69.1389 8.12511 68.2355 7.22168 67.1211 7.22168Z" fill="#2185B2"/>
<path fill-rule="evenodd" clip-rule="evenodd" d="M33.8792 24.3213C33.3441 24.3213 32.8308 24.5339 32.4523 24.9123C32.0739 25.2907 31.8613 25.804 31.8613 26.3392C31.8613 26.8743 32.0739 27.3876 32.4523 27.766C32.8308 28.1444 33.3441 28.357 33.8792 28.357H67.1211C67.6563 28.357 68.1696 28.1444 68.548 27.766C68.9264 27.3876 69.139 26.8743 69.139 26.3392C69.139 25.804 68.9264 25.2907 68.548 24.9123C68.1696 24.5339 67.6563 24.3213 67.1211 24.3213H33.8792Z" fill="#D94428"/>
<path fill-rule="evenodd" clip-rule="evenodd" d="M33.8789 31.967C33.6099 31.9516 33.3407 31.9932 33.0889 32.0892C32.8371 32.1851 32.6084 32.3333 32.4179 32.5238C32.2273 32.7143 32.0792 32.943 31.9832 33.1948C31.8873 33.4466 31.8456 33.7159 31.861 33.9849C31.8606 34.2451 31.9135 34.5027 32.0161 34.7418C32.1188 34.981 32.2691 35.1966 32.458 35.3756C32.647 35.5546 32.8704 35.6931 33.1147 35.7827C33.359 35.8723 33.6191 35.911 33.8789 35.8966H67.1208C67.3807 35.911 67.6408 35.8723 67.8851 35.7827C68.1294 35.6931 68.3528 35.5546 68.5417 35.3756C68.7307 35.1966 68.881 34.981 68.9837 34.7418C69.0863 34.5027 69.1391 34.2451 69.1387 33.9849C69.1542 33.7159 69.1125 33.4466 69.0166 33.1948C68.9206 32.943 68.7725 32.7143 68.5819 32.5238C68.3914 32.3333 68.1627 32.1851 67.9109 32.0892C67.6591 31.9932 67.3899 31.9516 67.1208 31.967H33.8789Z" fill="#D94428"/>
<path fill-rule="evenodd" clip-rule="evenodd" d="M52.6771 41.526C52.6775 41.2657 52.6248 41.0081 52.5221 40.769C52.4195 40.5299 52.269 40.3142 52.08 40.1352C51.8911 39.9562 51.6677 39.8177 51.4234 39.7281C51.1791 39.6386 50.919 39.5998 50.6592 39.6143C50.1521 39.6143 49.666 39.8157 49.3075 40.1742C48.9489 40.5327 48.7476 41.0189 48.7476 41.526V44.2872C48.7476 44.7943 48.9489 45.2805 49.3075 45.639C49.666 45.9975 50.1521 46.1989 50.6592 46.1989C50.919 46.2134 51.1791 46.1746 51.4234 46.0851C51.6677 45.9955 51.8911 45.857 52.08 45.678C52.269 45.499 52.4195 45.2833 52.5221 45.0442C52.6248 44.8051 52.6775 44.5475 52.6771 44.2872V41.526Z" fill="#FFC107"/>
<path fill-rule="evenodd" clip-rule="evenodd" d="M52.2527 61.4918C52.2527 61.2407 52.2033 60.9921 52.1072 60.7602C52.0111 60.5283 51.8704 60.3175 51.6928 60.14C51.5153 59.9625 51.3046 59.8217 51.0727 59.7256C50.8407 59.6296 50.5922 59.5801 50.3411 59.5801C50.0813 59.5656 49.8212 59.6044 49.5769 59.694C49.3326 59.7835 49.1092 59.9221 48.9203 60.101C48.7313 60.28 48.5808 60.4957 48.4782 60.7348C48.3755 60.974 48.3228 61.2315 48.3232 61.4918V64.2531C48.3228 64.5133 48.3755 64.7709 48.4782 65.01C48.5808 65.2492 48.7313 65.4648 48.9203 65.6438C49.1092 65.8228 49.3326 65.9613 49.5769 66.0509C49.8212 66.1405 50.0813 66.1792 50.3411 66.1647C50.5922 66.1647 50.8407 66.1153 51.0727 66.0193C51.3046 65.9232 51.5153 65.7824 51.6928 65.6048C51.8704 65.4273 52.0111 65.2166 52.1072 64.9847C52.2033 64.7527 52.2527 64.5041 52.2527 64.2531V61.4918Z" fill="#FFC107"/>
<path fill-rule="evenodd" clip-rule="evenodd" d="M52.9958 48.7472C52.9265 49.0433 52.9249 49.3512 52.9914 49.6479C53.0578 49.9447 53.1904 50.2225 53.3793 50.4608C53.5683 50.6991 53.8087 50.8916 54.0825 51.0239C54.3563 51.1562 54.6564 51.2249 54.9605 51.2249C55.2646 51.2249 55.5647 51.1562 55.8385 51.0239C56.1123 50.8916 56.3527 50.6991 56.5417 50.4608C56.7306 50.2225 56.8632 49.9447 56.9296 49.6479C56.9961 49.3512 56.9946 49.0433 56.9253 48.7472C57.0172 47.6996 56.8298 46.6464 56.3821 45.6949C55.9343 44.7434 55.2422 43.9277 54.3765 43.3308C53.5511 42.7468 52.609 42.3482 51.6151 42.1625C50.599 41.9536 49.5512 41.9536 48.5352 42.1625C47.4609 42.5327 46.5028 43.179 45.7571 44.0365C45.0115 44.894 44.5044 45.9325 44.287 47.0479C44.0425 47.9522 44.052 48.9064 44.3143 49.8057C44.5766 50.705 45.0815 51.5146 45.7738 52.1457C46.8714 53.1336 48.1786 53.8598 49.5972 54.2698C50.6539 54.6317 51.6033 55.2524 52.3586 56.0752C52.5377 56.5547 52.5377 57.0827 52.3586 57.5621C52.2198 57.901 52.0033 58.2025 51.7266 58.4423C51.4498 58.6821 51.1206 58.8536 50.7654 58.9428H49.5972H48.5352C48.1867 58.6698 47.9152 58.3108 47.7476 57.9012C47.58 57.4915 47.5221 57.0452 47.5794 56.6063C47.5798 56.346 47.527 56.0885 47.4243 55.8493C47.3217 55.6102 47.1713 55.3945 46.9824 55.2155C46.7935 55.0366 46.5701 54.898 46.3258 54.8085C46.0814 54.7189 45.8214 54.6801 45.5615 54.6946C45.0545 54.6946 44.5682 54.896 44.2097 55.2545C43.8511 55.613 43.6498 56.0993 43.6498 56.6063C43.5139 57.777 43.7355 58.9614 44.2852 60.0039C44.8349 61.0464 45.687 61.8982 46.7298 62.4475C47.5882 62.8716 48.5336 63.0898 49.491 63.0847C50.3695 63.2374 51.2677 63.2374 52.1461 63.0847C53.2079 62.7775 54.1607 62.1753 54.8939 61.3482C55.6271 60.521 56.1105 59.5027 56.2881 58.4117C56.3867 57.5719 56.3051 56.7207 56.0487 55.9149C55.7923 55.1091 55.367 54.3672 54.8012 53.7388C53.6 52.3983 52.0588 51.4075 50.3407 50.8713C49.4876 50.5996 48.6945 50.1669 48.0042 49.5968C47.9018 49.4 47.8483 49.1814 47.8483 48.9596C47.8483 48.7377 47.9018 48.5192 48.0042 48.3224C48.098 47.8587 48.3011 47.4241 48.5966 47.0546C48.8922 46.6852 49.2717 46.3916 49.7035 46.1983H50.8717H51.9337C52.3471 46.4664 52.6699 46.8534 52.8595 47.3083C53.049 47.7632 53.0965 48.2648 52.9958 48.7472Z" fill="#FFC107"/>
</g>
<defs>
<clipPath id="clip0_979_608">
<rect width="101" height="101.319" fill="white"/>
</clipPath>
</defs>
</svg>
