<svg width="116" height="116" viewBox="0 0 116 116" fill="none" xmlns="http://www.w3.org/2000/svg">
<g clip-path="url(#clip0_979_486)">
<path fill-rule="evenodd" clip-rule="evenodd" d="M30.6419 33.9237C30.8494 34.1313 31.0959 34.296 31.3671 34.4083C31.6383 34.5207 31.929 34.5785 32.2225 34.5785C32.5161 34.5785 32.8068 34.5207 33.078 34.4083C33.3493 34.296 33.5957 34.1313 33.8033 33.9237C34.0109 33.7161 34.1755 33.4697 34.2878 33.1985C34.4002 32.9273 34.458 32.6366 34.458 32.343C34.458 32.0495 34.4002 31.7588 34.2878 31.4875C34.1755 31.2163 34.0109 30.9699 33.8033 30.7623L28.0884 25.0474C27.6804 24.6537 27.1355 24.4336 26.5685 24.4336C26.0015 24.4336 25.4566 24.6537 25.0486 25.0474C24.8183 25.2415 24.6332 25.4835 24.5062 25.7565C24.3793 26.0295 24.3135 26.327 24.3135 26.6281C24.3135 26.9292 24.3793 27.2267 24.5062 27.4998C24.6332 27.7728 24.8183 28.0148 25.0486 28.2088L30.6419 33.9237Z" fill="#B5D5F5"/>
<path fill-rule="evenodd" clip-rule="evenodd" d="M87.9117 91.074C88.1192 91.2816 88.3657 91.4463 88.6369 91.5586C88.9081 91.6709 89.1988 91.7288 89.4923 91.7288C89.7859 91.7288 90.0766 91.6709 90.3478 91.5586C90.6191 91.4463 90.8655 91.2816 91.0731 91.074C91.2807 90.8664 91.4453 90.62 91.5576 90.3488C91.67 90.0775 91.7279 89.7869 91.7279 89.4933C91.7279 89.1997 91.67 88.9091 91.5576 88.6378C91.4453 88.3666 91.2807 88.1202 91.0731 87.9126L85.3582 82.1977C84.939 81.7785 84.3703 81.543 83.7774 81.543C83.1845 81.543 82.616 81.7785 82.1968 82.1977C81.7775 82.617 81.542 83.1855 81.542 83.7784C81.542 84.3713 81.7775 84.9399 82.1968 85.3591L87.9117 91.074Z" fill="#B5D5F5"/>
<path fill-rule="evenodd" clip-rule="evenodd" d="M55.812 21.7646C55.812 22.052 55.8686 22.3367 55.9786 22.6022C56.0886 22.8677 56.2498 23.109 56.453 23.3123C56.6563 23.5155 56.8975 23.6767 57.1631 23.7867C57.4286 23.8967 57.7133 23.9533 58.0007 23.9533C58.5929 23.9541 59.1629 23.7275 59.5928 23.3202C60.0227 22.9129 60.2797 22.356 60.3109 21.7646V13.7395C60.2797 13.1481 60.0227 12.5912 59.5928 12.1839C59.1629 11.7766 58.5929 11.55 58.0007 11.5508C57.7133 11.5508 57.4286 11.6074 57.1631 11.7174C56.8975 11.8274 56.6563 11.9886 56.453 12.1918C56.2498 12.3951 56.0886 12.6363 55.9786 12.9019C55.8686 13.1674 55.812 13.452 55.812 13.7395V21.7646Z" fill="#B5D5F5"/>
<path fill-rule="evenodd" clip-rule="evenodd" d="M55.812 102.504C55.812 102.791 55.8686 103.076 55.9786 103.341C56.0886 103.607 56.2498 103.848 56.453 104.052C56.6563 104.255 56.8975 104.416 57.1631 104.526C57.4286 104.636 57.7133 104.693 58.0007 104.693C58.5929 104.693 59.1629 104.467 59.5928 104.059C60.0227 103.652 60.2797 103.095 60.3109 102.504V94.7219C60.2797 94.1305 60.0227 93.5736 59.5928 93.1663C59.1629 92.759 58.5929 92.5324 58.0007 92.5332C57.7133 92.5332 57.4286 92.5898 57.1631 92.6998C56.8975 92.8098 56.6563 92.971 56.453 93.1743C56.2498 93.3775 56.0886 93.6188 55.9786 93.8843C55.8686 94.1499 55.812 94.4345 55.812 94.7219V102.504Z" fill="#B5D5F5"/>
<path fill-rule="evenodd" clip-rule="evenodd" d="M91.0731 28.0877C91.2807 27.8801 91.4453 27.6337 91.5576 27.3624C91.67 27.0912 91.7279 26.8005 91.7279 26.5069C91.7279 26.2134 91.67 25.9227 91.5576 25.6515C91.4453 25.3803 91.2807 25.1338 91.0731 24.9262C90.8655 24.7187 90.6191 24.554 90.3478 24.4416C90.0766 24.3293 89.7859 24.2715 89.4923 24.2715C89.1988 24.2715 88.9081 24.3293 88.6369 24.4416C88.3657 24.554 88.1192 24.7187 87.9117 24.9262L82.1968 30.6411C81.7775 31.0604 81.542 31.629 81.542 32.2218C81.542 32.8147 81.7775 33.3833 82.1968 33.8025C82.616 34.2218 83.1845 34.4573 83.7774 34.4573C84.3703 34.4573 84.939 34.2218 85.3582 33.8025L91.0731 28.0877Z" fill="#B5D5F5"/>
<path fill-rule="evenodd" clip-rule="evenodd" d="M33.8033 85.3591C34.0109 85.1516 34.1755 84.9051 34.2878 84.6339C34.4002 84.3627 34.458 84.072 34.458 83.7784C34.458 83.4848 34.4002 83.1942 34.2878 82.9229C34.1755 82.6517 34.0109 82.4053 33.8033 82.1977C33.5957 81.9901 33.3493 81.8254 33.078 81.7131C32.8068 81.6008 32.5161 81.543 32.2225 81.543C31.929 81.543 31.6383 81.6008 31.3671 81.7131C31.0959 81.8254 30.8494 81.9901 30.6419 82.1977L25.0486 87.9126C24.8183 88.1066 24.6332 88.3486 24.5062 88.6217C24.3793 88.8947 24.3135 89.1922 24.3135 89.4933C24.3135 89.7944 24.3793 90.0919 24.5062 90.365C24.6332 90.638 24.8183 90.88 25.0486 91.074C25.4566 91.4678 26.0015 91.6878 26.5685 91.6878C27.1355 91.6878 27.6804 91.4678 28.0884 91.074L33.8033 85.3591Z" fill="#B5D5F5"/>
<path fill-rule="evenodd" clip-rule="evenodd" d="M102.503 60.1879C103.084 60.1879 103.641 59.9573 104.051 59.5469C104.461 59.1364 104.692 58.5797 104.692 57.9992C104.692 57.4188 104.461 56.8621 104.051 56.4516C103.641 56.0411 103.084 55.8105 102.503 55.8105H94.4782C93.8978 55.8105 93.341 56.0411 92.9306 56.4516C92.5201 56.8621 92.2896 57.4188 92.2896 57.9992C92.2896 58.5797 92.5201 59.1364 92.9306 59.5469C93.341 59.9573 93.8978 60.1879 94.4782 60.1879H102.503Z" fill="#B5D5F5"/>
<path fill-rule="evenodd" clip-rule="evenodd" d="M21.5225 60.1879C22.103 60.1879 22.6597 59.9573 23.0701 59.5469C23.4806 59.1364 23.7112 58.5797 23.7112 57.9992C23.7112 57.4188 23.4806 56.8621 23.0701 56.4516C22.6597 56.0411 22.103 55.8105 21.5225 55.8105H13.4973C12.9168 55.8105 12.3602 56.0411 11.9497 56.4516C11.5393 56.8621 11.3086 57.4188 11.3086 57.9992C11.3086 58.5797 11.5393 59.1364 11.9497 59.5469C12.3602 59.9573 12.9168 60.1879 13.4973 60.1879H21.5225Z" fill="#B5D5F5"/>
<path fill-rule="evenodd" clip-rule="evenodd" d="M85.3586 30.6416C92.6145 37.8976 96.6908 47.7387 96.6908 58.0001C96.6908 68.2616 92.6145 78.1027 85.3586 85.3586C78.1027 92.6145 68.2616 96.6909 58.0001 96.6909C47.7387 96.6909 37.8976 92.6145 30.6416 85.3586C23.4095 78.0901 19.3496 68.2537 19.3496 58.0001C19.3496 47.7466 23.4095 37.9102 30.6416 30.6416C37.9102 23.4095 47.7466 19.3496 58.0001 19.3496C68.2537 19.3496 78.0901 23.4095 85.3586 30.6416Z" fill="#E6EAED"/>
<path fill-rule="evenodd" clip-rule="evenodd" d="M45.2329 52.8936L59.3378 36.8433C59.4519 36.7139 59.5921 36.6103 59.7494 36.5393C59.9066 36.4683 60.0772 36.4316 60.2497 36.4316C60.4222 36.4316 60.5927 36.4683 60.75 36.5393C60.9072 36.6103 61.0476 36.7139 61.1617 36.8433L74.6584 61.162C74.8812 61.3893 75.006 61.6948 75.006 62.0131C75.006 62.3314 74.8812 62.637 74.6584 62.8643L53.5012 66.5121C53.2305 66.541 52.9575 66.4867 52.7185 66.3563C52.4795 66.226 52.2859 66.0258 52.1637 65.7825L45.7193 54.2311C45.492 54.1028 45.3182 53.8975 45.229 53.6523C45.1398 53.407 45.1412 53.1379 45.2329 52.8936Z" fill="#FFE177"/>
<path fill-rule="evenodd" clip-rule="evenodd" d="M50.096 66.7548C49.8758 66.5664 49.5955 66.4629 49.3056 66.4629C49.0158 66.4629 48.7356 66.5664 48.5153 66.7548C45.8403 68.2139 43.7732 68.8219 41.4629 70.0378C41.2848 70.2859 41.189 70.5836 41.189 70.889C41.189 71.1944 41.2848 71.4921 41.4629 71.7401L48.2721 83.8995C48.9441 85.063 50.0292 85.9312 51.3119 86.3313C51.9256 86.5991 52.5879 86.7374 53.2575 86.7374C53.927 86.7374 54.5893 86.5991 55.2029 86.3313C56.3665 85.6594 57.2347 84.5742 57.6348 83.2915C57.9027 82.6779 58.0409 82.0155 58.0409 81.346C58.0409 80.6765 57.9027 80.0142 57.6348 79.4005L50.096 66.7548Z" fill="#2185B2"/>
<path fill-rule="evenodd" clip-rule="evenodd" d="M37.6941 57.0277L45.3544 52.6504L53.1364 66.6336L45.3544 70.8894C44.0014 71.701 42.4336 72.0821 40.859 71.9823C39.2844 71.8825 37.7774 71.3065 36.5377 70.3306C35.298 69.3546 34.3842 68.0249 33.9176 66.5178C33.4509 65.0106 33.4533 63.3972 33.9246 61.8915C34.1755 60.8613 34.641 59.8956 35.2905 59.0575C35.94 58.2194 36.7591 57.5278 37.6941 57.0277Z" fill="#D94428"/>
<path fill-rule="evenodd" clip-rule="evenodd" d="M81.8323 63.1074L76.3606 66.2688C76.1333 66.4916 75.8276 66.6164 75.5094 66.6164C75.1911 66.6164 74.8855 66.4916 74.6582 66.2688L57.5136 35.5057C57.2908 35.2784 57.166 34.9729 57.166 34.6546C57.166 34.3363 57.2908 34.0307 57.5136 33.8034L62.9853 30.7636C63.2126 30.5408 63.5182 30.416 63.8364 30.416C64.1547 30.416 64.4603 30.5408 64.6876 30.7636L81.8323 61.5267C81.9389 61.6289 82.0238 61.7515 82.0818 61.8874C82.1398 62.0232 82.1697 62.1694 82.1697 62.317C82.1697 62.4647 82.1398 62.6109 82.0818 62.7467C82.0238 62.8826 81.9389 63.0053 81.8323 63.1074Z" fill="#D94428"/>
<path fill-rule="evenodd" clip-rule="evenodd" d="M2.43192 52.2844C3.95609 50.8795 5.95234 50.0984 8.0252 50.0957C10.126 50.1876 12.1185 51.0539 13.6185 52.5276C15.0234 54.0517 15.8045 56.048 15.8072 58.1209C15.7856 59.6901 15.2973 61.2174 14.4046 62.5081C13.5119 63.7989 12.2551 64.7946 10.7943 65.3685C9.33362 65.9423 7.73507 66.0683 6.20249 65.7304C4.66991 65.3925 3.27262 64.6059 2.18868 63.471C0.783798 61.9468 0.00265006 59.9505 0 57.8777C0.0146626 56.8307 0.237192 55.7972 0.654666 54.837C1.07214 53.8768 1.67629 53.0091 2.43192 52.2844Z" fill="#2185B2"/>
<path fill-rule="evenodd" clip-rule="evenodd" d="M28.0882 17.0226C28.8355 17.7217 29.4272 18.5701 29.8253 19.5127C30.2233 20.4554 30.4186 21.4713 30.3984 22.4943C30.4063 23.5337 30.206 24.5641 29.8092 25.5247C29.4124 26.4854 28.8273 27.3568 28.0882 28.0876C27.3892 28.8349 26.5407 29.4268 25.598 29.8248C24.6553 30.2228 23.6395 30.418 22.6164 30.3979C20.5203 30.3979 18.51 29.5652 17.0278 28.083C15.5456 26.6008 14.7128 24.5905 14.7128 22.4943C14.6927 21.4713 14.8879 20.4554 15.286 19.5127C15.684 18.5701 16.2759 17.7217 17.0231 17.0226C17.7539 16.2835 18.6254 15.6983 19.5861 15.3015C20.5467 14.9047 21.5771 14.7044 22.6164 14.7124C23.6395 14.6922 24.6553 14.8875 25.598 15.2855C26.5407 15.6835 27.3892 16.2754 28.0882 17.0226Z" fill="#98DB7C"/>
<path fill-rule="evenodd" clip-rule="evenodd" d="M63.3499 1.94584C64.8604 3.38262 65.7725 5.33694 65.9035 7.41753C65.953 8.45938 65.7959 9.50075 65.4411 10.4816C65.0863 11.4624 64.5409 12.3634 63.8363 13.1324C62.4442 14.6352 60.5302 15.5488 58.4863 15.6859C57.4521 15.7586 56.4138 15.624 55.4324 15.2899C54.451 14.9558 53.5463 14.429 52.7714 13.7404C51.9916 13.0536 51.3623 12.213 50.9229 11.2714C50.4834 10.3297 50.2435 9.30745 50.2179 8.26868C50.1452 7.23453 50.2798 6.19629 50.6138 5.2149C50.9479 4.23352 51.4748 3.32877 52.1634 2.5538C53.5965 1.04099 55.5548 0.134865 57.6356 0.0217801C59.7163 -0.091305 61.7613 0.597259 63.3499 1.94584Z" fill="#FFC107"/>
<path fill-rule="evenodd" clip-rule="evenodd" d="M99.0989 17.0227C100.562 18.4694 101.393 20.4367 101.409 22.4943C101.362 24.5813 100.538 26.5755 99.0989 28.0876C97.9935 29.1948 96.5844 29.9491 95.0501 30.2548C93.5157 30.5605 91.9251 30.404 90.4798 29.805C89.0344 29.2061 87.7994 28.1916 86.9311 26.8902C86.0628 25.5888 85.6002 24.0589 85.602 22.4943C85.5818 21.4713 85.7771 20.4554 86.1751 19.5128C86.5731 18.5701 87.165 17.7217 87.9123 17.0227C88.6464 16.2874 89.5182 15.704 90.478 15.306C91.4378 14.908 92.4666 14.7031 93.5056 14.7031C94.5446 14.7031 95.5734 14.908 96.5332 15.306C97.4929 15.704 98.3648 16.2874 99.0989 17.0227Z" fill="#98DB7C"/>
<path fill-rule="evenodd" clip-rule="evenodd" d="M102.867 52.1626C104.404 50.7915 106.402 50.0529 108.461 50.0955C110.548 50.2019 112.511 51.1179 113.933 52.649C114.624 53.3773 115.163 54.2365 115.518 55.1762C115.873 56.1158 116.037 57.1169 116 58.1207C115.989 59.1621 115.756 60.1893 115.316 61.1331C114.875 62.0769 114.238 62.9154 113.446 63.5924C112.005 64.9594 110.082 65.7022 108.096 65.6594C106.009 65.5531 104.046 64.637 102.624 63.106C101.92 62.3369 101.374 61.436 101.02 60.4552C100.665 59.4743 100.508 58.433 100.557 57.3911C100.66 55.4238 101.482 53.5628 102.867 52.1626Z" fill="#2185B2"/>
<path fill-rule="evenodd" clip-rule="evenodd" d="M99.0987 87.9113C99.8303 88.635 100.411 89.4966 100.808 90.4463C101.204 91.3959 101.408 92.4148 101.408 93.4438C101.408 94.4729 101.204 95.4917 100.808 96.4414C100.411 97.391 99.8303 98.2526 99.0987 98.9763C98.3646 99.7116 97.4928 100.295 96.533 100.693C95.5733 101.091 94.5445 101.296 93.5054 101.296C92.4664 101.296 91.4376 101.091 90.4779 100.693C89.5181 100.295 88.6463 99.7116 87.9122 98.9763C87.1766 98.2682 86.5926 97.4182 86.1955 96.4776C85.7984 95.537 85.5964 94.5256 85.6019 93.5047C85.5869 92.4643 85.7841 91.4318 86.1813 90.4702C86.5785 89.5086 87.1674 88.6379 87.9122 87.9113C88.6463 87.176 89.5181 86.5927 90.4779 86.1947C91.4376 85.7967 92.4664 85.5918 93.5054 85.5918C94.5445 85.5918 95.5733 85.7967 96.533 86.1947C97.4928 86.5927 98.3646 87.176 99.0987 87.9113Z" fill="#98DB7C"/>
<path fill-rule="evenodd" clip-rule="evenodd" d="M63.4714 102.503C64.2348 103.196 64.8454 104.04 65.2641 104.983C65.6828 105.925 65.9005 106.944 65.9034 107.975C65.9007 110.048 65.1196 112.044 63.7147 113.568C63.0127 114.32 62.1663 114.923 61.2263 115.341C60.2862 115.758 59.2715 115.983 58.2429 116C57.1903 116.055 56.1378 115.888 55.1535 115.511C54.1691 115.134 53.2746 114.555 52.528 113.811C51.0311 112.377 50.1578 110.412 50.0962 108.339C50.0988 106.267 50.88 104.27 52.2849 102.746C53.0096 101.991 53.8773 101.386 54.8375 100.969C55.7977 100.551 56.8312 100.329 57.8782 100.314C58.9124 100.261 59.9461 100.429 60.9105 100.806C61.8749 101.184 62.7479 101.762 63.4714 102.503Z" fill="#FFC107"/>
<path fill-rule="evenodd" clip-rule="evenodd" d="M28.088 87.9113C28.8328 88.6378 29.4217 89.5085 29.8189 90.4702C30.2161 91.4318 30.4132 92.4643 30.3983 93.5046C30.4037 94.5256 30.2018 95.537 29.8047 96.4776C29.4076 97.4181 28.8236 98.2682 28.088 98.9763C27.389 99.7235 26.5405 100.315 25.5979 100.713C24.6552 101.111 23.6393 101.307 22.6163 101.287C21.5769 101.295 20.5466 101.094 19.5859 100.697C18.6253 100.301 17.7538 99.7154 17.023 98.9763C16.2875 98.2682 15.7035 97.4181 15.3063 96.4776C14.9092 95.537 14.7072 94.5256 14.7127 93.5046C14.6978 92.4643 14.8949 91.4318 15.2921 90.4702C15.6893 89.5085 16.2783 88.6378 17.023 87.9113C17.7538 87.1722 18.6253 86.587 19.5859 86.1902C20.5466 85.7934 21.5769 85.5931 22.6163 85.601C23.6393 85.5809 24.6552 85.7761 25.5979 86.1741C26.5405 86.5722 27.389 87.164 28.088 87.9113Z" fill="#98DB7C"/>
</g>
<defs>
<clipPath id="clip0_979_486">
<rect width="116" height="116" fill="white"/>
</clipPath>
</defs>
</svg>
