<svg width="113" height="95" viewBox="0 0 113 95" fill="none" xmlns="http://www.w3.org/2000/svg">
<g clip-path="url(#clip0_979_456)">
<path fill-rule="evenodd" clip-rule="evenodd" d="M102.907 94.9992H9.7953C8.5046 95.015 7.22381 94.7725 6.02827 94.2858C4.83272 93.7992 3.74659 93.0783 2.83386 92.1656C1.92114 91.2528 1.20024 90.1667 0.713598 88.9712C0.22696 87.7756 -0.0155983 86.4948 0.000240252 85.2041V21.3594C-0.000556373 20.7846 0.219433 20.2315 0.614738 19.8142C1.01004 19.397 1.55048 19.1474 2.12447 19.1172H110.578C111.152 19.1474 111.692 19.397 112.088 19.8142C112.483 20.2315 112.703 20.7846 112.702 21.3594V85.2041C112.712 86.494 112.467 87.7731 111.981 88.968C111.495 90.1629 110.777 91.2499 109.87 92.1668C108.961 93.0849 107.875 93.8093 106.679 94.2961C105.482 94.7829 104.199 95.0221 102.907 94.9992Z" fill="#2185B2"/>
<path fill-rule="evenodd" clip-rule="evenodd" d="M109.28 22.541H3.06908V85.2056C3.05225 86.0611 3.21114 86.911 3.53592 87.7027C3.8607 88.4943 4.3445 89.2109 4.95732 89.8081C5.54658 90.3906 6.24771 90.8478 7.01844 91.152C7.78916 91.4563 8.61348 91.6013 9.44176 91.5783H102.554C104.223 91.5983 105.833 90.9626 107.038 89.8081C108.232 88.5716 108.908 86.9247 108.926 85.2056V22.541H109.28Z" fill="#EEF2F4"/>
<path fill-rule="evenodd" clip-rule="evenodd" d="M110.578 23.4848H2.24214C1.67876 23.4848 1.13844 23.261 0.740067 22.8627C0.341698 22.4643 0.117916 21.924 0.117916 21.3606V9.55936C0.102078 8.26867 0.344636 6.98787 0.831274 5.79233C1.31791 4.59679 2.03881 3.51075 2.95154 2.59802C3.86427 1.6853 4.9504 0.964396 6.14594 0.477758C7.34148 -0.00887984 8.62228 -0.251438 9.91297 -0.2356H103.025C104.297 -0.242647 105.557 0.0041997 106.733 0.490543C107.908 0.976887 108.974 1.69292 109.87 2.59667C110.777 3.51358 111.494 4.60071 111.98 5.79557C112.466 6.99044 112.711 8.26946 112.702 9.55936V21.3606C112.702 21.924 112.478 22.4643 112.08 22.8627C111.681 23.261 111.141 23.4848 110.578 23.4848Z" fill="#2185B2"/>
<path fill-rule="evenodd" clip-rule="evenodd" d="M22.3039 11.8004C22.3039 10.9241 21.9557 10.0836 21.3361 9.46389C20.7164 8.84421 19.8759 8.49609 18.9995 8.49609C18.2448 8.64068 17.564 9.04381 17.0744 9.63613C16.5847 10.2285 16.3169 10.973 16.3169 11.7415C16.3169 12.51 16.5847 13.2544 17.0744 13.8467C17.564 14.439 18.2448 14.8422 18.9995 14.9868C19.8558 14.9874 20.679 14.6554 21.2954 14.0611C21.9118 13.4667 22.2733 12.6562 22.3039 11.8004Z" fill="#98DB7C"/>
<path fill-rule="evenodd" clip-rule="evenodd" d="M34.6958 11.8009C34.7117 11.3726 34.641 10.9455 34.488 10.5452C34.335 10.1449 34.1028 9.77957 33.8054 9.47107C33.5079 9.16258 33.1512 8.91734 32.7567 8.74988C32.3622 8.58242 31.9381 8.49623 31.5095 8.49652C31.0316 8.40497 30.5393 8.42007 30.0679 8.54082C29.5965 8.66156 29.1576 8.88498 28.7825 9.19502C28.4074 9.50506 28.1055 9.89408 27.8983 10.3343C27.691 10.7746 27.5835 11.2553 27.5835 11.7419C27.5835 12.2285 27.691 12.7091 27.8983 13.1493C28.1055 13.5896 28.4074 13.9787 28.7825 14.2887C29.1576 14.5988 29.5965 14.8221 30.0679 14.9429C30.5393 15.0636 31.0316 15.0788 31.5095 14.9872C32.3546 14.9872 33.165 14.6515 33.7626 14.0539C34.3602 13.4564 34.6958 12.6459 34.6958 11.8009Z" fill="#FFC107"/>
<path fill-rule="evenodd" clip-rule="evenodd" d="M47.2052 11.8004C47.2052 10.9241 46.8571 10.0836 46.2374 9.46389C45.6177 8.84421 44.7773 8.49609 43.9009 8.49609C43.1461 8.64068 42.4654 9.04381 41.9757 9.63613C41.4861 10.2285 41.2183 10.973 41.2183 11.7415C41.2183 12.51 41.4861 13.2544 41.9757 13.8467C42.4654 14.439 43.1461 14.8422 43.9009 14.9868C44.7572 14.9874 45.5802 14.6554 46.1966 14.0611C46.813 13.4667 47.1746 12.6562 47.2052 11.8004Z" fill="#EF5350"/>
<path d="M98.0686 27.9688H14.5158C13.3426 27.9688 12.3916 28.9198 12.3916 30.093V52.1613C12.3916 53.3345 13.3426 54.2855 14.5158 54.2855H98.0686C99.2418 54.2855 100.193 53.3345 100.193 52.1613V30.093C100.193 28.9198 99.2418 27.9688 98.0686 27.9688Z" fill="#D94428"/>
<path d="M46.3792 60.6582H14.5158C13.3426 60.6582 12.3916 61.6093 12.3916 62.7824V84.8508C12.3916 86.0239 13.3426 86.975 14.5158 86.975H46.3792C47.5524 86.975 48.5034 86.0239 48.5034 84.8508V62.7824C48.5034 61.6093 47.5524 60.6582 46.3792 60.6582Z" fill="#B5D5F5"/>
<path fill-rule="evenodd" clip-rule="evenodd" d="M57.7082 61.6016C57.1448 61.6016 56.6046 61.8253 56.2062 62.2237C55.8079 62.6221 55.584 63.1624 55.584 63.7258C55.6142 64.2685 55.8513 64.779 56.2465 65.1521C56.6416 65.5253 57.1647 65.7328 57.7082 65.732H98.7766C99.3087 65.732 99.819 65.5206 100.195 65.1444C100.571 64.7682 100.783 64.2579 100.783 63.7258C100.799 63.4526 100.759 63.179 100.665 62.9218C100.572 62.6646 100.427 62.4293 100.239 62.2303C100.051 62.0313 99.824 61.8728 99.5726 61.7647C99.3212 61.6566 99.0503 61.6011 98.7766 61.6016H57.7082Z" fill="#808080" fill-opacity="0.4"/>
<path fill-rule="evenodd" clip-rule="evenodd" d="M57.7082 71.9883C57.1448 71.9883 56.6046 72.2122 56.2062 72.6105C55.8079 73.0089 55.584 73.5491 55.584 74.1125C55.584 74.6759 55.8079 75.2162 56.2062 75.6146C56.6046 76.013 57.1448 76.2367 57.7082 76.2367H98.7766C99.34 76.2367 99.8803 76.013 100.279 75.6146C100.677 75.2162 100.901 74.6759 100.901 74.1125C100.901 73.5491 100.677 73.0089 100.279 72.6105C99.8803 72.2122 99.34 71.9883 98.7766 71.9883H57.7082Z" fill="#808080" fill-opacity="0.4"/>
<path fill-rule="evenodd" clip-rule="evenodd" d="M57.7082 82.373C57.1448 82.373 56.6046 82.5968 56.2062 82.9952C55.8079 83.3936 55.584 83.9339 55.584 84.4973C55.584 85.0607 55.8079 85.6009 56.2062 85.9993C56.6046 86.3976 57.1448 86.6215 57.7082 86.6215H98.7766C99.34 86.6215 99.8803 86.3976 100.279 85.9993C100.677 85.6009 100.901 85.0607 100.901 84.4973C100.901 83.9339 100.677 83.3936 100.279 82.9952C99.8803 82.5968 99.34 82.373 98.7766 82.373H57.7082Z" fill="#808080" fill-opacity="0.4"/>
</g>
<defs>
<clipPath id="clip0_979_456">
<rect width="112.584" height="95" fill="white"/>
</clipPath>
</defs>
</svg>
