<svg width="110" height="97" viewBox="0 0 110 97" fill="none" xmlns="http://www.w3.org/2000/svg">
<g clip-path="url(#clip0_979_594)">
<path fill-rule="evenodd" clip-rule="evenodd" d="M74.0599 93.6398L67.8403 74.7506C67.709 74.3154 67.4302 73.9394 67.0519 73.6872C66.6736 73.435 66.2193 73.3224 65.767 73.3685H44.1136C43.6651 73.356 43.2258 73.4978 42.8693 73.7704C42.5129 74.043 42.2609 74.4296 42.1555 74.8658L35.8208 93.5247H74.0599V93.6398Z" fill="#17749E"/>
<path fill-rule="evenodd" clip-rule="evenodd" d="M99.8595 77.5148H10.0205C7.36293 77.5148 4.8142 76.4591 2.93499 74.5799C1.05578 72.7007 0 70.1519 0 67.4943V9.90525C0.05867 7.26608 1.13329 4.75129 2.99993 2.88465C4.86657 1.01801 7.38135 -0.0565644 10.0205 -0.115234H99.8595C102.542 -0.101481 105.11 0.975394 107.001 2.87938C107.95 3.78598 108.706 4.87644 109.22 6.08432C109.735 7.2922 109.999 8.59224 109.995 9.90525V67.4943C109.981 70.1772 108.905 72.7452 107.001 74.6354C105.072 76.4664 102.519 77.4958 99.8595 77.5148Z" fill="#2185B2"/>
<path d="M98.3619 9.55957H11.6328C10.4878 9.55957 9.55957 10.4878 9.55957 11.6328V65.9969C9.55957 67.1419 10.4878 68.0701 11.6328 68.0701H98.3619C99.5069 68.0701 100.435 67.1419 100.435 65.9969V11.6328C100.435 10.4878 99.5069 9.55957 98.3619 9.55957Z" fill="white"/>
<path fill-rule="evenodd" clip-rule="evenodd" d="M31.559 92.1426C30.998 92.1418 30.4582 92.3565 30.0509 92.7423C29.6437 93.1281 29.4001 93.6556 29.3706 94.2158C29.3985 94.7872 29.6382 95.3277 30.0427 95.7322C30.4472 96.1367 30.9876 96.3763 31.559 96.4042H78.4366C78.9968 96.3747 79.5243 96.1311 79.9101 95.7239C80.2959 95.3166 80.5105 94.7768 80.5097 94.2158C80.5097 93.6659 80.2913 93.1386 79.9025 92.7498C79.5137 92.361 78.9865 92.1426 78.4366 92.1426H31.559Z" fill="#2185B2"/>
<path fill-rule="evenodd" clip-rule="evenodd" d="M24.6477 22.114C24.5124 21.6333 24.1984 21.2225 23.7702 20.9655C23.342 20.7086 22.8319 20.625 22.3441 20.7318C22.0981 20.7852 21.8657 20.8884 21.6611 21.0351C21.4566 21.1818 21.2842 21.3688 21.1547 21.5846C21.0252 21.8005 20.9413 22.0405 20.9082 22.29C20.875 22.5395 20.8933 22.7932 20.9619 23.0354L26.9512 49.296C27.052 49.713 27.2868 50.0854 27.6198 50.3559C27.9527 50.6264 28.3654 50.7801 28.7941 50.7933H51.8298C52.2944 50.8006 52.7465 50.6424 53.1052 50.347C53.4639 50.0516 53.7058 49.6382 53.7878 49.1808L58.6252 27.6425C58.697 27.3653 58.7031 27.0753 58.6432 26.7953C58.5833 26.5154 58.4589 26.2532 58.2801 26.0296C58.1012 25.8061 57.8729 25.6273 57.6129 25.5074C57.353 25.3875 57.0685 25.3298 56.7823 25.3389H25.5692L24.6477 22.114Z" fill="#FFC107"/>
<path fill-rule="evenodd" clip-rule="evenodd" d="M24.6477 22.114C24.5124 21.6333 24.1984 21.2225 23.7702 20.9655C23.342 20.7086 22.8319 20.625 22.3441 20.7318C22.0981 20.7852 21.8657 20.8884 21.6611 21.0351C21.4566 21.1818 21.2842 21.3688 21.1547 21.5846C21.0252 21.8005 20.9413 22.0405 20.9082 22.29C20.875 22.5395 20.8933 22.7932 20.9619 23.0354V25.3389H24.7628L24.6477 22.114Z" fill="#808080"/>
<path fill-rule="evenodd" clip-rule="evenodd" d="M68.5309 22.8057C68.0421 22.8057 67.5733 22.9998 67.2277 23.3454C66.8821 23.691 66.688 24.1598 66.688 24.6486C66.6871 25.1485 66.8775 25.6298 67.2202 25.9939C67.5628 26.358 68.0318 26.5772 68.5309 26.6066H87.1897C87.6888 26.5772 88.1578 26.358 88.5004 25.9939C88.8431 25.6298 89.0335 25.1485 89.0326 24.6486C89.0326 24.1598 88.8385 23.691 88.4929 23.3454C88.1473 22.9998 87.6784 22.8057 87.1897 22.8057H68.5309Z" fill="#D94428"/>
<path fill-rule="evenodd" clip-rule="evenodd" d="M68.5309 32.1348C68.0318 32.1642 67.5628 32.3834 67.2202 32.7475C66.8775 33.1115 66.6871 33.5929 66.688 34.0928C66.688 34.5816 66.8821 35.0503 67.2277 35.3959C67.5733 35.7415 68.0421 35.9357 68.5309 35.9357H87.1897C87.6784 35.9357 88.1473 35.7415 88.4929 35.3959C88.8385 35.0503 89.0326 34.5816 89.0326 34.0928C89.0335 33.5929 88.8431 33.1115 88.5004 32.7475C88.1578 32.3834 87.6888 32.1642 87.1897 32.1348H68.5309Z" fill="#D94428"/>
<path fill-rule="evenodd" clip-rule="evenodd" d="M68.5309 41.5791C68.0421 41.5791 67.5733 41.7733 67.2277 42.1189C66.8821 42.4645 66.688 42.9332 66.688 43.422C66.688 43.9107 66.8821 44.3794 67.2277 44.725C67.5733 45.0706 68.0421 45.2648 68.5309 45.2648H87.1897C87.6784 45.2648 88.1473 45.0706 88.4929 44.725C88.8385 44.3794 89.0326 43.9107 89.0326 43.422C89.0326 42.9332 88.8385 42.4645 88.4929 42.1189C88.1473 41.7733 87.6784 41.5791 87.1897 41.5791H68.5309Z" fill="#D94428"/>
<path fill-rule="evenodd" clip-rule="evenodd" d="M68.5309 50.9092C68.0421 50.9092 67.5733 51.1033 67.2277 51.4489C66.8821 51.7945 66.688 52.2633 66.688 52.752C66.6871 53.252 66.8775 53.7333 67.2202 54.0974C67.5628 54.4614 68.0318 54.6806 68.5309 54.71H87.1897C87.6888 54.6806 88.1578 54.4614 88.5004 54.0974C88.8431 53.7333 89.0335 53.252 89.0326 52.752C89.0326 52.2633 88.8385 51.7945 88.4929 51.4489C88.1473 51.1033 87.6784 50.9092 87.1897 50.9092H68.5309Z" fill="#D94428"/>
<path fill-rule="evenodd" clip-rule="evenodd" d="M35.4749 55.5154C35.4749 54.9045 35.2322 54.3186 34.8002 53.8866C34.3682 53.4546 33.7821 53.2119 33.1712 53.2119C32.5603 53.2119 31.9744 53.4546 31.5424 53.8866C31.1104 54.3186 30.8677 54.9045 30.8677 55.5154C30.8677 56.1264 31.1104 56.7123 31.5424 57.1443C31.9744 57.5763 32.5603 57.819 33.1712 57.819C33.7821 57.819 34.3682 57.5763 34.8002 57.1443C35.2322 56.7123 35.4749 56.1264 35.4749 55.5154Z" fill="#2185B2"/>
<path fill-rule="evenodd" clip-rule="evenodd" d="M47.4533 55.5154C47.4533 54.9045 47.2106 54.3186 46.7786 53.8866C46.3466 53.4546 45.7607 53.2119 45.1497 53.2119C44.5388 53.2119 43.9529 53.4546 43.5209 53.8866C43.0889 54.3186 42.8462 54.9045 42.8462 55.5154C42.8462 56.1264 43.0889 56.7123 43.5209 57.1443C43.9529 57.5763 44.5388 57.819 45.1497 57.819C45.7607 57.819 46.3466 57.5763 46.7786 57.1443C47.2106 56.7123 47.4533 56.1264 47.4533 55.5154Z" fill="#2185B2"/>
<path fill-rule="evenodd" clip-rule="evenodd" d="M47.6841 30.8676C47.9151 30.7465 48.172 30.6833 48.4328 30.6833C48.6936 30.6833 48.9503 30.7465 49.1813 30.8676C49.4501 30.9105 49.705 31.0163 49.9252 31.1765C50.1454 31.3366 50.3246 31.5465 50.4482 31.789C50.615 32.2742 50.615 32.8012 50.4482 33.2863L47.7992 42.9613C47.7332 43.2064 47.6173 43.4352 47.4588 43.6334C47.3002 43.8316 47.1024 43.9949 46.8778 44.1131C46.6442 44.2254 46.3883 44.2837 46.1291 44.2837C45.8699 44.2837 45.614 44.2254 45.3804 44.1131C45.1353 44.0471 44.9065 43.9312 44.7083 43.7726C44.5101 43.6141 44.3469 43.4163 44.2287 43.1916C44.0531 42.6685 44.0531 42.1023 44.2287 41.5791L46.7626 32.0194C46.9723 31.5021 47.3337 31.0604 47.7992 30.7524L47.6841 30.8676ZM39.7368 30.8676C40.1822 30.6996 40.6734 30.6996 41.1188 30.8676C41.4934 31.2758 41.6993 31.8109 41.6948 32.3649V42.2702C41.6935 42.789 41.4863 43.2861 41.1188 43.6524C40.9647 43.874 40.7575 44.0535 40.516 44.1742C40.2745 44.295 40.0066 44.3532 39.7368 44.3434C39.4507 44.3525 39.1664 44.2947 38.9065 44.1747C38.6466 44.0548 38.4181 43.8759 38.2394 43.6524C37.8719 43.2861 37.6647 42.789 37.6635 42.2702V32.3649C37.6466 32.0883 37.6888 31.8112 37.787 31.5521C37.8852 31.2929 38.0374 31.0576 38.2334 30.8616C38.4294 30.6656 38.6648 30.5135 38.9239 30.4152C39.1831 30.317 39.4601 30.2749 39.7368 30.2917V30.8676ZM30.1769 30.8676C30.4303 30.7531 30.7051 30.6939 30.9831 30.6939C31.2611 30.6939 31.5361 30.7531 31.7894 30.8676C32.2173 31.1873 32.5385 31.629 32.7109 32.1345L35.2448 41.6943C35.3593 41.9477 35.4185 42.2226 35.4185 42.5006C35.4185 42.7786 35.3593 43.0535 35.2448 43.3068C35.1266 43.5315 34.9632 43.7293 34.765 43.8878C34.5668 44.0464 34.338 44.1622 34.093 44.2282C33.8594 44.3406 33.6035 44.3989 33.3443 44.3989C33.0851 44.3989 32.8294 44.3406 32.5958 44.2282C32.3532 44.1046 32.1432 43.9254 31.9831 43.7052C31.823 43.485 31.7172 43.2301 31.6743 42.9613L29.1404 33.4015C29.0281 33.1679 28.9697 32.9121 28.9697 32.6529C28.9697 32.3937 29.0281 32.1378 29.1404 31.9042C29.4259 31.4432 29.8808 31.1124 30.4073 30.9828L30.1769 30.8676Z" fill="white"/>
</g>
<defs>
<clipPath id="clip0_979_594">
<rect width="109.88" height="96.4041" fill="white"/>
</clipPath>
</defs>
</svg>
