<svg width="119" height="74" viewBox="0 0 119 74" fill="none" xmlns="http://www.w3.org/2000/svg">
<g clip-path="url(#clip0_979_621)">
<path d="M28.7271 19.3623C44.5903 19.3623 57.447 17.0106 57.447 14.1168C57.447 11.223 44.5903 8.86426 28.7271 8.86426H28.6567V19.3623H28.7271Z" fill="#D94428"/>
<path d="M28.7271 37.5708H28.6567V39.6831H28.7342C44.5974 39.6831 57.4541 37.3314 57.4541 34.4306C57.4541 33.7265 56.75 33.0858 55.4122 32.4873V33.1914C55.4122 35.6064 43.4426 37.5708 28.7271 37.5708Z" fill="#EEEEEE"/>
<path d="M52.0537 31.3537C46.8434 32.6844 38.338 33.5434 28.7271 33.5434H28.6567V37.5708H28.7342C43.4426 37.5708 55.4122 35.6064 55.4122 33.1843V30.2412C54.3286 30.7127 53.2045 31.085 52.0537 31.3537Z" fill="#D94428"/>
<path d="M28.7271 19.3627H28.6567V33.5431H28.7342C38.345 33.5431 46.8505 32.6841 52.0607 31.3533C53.2091 31.0843 54.3309 30.7119 55.4122 30.2409C56.7289 29.6424 57.4541 28.9806 57.4541 28.2976V14.1172C57.4471 16.9899 44.5903 19.3627 28.7271 19.3627Z" fill="#E3E1DF"/>
<path d="M28.7271 57.8693H28.6567V59.8196H28.7342C44.5974 59.8196 57.4541 57.475 57.4541 54.5742C57.4541 53.8701 56.75 53.2293 55.4122 52.6309V53.4828C55.4122 55.9049 43.4426 57.8693 28.7271 57.8693Z" fill="#EEEEEE"/>
<path d="M28.7271 53.8491H28.6567V57.8694H28.7342C43.4638 57.8694 55.4122 55.905 55.4122 53.4829V50.5469C54.4187 50.9765 53.3921 51.3249 52.3424 51.5889C47.1532 52.9549 38.514 53.8491 28.7271 53.8491Z" fill="#D94428"/>
<path d="M28.7271 39.6685H28.6567V53.856H28.7342C38.521 53.856 47.1603 52.9618 52.3424 51.5958C53.3921 51.3319 54.4187 50.9834 55.4122 50.5538C56.7289 49.9483 57.4541 49.2935 57.4541 48.6035V34.416C57.4471 37.3169 44.5903 39.6685 28.7271 39.6685Z" fill="#E3E1DF"/>
<path d="M0 14.1168C0 17.0106 12.8215 19.3552 28.6495 19.3623V8.86426C12.8215 8.8713 0 11.2159 0 14.1168Z" fill="#D94428"/>
<path d="M2.04188 33.1836V32.4795C0.732272 33.078 0 33.7328 0 34.4228C0 37.3166 12.8215 39.6612 28.6495 39.6683V37.556C13.9481 37.563 2.04188 35.5986 2.04188 33.1836Z" fill="#E3E1DF"/>
<path d="M2.04199 30.2412V33.1843C2.04199 35.5993 13.9482 37.5638 28.6496 37.5708V33.5434C19.0669 33.5434 10.5967 32.6774 5.41457 31.3537C4.2593 31.0847 3.13057 30.7124 2.04199 30.2412Z" fill="#D94428"/>
<path d="M0 14.1172V28.2976C0 29.0017 0.704109 29.6424 2.04188 30.2409C3.13273 30.7125 4.26384 31.0848 5.42151 31.3533C10.6247 32.677 19.095 33.5431 28.6565 33.5431V19.3627C12.8215 19.3556 0 16.9899 0 14.1172Z" fill="#EEEEEE"/>
<path d="M28.7271 59.8197H28.6567V74.0212H29.9875C41.5487 73.9297 51.3285 72.613 55.4122 70.719C56.7289 70.1206 57.4541 69.4657 57.4541 68.7757V54.5742C57.4471 57.4751 44.5903 59.8197 28.7271 59.8197Z" fill="#E3E1DF"/>
<path d="M0 54.5742V68.7546C0 69.4587 0.704109 70.0994 2.04188 70.6979C6.13265 72.5708 15.9336 73.9156 27.5159 74.0001H28.6565V59.8197C12.8215 59.8126 0 57.468 0 54.5742Z" fill="#EEEEEE"/>
<path d="M2.04188 53.4828V52.6309C0.732272 53.2293 0 53.8841 0 54.5742C0 57.468 12.8215 59.8126 28.6495 59.8196V57.8693C13.9481 57.8623 2.04188 55.9049 2.04188 53.4828Z" fill="#E3E1DF"/>
<path d="M2.04199 50.5469V53.4829C2.04199 55.905 13.9482 57.8624 28.6496 57.8694V53.8491C18.8909 53.8491 10.2869 52.9478 5.11182 51.5889C4.06211 51.3249 3.03549 50.9765 2.04199 50.5469Z" fill="#D94428"/>
<path d="M0 34.416V48.5964C0 49.3005 0.704109 49.9412 2.04188 50.5468C3.03538 50.9763 4.062 51.3248 5.11171 51.5888C10.2868 52.9477 18.8908 53.8419 28.6495 53.8489V39.6615C12.8215 39.6545 0 37.3098 0 34.416Z" fill="#EEEEEE"/>
<path d="M67.959 13.2649C67.959 13.7777 67.8068 14.2789 67.5218 14.7051C67.2368 15.1314 66.8317 15.4635 66.3578 15.6594C65.884 15.8553 65.3627 15.9062 64.8598 15.8056C64.357 15.7051 63.8954 15.4576 63.5333 15.0945C63.1712 14.7315 62.925 14.2691 62.8258 13.7661C62.7266 13.263 62.7789 12.7418 62.9761 12.2685C63.1733 11.7951 63.5065 11.3909 63.9335 11.1071C64.3606 10.8232 64.8622 10.6724 65.375 10.6738C65.7149 10.6738 66.0515 10.7409 66.3655 10.8712C66.6794 11.0015 66.9646 11.1925 67.2046 11.4332C67.4447 11.6739 67.6349 11.9595 67.7643 12.2739C67.8938 12.5882 67.9599 12.925 67.959 13.2649Z" fill="#FCCD59"/>
<path d="M67.959 21.4817C67.959 21.9944 67.8068 22.4957 67.5218 22.9219C67.2368 23.3482 66.8317 23.6803 66.3578 23.8762C65.884 24.0721 65.3627 24.123 64.8598 24.0224C64.357 23.9219 63.8954 23.6744 63.5333 23.3113C63.1712 22.9483 62.925 22.4859 62.8258 21.9829C62.7266 21.4798 62.7789 20.9586 62.9761 20.4852C63.1733 20.0119 63.5065 19.6077 63.9335 19.3239C64.3606 19.04 64.8622 18.8892 65.375 18.8906C66.061 18.8925 66.7182 19.1663 67.2026 19.652C67.6869 20.1377 67.959 20.7957 67.959 21.4817Z" fill="#FCCD59"/>
<path d="M67.959 29.4944C67.959 30.0072 67.8068 30.5084 67.5218 30.9346C67.2368 31.3609 66.8317 31.693 66.3578 31.8889C65.884 32.0848 65.3627 32.1357 64.8598 32.0351C64.357 31.9346 63.8954 31.6871 63.5333 31.324C63.1712 30.961 62.925 30.4986 62.8258 29.9955C62.7266 29.4925 62.7789 28.9713 62.9761 28.498C63.1733 28.0246 63.5065 27.6204 63.9335 27.3366C64.3606 27.0527 64.8622 26.9019 65.375 26.9033C65.7149 26.9033 66.0515 26.9704 66.3655 27.1007C66.6794 27.231 66.9646 27.422 67.2046 27.6627C67.4447 27.9034 67.6349 28.1891 67.7643 28.5034C67.8938 28.8177 67.9599 29.1545 67.959 29.4944Z" fill="#FCCD59"/>
<path d="M67.959 37.7112C67.959 38.2239 67.8068 38.7252 67.5218 39.1514C67.2368 39.5777 66.8317 39.9098 66.3578 40.1057C65.884 40.3016 65.3627 40.3525 64.8598 40.2519C64.357 40.1514 63.8954 39.9039 63.5333 39.5408C63.1712 39.1778 62.925 38.7154 62.8258 38.2123C62.7266 37.7093 62.7789 37.1881 62.9761 36.7147C63.1733 36.2414 63.5065 35.8372 63.9335 35.5534C64.3606 35.2695 64.8622 35.1187 65.375 35.1201C65.7149 35.1201 66.0515 35.1872 66.3655 35.3175C66.6794 35.4478 66.9646 35.6388 67.2046 35.8795C67.4447 36.1202 67.6349 36.4058 67.7643 36.7202C67.8938 37.0345 67.9599 37.3712 67.959 37.7112Z" fill="#FCCD59"/>
<path d="M67.959 45.9983C67.959 46.5111 67.8068 47.0123 67.5218 47.4385C67.2368 47.8648 66.8317 48.1969 66.3578 48.3928C65.884 48.5887 65.3627 48.6396 64.8598 48.539C64.357 48.4385 63.8954 48.191 63.5333 47.8279C63.1712 47.4649 62.925 47.0025 62.8258 46.4995C62.7266 45.9964 62.7789 45.4752 62.9761 45.0019C63.1733 44.5285 63.5065 44.1243 63.9335 43.8405C64.3606 43.5566 64.8622 43.4058 65.375 43.4072C65.7149 43.4072 66.0515 43.4743 66.3655 43.6046C66.6794 43.7349 66.9646 43.9259 67.2046 44.1666C67.4447 44.4073 67.6349 44.693 67.7643 45.0073C67.8938 45.3216 67.9599 45.6584 67.959 45.9983Z" fill="#FCCD59"/>
<path d="M67.959 54.2151C67.959 54.7278 67.8068 55.2291 67.5218 55.6553C67.2368 56.0816 66.8317 56.4137 66.3578 56.6096C65.884 56.8055 65.3627 56.8564 64.8598 56.7558C64.357 56.6553 63.8954 56.4078 63.5333 56.0447C63.1712 55.6817 62.925 55.2193 62.8258 54.7163C62.7266 54.2132 62.7789 53.692 62.9761 53.2186C63.1733 52.7453 63.5065 52.3411 63.9335 52.0573C64.3606 51.7734 64.8622 51.6226 65.375 51.624C66.061 51.6259 66.7182 51.8997 67.2026 52.3854C67.6869 52.8711 67.959 53.5291 67.959 54.2151Z" fill="#FCCD59"/>
<path d="M67.959 62.2278C67.959 62.7405 67.8068 63.2418 67.5218 63.668C67.2368 64.0943 66.8317 64.4264 66.3578 64.6223C65.884 64.8182 65.3627 64.8691 64.8598 64.7685C64.357 64.668 63.8954 64.4205 63.5333 64.0574C63.1712 63.6944 62.925 63.232 62.8258 62.7289C62.7266 62.2259 62.7789 61.7047 62.9761 61.2313C63.1733 60.758 63.5065 60.3538 63.9335 60.07C64.3606 59.7861 64.8622 59.6353 65.375 59.6367C65.7149 59.6367 66.0515 59.7038 66.3655 59.8341C66.6794 59.9644 66.9646 60.1553 67.2046 60.396C67.4447 60.6367 67.6349 60.9224 67.7643 61.2367C67.8938 61.5511 67.9599 61.8878 67.959 62.2278Z" fill="#FCCD59"/>
<path d="M67.959 70.4446C67.959 70.9574 67.8068 71.4586 67.5218 71.8848C67.2368 72.3111 66.8317 72.6432 66.3578 72.8391C65.884 73.035 65.3627 73.0859 64.8598 72.9853C64.357 72.8848 63.8954 72.6373 63.5333 72.2742C63.1712 71.9112 62.925 71.4488 62.8258 70.9457C62.7266 70.4427 62.7789 69.9215 62.9761 69.4482C63.1733 68.9748 63.5065 68.5706 63.9335 68.2868C64.3606 68.0029 64.8622 67.8521 65.375 67.8535C66.061 67.8554 66.7182 68.1292 67.2026 68.6149C67.6869 69.1006 67.959 69.7586 67.959 70.4446Z" fill="#FCCD59"/>
<path d="M77.9004 21.4817C77.9004 21.9944 77.7482 22.4957 77.4632 22.9219C77.1782 23.3482 76.7731 23.6803 76.2993 23.8762C75.8254 24.0721 75.3041 24.123 74.8013 24.0224C74.2984 23.9219 73.8368 23.6744 73.4747 23.3113C73.1126 22.9483 72.8664 22.4859 72.7672 21.9829C72.668 21.4798 72.7203 20.9586 72.9175 20.4852C73.1147 20.0119 73.4479 19.6077 73.8749 19.3239C74.302 19.04 74.8036 18.8892 75.3164 18.8906C76.0024 18.8925 76.6596 19.1663 77.144 19.652C77.6284 20.1377 77.9004 20.7957 77.9004 21.4817Z" fill="#FF744D"/>
<path d="M77.9004 29.4944C77.9004 30.0072 77.7482 30.5084 77.4632 30.9346C77.1782 31.3609 76.7731 31.693 76.2993 31.8889C75.8254 32.0848 75.3041 32.1357 74.8013 32.0351C74.2984 31.9346 73.8368 31.6871 73.4747 31.324C73.1126 30.961 72.8664 30.4986 72.7672 29.9955C72.668 29.4925 72.7203 28.9713 72.9175 28.498C73.1147 28.0246 73.4479 27.6204 73.8749 27.3366C74.302 27.0527 74.8036 26.9019 75.3164 26.9033C75.6563 26.9033 75.9929 26.9704 76.3069 27.1007C76.6208 27.231 76.906 27.422 77.1461 27.6627C77.3861 27.9034 77.5763 28.1891 77.7057 28.5034C77.8352 28.8177 77.9013 29.1545 77.9004 29.4944Z" fill="#FF744D"/>
<path d="M77.9004 37.7112C77.9004 38.2239 77.7482 38.7252 77.4632 39.1514C77.1782 39.5777 76.7731 39.9098 76.2993 40.1057C75.8254 40.3016 75.3041 40.3525 74.8013 40.2519C74.2984 40.1514 73.8368 39.9039 73.4747 39.5408C73.1126 39.1778 72.8664 38.7154 72.7672 38.2123C72.668 37.7093 72.7203 37.1881 72.9175 36.7147C73.1147 36.2414 73.4479 35.8372 73.8749 35.5534C74.302 35.2695 74.8036 35.1187 75.3164 35.1201C75.6563 35.1201 75.9929 35.1872 76.3069 35.3175C76.6208 35.4478 76.906 35.6388 77.1461 35.8795C77.3861 36.1202 77.5763 36.4058 77.7057 36.7202C77.8352 37.0345 77.9013 37.3712 77.9004 37.7112Z" fill="#FF744D"/>
<path d="M77.9004 45.9983C77.9004 46.5111 77.7482 47.0123 77.4632 47.4385C77.1782 47.8648 76.7731 48.1969 76.2993 48.3928C75.8254 48.5887 75.3041 48.6396 74.8013 48.539C74.2984 48.4385 73.8368 48.191 73.4747 47.8279C73.1126 47.4649 72.8664 47.0025 72.7672 46.4995C72.668 45.9964 72.7203 45.4752 72.9175 45.0019C73.1147 44.5285 73.4479 44.1243 73.8749 43.8405C74.302 43.5566 74.8036 43.4058 75.3164 43.4072C75.6563 43.4072 75.9929 43.4743 76.3069 43.6046C76.6208 43.7349 76.906 43.9259 77.1461 44.1666C77.3861 44.4073 77.5763 44.693 77.7057 45.0073C77.8352 45.3216 77.9013 45.6584 77.9004 45.9983Z" fill="#FF744D"/>
<path d="M77.9004 54.2151C77.9004 54.7278 77.7482 55.2291 77.4632 55.6553C77.1782 56.0816 76.7731 56.4137 76.2993 56.6096C75.8254 56.8055 75.3041 56.8564 74.8013 56.7558C74.2984 56.6553 73.8368 56.4078 73.4747 56.0447C73.1126 55.6817 72.8664 55.2193 72.7672 54.7163C72.668 54.2132 72.7203 53.692 72.9175 53.2186C73.1147 52.7453 73.4479 52.3411 73.8749 52.0573C74.302 51.7734 74.8036 51.6226 75.3164 51.624C76.0024 51.6259 76.6596 51.8997 77.144 52.3854C77.6284 52.8711 77.9004 53.5291 77.9004 54.2151Z" fill="#FF744D"/>
<path d="M77.9004 62.2278C77.9004 62.7405 77.7482 63.2418 77.4632 63.668C77.1782 64.0943 76.7731 64.4264 76.2993 64.6223C75.8254 64.8182 75.3041 64.8691 74.8013 64.7685C74.2984 64.668 73.8368 64.4205 73.4747 64.0574C73.1126 63.6944 72.8664 63.232 72.7672 62.7289C72.668 62.2259 72.7203 61.7047 72.9175 61.2313C73.1147 60.758 73.4479 60.3538 73.8749 60.07C74.302 59.7861 74.8036 59.6353 75.3164 59.6367C75.6563 59.6367 75.9929 59.7038 76.3069 59.8341C76.6208 59.9644 76.906 60.1553 77.1461 60.396C77.3861 60.6367 77.5763 60.9224 77.7057 61.2367C77.8352 61.5511 77.9013 61.8878 77.9004 62.2278Z" fill="#FF744D"/>
<path d="M77.9004 70.4446C77.9004 70.9574 77.7482 71.4586 77.4632 71.8848C77.1782 72.3111 76.7731 72.6432 76.2993 72.8391C75.8254 73.035 75.3041 73.0859 74.8013 72.9853C74.2984 72.8848 73.8368 72.6373 73.4747 72.2742C73.1126 71.9112 72.8664 71.4488 72.7672 70.9457C72.668 70.4427 72.7203 69.9215 72.9175 69.4482C73.1147 68.9748 73.4479 68.5706 73.8749 68.2868C74.302 68.0029 74.8036 67.8521 75.3164 67.8535C76.0024 67.8554 76.6596 68.1292 77.144 68.6149C77.6284 69.1006 77.9004 69.7586 77.9004 70.4446Z" fill="#FF744D"/>
<path d="M87.7085 29.5225C87.7098 30.0355 87.5589 30.5375 87.2747 30.9647C86.9905 31.3918 86.586 31.725 86.1122 31.922C85.6385 32.119 85.1169 32.1709 84.6137 32.0711C84.1104 31.9714 83.6481 31.7245 83.2853 31.3617C82.9225 30.9989 82.6756 30.5366 82.5758 30.0333C82.4761 29.53 82.528 29.0085 82.7249 28.5347C82.9219 28.061 83.2551 27.6564 83.6823 27.3722C84.1095 27.0881 84.6114 26.9371 85.1245 26.9385C85.8098 26.9385 86.467 27.2107 86.9516 27.6953C87.4362 28.1799 87.7085 28.8372 87.7085 29.5225Z" fill="#83CF8F"/>
<path d="M87.7085 37.7464C87.7085 38.2591 87.5563 38.7603 87.2713 39.1866C86.9863 39.6128 86.5812 39.9449 86.1073 40.1408C85.6335 40.3367 85.1122 40.3876 84.6094 40.2871C84.1065 40.1865 83.6449 39.9391 83.2828 39.576C82.9207 39.2129 82.6745 38.7506 82.5753 38.2475C82.4761 37.7444 82.5285 37.2232 82.7257 36.7499C82.9228 36.2766 83.256 35.8724 83.683 35.5885C84.1101 35.3047 84.6117 35.1539 85.1245 35.1553C85.4644 35.1553 85.801 35.2224 86.115 35.3527C86.4289 35.483 86.7141 35.6739 86.9542 35.9146C87.1942 36.1553 87.3844 36.441 87.5138 36.7553C87.6433 37.0696 87.7094 37.4064 87.7085 37.7464Z" fill="#83CF8F"/>
<path d="M87.7085 46.0334C87.7085 46.5462 87.5563 47.0474 87.2713 47.4737C86.9863 47.8999 86.5812 48.232 86.1073 48.4279C85.6335 48.6238 85.1122 48.6747 84.6094 48.5742C84.1065 48.4736 83.6449 48.2262 83.2828 47.8631C82.9207 47.5 82.6745 47.0377 82.5753 46.5346C82.4761 46.0315 82.5285 45.5103 82.7257 45.037C82.9228 44.5637 83.256 44.1595 83.683 43.8756C84.1101 43.5918 84.6117 43.441 85.1245 43.4424C85.4644 43.4424 85.801 43.5095 86.115 43.6398C86.4289 43.7701 86.7141 43.961 86.9542 44.2017C87.1942 44.4424 87.3844 44.7281 87.5138 45.0424C87.6433 45.3567 87.7094 45.6935 87.7085 46.0334Z" fill="#83CF8F"/>
<path d="M87.7085 54.2503C87.7085 54.763 87.5563 55.2643 87.2713 55.6905C86.9863 56.1168 86.5812 56.4488 86.1073 56.6447C85.6335 56.8407 85.1122 56.8915 84.6094 56.791C84.1065 56.6904 83.6449 56.443 83.2828 56.0799C82.9207 55.7168 82.6745 55.2545 82.5753 54.7514C82.4761 54.2483 82.5285 53.7271 82.7257 53.2538C82.9228 52.7805 83.256 52.3763 83.683 52.0924C84.1101 51.8086 84.6117 51.6578 85.1245 51.6592C85.4644 51.6592 85.801 51.7263 86.115 51.8566C86.4289 51.9869 86.7141 52.1778 86.9542 52.4185C87.1942 52.6592 87.3844 52.9449 87.5138 53.2592C87.6433 53.5736 87.7094 53.9103 87.7085 54.2503Z" fill="#83CF8F"/>
<path d="M87.7085 62.2629C87.7085 62.7757 87.5563 63.2769 87.2713 63.7032C86.9863 64.1294 86.5812 64.4615 86.1073 64.6574C85.6335 64.8533 85.1122 64.9042 84.6094 64.8037C84.1065 64.7031 83.6449 64.4557 83.2828 64.0926C82.9207 63.7295 82.6745 63.2672 82.5753 62.7641C82.4761 62.261 82.5285 61.7398 82.7257 61.2665C82.9228 60.7932 83.256 60.389 83.683 60.1051C84.1101 59.8213 84.6117 59.6705 85.1245 59.6719C85.8105 59.6737 86.4677 59.9476 86.9521 60.4333C87.4365 60.919 87.7085 61.577 87.7085 62.2629Z" fill="#83CF8F"/>
<path d="M87.7085 70.5012C87.7085 71.014 87.5563 71.5152 87.2713 71.9415C86.9863 72.3677 86.5812 72.6998 86.1073 72.8957C85.6335 73.0916 85.1122 73.1425 84.6094 73.042C84.1065 72.9414 83.6449 72.6939 83.2828 72.3309C82.9207 71.9678 82.6745 71.5055 82.5753 71.0024C82.4761 70.4993 82.5285 69.9781 82.7257 69.5048C82.9228 69.0314 83.256 68.6273 83.683 68.3434C84.1101 68.0596 84.6117 67.9088 85.1245 67.9102C85.4644 67.9102 85.801 67.9772 86.115 68.1075C86.4289 68.2378 86.7141 68.4288 86.9542 68.6695C87.1942 68.9102 87.3844 69.1959 87.5138 69.5102C87.6433 69.8245 87.7094 70.1613 87.7085 70.5012Z" fill="#83CF8F"/>
<path d="M97.5166 37.7464C97.5166 38.2588 97.3646 38.7598 97.0799 39.1859C96.7952 39.612 96.3905 39.9441 95.9171 40.1402C95.4436 40.3363 94.9226 40.3876 94.42 40.2876C93.9174 40.1876 93.4557 39.9409 93.0934 39.5785C92.731 39.2161 92.4842 38.7545 92.3842 38.2518C92.2843 37.7492 92.3356 37.2282 92.5317 36.7548C92.7278 36.2813 93.0599 35.8767 93.486 35.592C93.9121 35.3073 94.4131 35.1553 94.9255 35.1553C95.2661 35.1544 95.6034 35.2207 95.9182 35.3506C96.233 35.4805 96.519 35.6713 96.7598 35.9121C97.0006 36.1529 97.1914 36.4389 97.3213 36.7537C97.4512 37.0685 97.5175 37.4058 97.5166 37.7464Z" fill="#826E51"/>
<path d="M97.5166 46.0334C97.5166 46.5459 97.3646 47.0469 97.0799 47.473C96.7952 47.8991 96.3905 48.2312 95.9171 48.4273C95.4436 48.6234 94.9226 48.6747 94.42 48.5747C93.9174 48.4747 93.4557 48.228 93.0934 47.8656C92.731 47.5032 92.4842 47.0415 92.3842 46.5389C92.2843 46.0363 92.3356 45.5154 92.5317 45.0419C92.7278 44.5684 93.0599 44.1638 93.486 43.8791C93.9121 43.5943 94.4131 43.4424 94.9255 43.4424C95.2661 43.4415 95.6034 43.5078 95.9182 43.6377C96.233 43.7676 96.519 43.9584 96.7598 44.1992C97.0006 44.44 97.1914 44.726 97.3213 45.0408C97.4512 45.3556 97.5175 45.6929 97.5166 46.0334Z" fill="#826E51"/>
<path d="M97.5166 54.2503C97.5166 54.7627 97.3646 55.2637 97.0799 55.6898C96.7952 56.1159 96.3905 56.448 95.9171 56.6441C95.4436 56.8402 94.9226 56.8915 94.42 56.7915C93.9174 56.6916 93.4557 56.4448 93.0934 56.0824C92.731 55.72 92.4842 55.2584 92.3842 54.7557C92.2843 54.2531 92.3356 53.7321 92.5317 53.2587C92.7278 52.7852 93.0599 52.3806 93.486 52.0959C93.9121 51.8112 94.4131 51.6592 94.9255 51.6592C95.2661 51.6583 95.6034 51.7246 95.9182 51.8545C96.233 51.9844 96.519 52.1752 96.7598 52.416C97.0006 52.6568 97.1914 52.9428 97.3213 53.2576C97.4512 53.5724 97.5175 53.9097 97.5166 54.2503Z" fill="#826E51"/>
<path d="M97.5166 62.2629C97.5166 62.7754 97.3646 63.2764 97.0799 63.7025C96.7952 64.1286 96.3905 64.4607 95.9171 64.6568C95.4436 64.8529 94.9226 64.9042 94.42 64.8042C93.9174 64.7042 93.4557 64.4575 93.0934 64.0951C92.731 63.7327 92.4842 63.271 92.3842 62.7684C92.2843 62.2658 92.3356 61.7448 92.5317 61.2714C92.7278 60.7979 93.0599 60.3933 93.486 60.1086C93.9121 59.8238 94.4131 59.6719 94.9255 59.6719C95.6127 59.6719 96.2718 59.9449 96.7577 60.4308C97.2436 60.9167 97.5166 61.5757 97.5166 62.2629Z" fill="#826E51"/>
<path d="M97.5166 70.5012C97.5166 71.0137 97.3646 71.5146 97.0799 71.9407C96.7952 72.3668 96.3905 72.6989 95.9171 72.895C95.4436 73.0911 94.9226 73.1425 94.42 73.0425C93.9174 72.9425 93.4557 72.6957 93.0934 72.3334C92.731 71.971 92.4842 71.5093 92.3842 71.0067C92.2843 70.5041 92.3356 69.9831 92.5317 69.5097C92.7278 69.0362 93.0599 68.6315 93.486 68.3468C93.9121 68.0621 94.4131 67.9102 94.9255 67.9102C95.2661 67.9092 95.6034 67.9756 95.9182 68.1055C96.233 68.2354 96.519 68.4262 96.7598 68.667C97.0006 68.9078 97.1914 69.1938 97.3213 69.5086C97.4512 69.8234 97.5175 70.1607 97.5166 70.5012Z" fill="#826E51"/>
<path d="M106.501 46.1319C106.502 46.6449 106.351 47.1469 106.067 47.574C105.783 48.0012 105.378 48.3344 104.905 48.5314C104.431 48.7284 103.909 48.7803 103.406 48.6805C102.903 48.5808 102.441 48.3338 102.078 47.9711C101.715 47.6083 101.468 47.1459 101.368 46.6427C101.269 46.1394 101.32 45.6178 101.517 45.1441C101.714 44.6704 102.048 44.2658 102.475 43.9816C102.902 43.6974 103.404 43.5465 103.917 43.5479C104.602 43.5479 105.26 43.8201 105.744 44.3047C106.229 44.7893 106.501 45.4466 106.501 46.1319Z" fill="#2185B2"/>
<path d="M106.501 54.3557C106.501 54.8685 106.349 55.3697 106.064 55.796C105.779 56.2222 105.374 56.5543 104.9 56.7502C104.426 56.9461 103.905 56.997 103.402 56.8964C102.899 56.7959 102.437 56.5484 102.075 56.1854C101.713 55.8223 101.467 55.3599 101.368 54.8569C101.269 54.3538 101.321 53.8326 101.518 53.3593C101.715 52.8859 102.048 52.4817 102.476 52.1979C102.903 51.914 103.404 51.7633 103.917 51.7647C104.257 51.7647 104.593 51.8317 104.907 51.962C105.221 52.0923 105.507 52.2833 105.747 52.524C105.987 52.7647 106.177 53.0504 106.306 53.3647C106.436 53.679 106.502 54.0158 106.501 54.3557Z" fill="#2185B2"/>
<path d="M106.501 62.3614C106.502 62.8744 106.351 63.3764 106.067 63.8035C105.783 64.2307 105.378 64.5639 104.905 64.7609C104.431 64.9579 103.909 65.0098 103.406 64.91C102.903 64.8103 102.441 64.5634 102.078 64.2006C101.715 63.8378 101.468 63.3754 101.368 62.8722C101.269 62.3689 101.32 61.8474 101.517 61.3736C101.714 60.8999 102.048 60.4953 102.475 60.2111C102.902 59.9269 103.404 59.776 103.917 59.7774C104.602 59.7774 105.26 60.0496 105.744 60.5342C106.229 61.0188 106.501 61.6761 106.501 62.3614Z" fill="#2185B2"/>
<path d="M106.501 70.5852C106.501 71.098 106.349 71.5992 106.064 72.0254C105.779 72.4517 105.374 72.7838 104.9 72.9797C104.426 73.1756 103.905 73.2265 103.402 73.126C102.899 73.0254 102.437 72.7779 102.075 72.4149C101.713 72.0518 101.467 71.5894 101.368 71.0864C101.269 70.5833 101.321 70.0621 101.518 69.5888C101.715 69.1154 102.048 68.7113 102.476 68.4274C102.903 68.1435 103.404 67.9928 103.917 67.9942C104.257 67.9941 104.593 68.0612 104.907 68.1915C105.221 68.3218 105.507 68.5128 105.747 68.7535C105.987 68.9942 106.177 69.2799 106.306 69.5942C106.436 69.9085 106.502 70.2453 106.501 70.5852Z" fill="#2185B2"/>
<path d="M117.893 40.443L76.246 4.75966L83.7657 4.1823L78.8933 0L68.2334 0.795627L69.0501 11.4556L73.9295 15.6308L73.3451 8.11817L114.992 43.8015C115.212 44.0082 115.472 44.1681 115.755 44.2716C116.038 44.3751 116.34 44.42 116.641 44.4037C116.943 44.3874 117.237 44.3101 117.508 44.1766C117.779 44.0431 118.019 43.8561 118.216 43.627C118.412 43.3978 118.56 43.1312 118.65 42.8433C118.74 42.5554 118.771 42.2521 118.741 41.9519C118.711 41.6516 118.62 41.3606 118.475 41.0965C118.329 40.8323 118.131 40.6004 117.893 40.4148V40.443Z" fill="#2185B2"/>
</g>
<defs>
<clipPath id="clip0_979_621">
<rect width="118.675" height="74" fill="white"/>
</clipPath>
</defs>
</svg>
