<svg width="81" height="92" viewBox="0 0 81 92" fill="none" xmlns="http://www.w3.org/2000/svg">
<g clip-path="url(#clip0_979_531)">
<path d="M19.089 60.4434L20.1203 59.329L20.3833 56.4982L21.1931 55.8892L20.8817 54.5534L20.1895 53.0376L22.169 49.5769L22.0444 46.9745H23.8993L24.46 46.4831H25.8788L26.4879 46.9745H28.6681L29.5333 47.3967L30.2254 47.1337L33.0631 44.3652L32.9939 41.9358L32.3779 41.7559L33.1808 40.7246L33.077 39.7002L29.8447 37.6238V35.9281L28.5504 35.3675L25.8927 35.2429L24.9029 34.5508H21.8091L21.7468 36.1911L18.8606 37.1671L18.0924 36.205L17.2964 35.9143L16.2513 36.1565L15.13 37.1255L12.6315 37.0286C11.324 41.4165 11.109 46.0575 12.0053 50.5474C12.9016 55.0374 14.882 59.2401 17.774 62.7897C18.4661 62.4298 19.0613 62.0976 19.0613 62.0976L19.089 60.4434Z" fill="#365370"/>
<path d="M42.8221 49.0857L42.9467 47.57L43.7772 46.4141L45.5421 46.1096L47.1687 44.6215L47.494 44.4692L47.6185 44.7738L49.4734 44.926L49.9372 44.137L52.0689 43.6179L53.4947 45.4382L56.0902 45.0783L56.1456 42.5866L58.0074 42.462L57.7582 41.2162L57.5783 40.3372L58.6303 41.3131L60.9213 41.6107L61.7242 40.1573L60.859 38.6415L59.8692 37.6102L58.1389 37.2434L55.4119 37.0634L54.9205 38.5238L53.8062 38.8214L53.8685 38.2124L53.9861 37.0634L51.0169 34.8763L47.8608 32.1493L46.255 30.6266L45.9436 29.2285L43.9641 29.7753L42.912 29.8376L42.4206 30.7512L41.8877 30.9035V49.3833L42.8221 49.0857Z" fill="#2185B2"/>
<path d="M43.2235 21.3386L46.3173 21.4008L47.3624 21.3386L49.162 21.2209L50.4009 22.8613L51.1415 22.4321L50.0894 21.3386L50.5809 21.2209L51.5775 21.7677H52.9964L53.4324 20.9163H55.3496L57.2045 22.0099L55.7234 22.1899L55.6611 22.619L53.9239 22.8613V23.588H55.7234L56.9554 22.7366L58.5058 22.0099H59.1356C54.1205 18.3479 48.0965 16.3246 41.8877 16.2168V21.8023L43.2235 21.3386Z" fill="#2185B2"/>
<path d="M44.2133 26.6191L44.2755 25.5255L46.6842 24.9787L47.0579 27.3458L48.3591 27.6504L49.2243 29.533L50.7746 29.353L49.9026 28.9239L50.1517 27.5881L52.3181 27.0482L52.4427 25.8924L48.8505 24.0098L48.2968 25.1587L47.7431 25.1033L47.6185 24.6188L47.0579 24.3766L47.1825 24.0098L44.7047 24.4943L42.2061 25.0134L41.8877 24.3351V25.9616L44.2133 26.6191Z" fill="#33AFBD"/>
<path d="M41.0225 23.449L39.7559 23.4629L40.6349 24.3696L41.853 24.2519L41.8876 24.335V21.8018L40.6279 22.2447L41.0225 23.449Z" fill="#33AFBD"/>
<path d="M38.088 49.7229L37.0983 50.9065L36.2331 51.2733L36.1362 52.1523L37.8112 53.8203L37.8735 56.9211L39.1055 57.8555L41.1473 57.7932L41.521 58.5822L41.2095 60.4994L41.8878 61.3369V49.3838L40.8427 49.7229H38.088Z" fill="#33AFBD"/>
<path d="M41.8531 27.893L40.808 27.7754L40.6834 29.0489L41.8531 29.2289L40.5034 30.5647L40.5588 31.2983L41.8877 30.9038V25.962L41.8531 25.9551V27.893Z" fill="#33AFBD"/>
<path d="M70.6804 12.8043C70.2661 12.5616 69.8766 12.2788 69.5176 11.96L59.6963 22.4318C60.077 22.7225 60.4507 23.0202 60.8106 23.3247L70.6804 12.8043Z" fill="#FCCD59"/>
<path d="M60.8107 23.3247C60.4508 23.0201 60.077 22.7225 59.6964 22.4318L59.1357 22.0027H58.5059L56.9278 22.7363L55.6958 23.5877H53.8963V22.8609L55.6336 22.6187L55.6958 22.1896L57.177 22.0096L55.3221 20.916H53.4672L53.0311 21.7674H51.6123L50.6156 21.2206L50.1242 21.3382L51.1762 22.4318L49.1967 21.2206L47.3972 21.3382L46.3521 21.4005L43.2583 21.3382L40.6558 22.2519L41.0573 23.4562H39.7907L40.6628 24.3698L41.8809 24.2452L42.2339 25.0065L44.7394 24.4944L47.2172 24.0029L47.0927 24.3698L47.6464 24.612L47.7709 25.0965L48.3316 25.1588L48.8853 24.0029L52.4774 25.8855L52.3529 27.0414L50.1865 27.5882L49.9373 28.924L50.8025 29.3462L49.259 29.533L48.3939 27.6505L47.0927 27.3459L46.7189 24.9789L44.3034 25.5256L44.248 26.6192L41.8809 25.9271V27.872L40.8427 27.7474L40.7181 29.0209L41.8809 29.2078L40.5313 30.5436L40.5936 31.2703L42.4485 30.7235L42.9468 29.8168L43.9988 29.7545L45.9783 29.2078L46.2898 30.592L47.8609 32.1839L51.017 34.9178L53.9863 37.1049L53.8686 38.247L53.7994 38.863L54.9137 38.5584L55.4121 37.1049L58.1321 37.278L59.8694 37.6448L60.8522 38.6761L61.7243 40.1919L60.9214 41.6523L58.6305 41.3477L57.5784 40.3788L57.7584 41.2508L58.0076 42.5036L56.1457 42.6282L56.0904 45.1129L53.4949 45.4798L52.0829 43.6179L49.9512 44.137L49.4805 44.926L47.6256 44.7807L47.5079 44.4762L47.1757 44.6215L45.5561 46.1096L43.7912 46.4141L42.9537 47.57L42.8291 49.0857L40.8496 49.7294H38.0811L37.0914 50.913L36.2262 51.2729L36.1362 52.1519L37.8043 53.8268L37.8666 56.9206L39.1055 57.8619L41.1473 57.7997L41.521 58.5887L41.2096 60.4989L42.7876 62.4438L43.5628 63.5651L45.1616 64.714L46.3106 64.6586L46.712 65.2055L45.7222 65.1431L45.66 65.8353L46.712 66.5274L46.1237 67.0396L45.1962 66.9773L45.3208 67.9186L45.8399 68.3477L45.7845 69.0398L44.6702 69.4966L44.2965 70.1334L46.3728 70.4656L48.4492 68.1332L49.3975 66.8181L49.3282 64.4995L50.3041 63.3574L50.0688 60.9696L50.5602 60.582L50.4841 55.8963L52.159 54.9827L53.4257 54.4636L53.6402 53.3769L55.9658 51.3767L55.5436 48.449L53.7856 47.7568L54.0347 46.1165L56.478 45.9642L58.146 43.5971L60.0009 43.8394L60.4369 42.5659L61.4267 43.1126L63.5031 42.5036L64.8873 41.7146L64.6382 39.6382L66.057 38.1224L66.2439 36.4821H66.8668L66.9914 37.631L65.6902 39.2713V40.3649H66.7422L68.1611 38.4269L68.348 35.8107L69.1578 35.5061L69.2685 35.3746C67.5371 30.695 64.6233 26.5435 60.8107 23.3247Z" fill="#365370"/>
<path d="M10.5552 78.4322C10.9606 78.688 11.3387 78.9849 11.6834 79.3181L22.4944 67.4342C22.1207 67.1366 21.7538 66.8321 21.3939 66.5137L10.5552 78.4322Z" fill="#FCCD59"/>
<path d="M20.9716 23.9334C21.2969 23.6496 21.6222 23.3658 21.9544 23.089L11.6901 11.7588C11.3512 12.0977 10.9751 12.3973 10.5688 12.6517L20.8816 24.0302L20.9716 23.9334Z" fill="#FCCD59"/>
<path d="M25.256 32.087L25.5052 31.2426L26.1974 31.3603L25.706 30.149L23.7887 29.8445C23.6848 29.502 23.5528 29.1687 23.3942 28.8478C23.2489 28.5848 23.0897 28.3564 22.9166 28.3218C22.8383 28.3154 22.7596 28.3154 22.6813 28.3218H22.4599H22.2384L22.01 28.3564C21.8508 28.3564 21.6708 28.398 21.4563 28.4118C21.2098 28.4319 20.9621 28.4319 20.7157 28.4118C20.6465 28.4118 20.6188 28.4118 20.6119 28.4118C20.6049 28.4118 20.7849 28.3011 21.0133 28.1972L21.1586 28.135L21.4701 27.9827C21.7746 27.8166 22.0653 27.602 22.1138 27.3459C22.1394 27.2107 22.2073 27.0871 22.3076 26.9929C22.3982 26.9126 22.501 26.8472 22.6121 26.7991C22.7383 26.7531 22.8531 26.6805 22.9486 26.5861C23.0442 26.4918 23.1182 26.3779 23.1658 26.2524C23.1704 26.204 23.1704 26.1553 23.1658 26.107C23.1721 26.0564 23.1721 26.0053 23.1658 25.9547C23.1397 25.8324 23.0929 25.7153 23.0274 25.6087C22.9546 25.4819 22.8712 25.3615 22.7782 25.2488C22.6748 25.1244 22.5639 25.0065 22.446 24.8958C22.3273 24.7781 22.2001 24.6693 22.0653 24.5705C22.0055 24.516 21.9406 24.4674 21.8715 24.4251C21.6991 24.303 21.5161 24.1965 21.3248 24.1068C21.2196 24.0626 21.1107 24.0279 20.9995 24.0029L20.9095 24.0998C17.5642 27.0967 14.9664 30.8346 13.3237 35.0147C13.6383 35.0704 13.9625 35.0114 14.2373 34.8486C14.3408 34.796 14.4403 34.7359 14.535 34.6687L14.6457 34.5787L14.9571 32.4539L15.8846 32.876L16.1338 33.7273L16.383 34.5787L17.6772 33.6097L17.8641 32.3915L18.487 33.0837V34.5994H19.8713L19.3176 33.9904L21.8508 31.4433L22.0999 32.4746L23.3389 32.1701L25.5052 34.5994H28.3499L28.5368 32.0524L25.256 32.087Z" fill="#365370"/>
<path d="M17.8984 32.3916L18.5144 33.056L17.8984 32.3916Z" fill="#4BB4C6"/>
<path d="M19.3174 33.97L21.8506 31.416L19.3174 33.97Z" fill="#4BB4C6"/>
<path d="M22.1001 32.447L23.3459 32.1494L25.5054 34.5719L23.3459 32.1494L22.1001 32.447Z" fill="#4BB4C6"/>
<path d="M14.9844 32.4473L15.9118 32.8764L16.161 33.7277L15.9118 32.8764L14.9844 32.4473Z" fill="#4BB4C6"/>
<path d="M16.4106 34.5715L17.7119 33.6025L16.4106 34.5715Z" fill="#4BB4C6"/>
<path d="M41.8877 16.21H41.2371C34.1986 16.1956 27.377 18.6441 21.9543 23.1313C21.6221 23.4082 21.2622 23.692 20.9715 23.9757C21.0828 24.0007 21.1917 24.0354 21.2968 24.0795C21.4881 24.1692 21.6711 24.2758 21.8436 24.3979C21.9126 24.4402 21.9775 24.4889 22.0374 24.5433C22.1722 24.6422 22.2994 24.7509 22.4181 24.8686C22.536 24.9793 22.6469 25.0972 22.7503 25.2216C22.8433 25.3343 22.9267 25.4547 22.9995 25.5815C23.0649 25.6881 23.1117 25.8052 23.1379 25.9276C23.1442 25.9781 23.1442 26.0292 23.1379 26.0798C23.1424 26.1281 23.1424 26.1768 23.1379 26.2252C23.0903 26.3507 23.0162 26.4646 22.9207 26.5589C22.8251 26.6533 22.7103 26.7259 22.5842 26.7719C22.473 26.82 22.3702 26.8854 22.2796 26.9658C22.1793 27.06 22.1115 27.1835 22.0858 27.3187C22.0374 27.5748 21.7467 27.7894 21.4422 27.9555L21.1307 28.1077L20.9854 28.1701C20.757 28.2739 20.5839 28.3431 20.5839 28.3846C20.5839 28.4261 20.6185 28.3846 20.6878 28.3846C20.9342 28.4047 21.1819 28.4047 21.4283 28.3846C21.6429 28.3846 21.8228 28.3846 21.982 28.3292L22.2104 28.2946H22.4319H22.6534C22.7317 28.2882 22.8104 28.2882 22.8887 28.2946C23.0618 28.3292 23.2209 28.5576 23.3663 28.8207C23.5249 29.1415 23.6568 29.4748 23.7608 29.8173L25.678 30.1219L26.1694 31.3331L25.4773 31.2154L25.2281 32.0598L28.5088 32.0044L28.3219 34.5515H25.505L23.3386 32.1844L22.0997 32.4889L21.8505 31.4577L19.3173 34.0047L19.871 34.6138H18.4868V33.098L17.8639 32.4059L17.677 33.624L16.3827 34.593L16.1335 33.7417L15.8844 32.8904L14.9569 32.4682L14.6454 34.593L14.5347 34.683C14.44 34.7502 14.3406 34.8103 14.2371 34.8629C13.9622 35.0258 13.6381 35.0847 13.3235 35.029C13.0674 35.7212 12.839 36.3718 12.6313 37.057L15.0953 37.14L16.2166 36.1711L17.2617 35.9288L18.0576 36.2195L18.8605 37.1677L21.7536 36.2195L21.8159 34.5792H24.9097L25.8995 35.2713L28.5573 35.3959L29.8654 35.9427V37.6384L33.0976 39.7148L33.2015 40.7391L32.3986 41.7704L33.0146 41.9503L33.0838 44.3797L30.2461 47.1482L29.5539 47.4113L28.6888 46.9891H26.474L25.8649 46.4976H24.446L23.8854 46.9891H22.0305L22.1551 49.5915L20.1756 53.0521L20.8677 54.5679L21.1792 55.9037L20.3694 56.5128L20.1063 59.3436L19.0751 60.4579V62.0982C19.0751 62.0982 18.5006 62.4581 17.7877 62.7904C18.8671 64.1315 20.0647 65.3731 21.366 66.5002C21.7259 66.8186 22.0928 67.1231 22.4665 67.4207C27.81 71.6314 34.4201 73.912 41.2232 73.8922C41.4447 73.8922 41.6593 73.8922 41.8738 73.8922V61.3369L41.1817 60.4994L41.4932 58.5892L41.1471 57.7932L39.1053 57.8555L37.8664 56.9142L37.8041 53.8204L36.1638 52.1523L36.2538 51.2734L37.1189 50.9134L38.1087 49.7299H40.8772L41.9292 49.3907V30.904L40.6003 31.2985L40.538 30.5717L41.8877 29.2359L40.7249 29.049L40.8495 27.7755L41.8877 27.9001V25.9552H41.9292V24.3287L41.8877 24.2388L40.6695 24.3633L39.7975 23.4497H41.0087L40.6073 22.2454L41.8738 21.8024L41.8877 16.21Z" fill="#2185B2"/>
<path d="M59.0874 68.1192L69.2063 79.4424C69.5385 79.1011 69.9049 78.7949 70.2999 78.5288L60.2294 67.2471C59.8741 67.547 59.4935 67.8377 59.0874 68.1192Z" fill="#FCCD59"/>
<path d="M69.2615 35.3535L69.1508 35.485L68.341 35.7896L68.1541 38.4058L66.7353 40.3437H65.6832V39.2502L66.9844 37.6099L66.8598 36.4609H66.2369L66.05 38.1013L64.6312 39.617L64.8803 41.6934L63.4961 42.4824L61.4197 43.0915L60.4299 42.5447L59.9939 43.8183L58.139 43.576L56.471 45.9431L54.0277 46.0953L53.7786 47.7357L55.5366 48.4278L55.9449 51.3763L53.6194 53.3766L53.4048 54.4632L52.1382 54.9823L50.4633 55.8959L50.5394 60.5817L50.048 60.9693L50.2833 63.3571L49.3143 64.5198L49.3836 66.8385L48.4353 68.1535L46.3589 70.486L44.2826 70.1538L44.6563 69.517L45.7706 69.0603L45.826 68.3681L45.3069 67.939L45.1823 66.9977L46.1098 67.06L46.6981 66.5478L45.6461 65.8557L45.7083 65.1636L46.6981 65.2258L46.2967 64.6791L45.1616 64.7137L43.5558 63.5924L42.7806 62.4712L41.8809 61.3637V73.9121C48.0695 73.7988 54.0737 71.7861 59.0803 68.1466C59.4679 67.8652 59.8486 67.5745 60.2223 67.2746C64.8966 63.5884 68.2867 58.5197 69.9088 52.7921C71.5309 47.0645 71.3019 40.9709 69.2546 35.3812L69.2615 35.3535Z" fill="#2185B2"/>
<path d="M12.9703 3.73742C12.3389 2.5038 11.3489 1.49015 10.1305 0.829742C8.91214 0.169331 7.52243 -0.106933 6.14411 0.0372823C4.76579 0.181498 3.46339 0.739443 2.40811 1.63775C1.35283 2.53605 0.594086 3.73265 0.231643 5.07026C-0.130799 6.40787 -0.0799725 7.82387 0.377428 9.13205C0.834829 10.4402 1.67739 11.5794 2.79435 12.3997C3.91131 13.2201 5.25038 13.6832 6.6355 13.7282C8.02061 13.7733 9.38693 13.3981 10.5548 12.6521C10.961 12.3977 11.3372 12.0981 11.6761 11.7592C12.7209 10.7358 13.4093 9.40381 13.6398 7.95956C13.8704 6.51531 13.6308 5.03522 12.9565 3.73742H12.9703Z" fill="#1B79A4"/>
<path d="M74.1272 0C72.7408 0.002372 71.3876 0.423986 70.2451 1.20945C69.1027 1.99492 68.2245 3.10754 67.7259 4.40118C67.2273 5.69482 67.1317 7.10896 67.4514 8.45798C67.7712 9.807 68.4914 11.0278 69.5176 11.96C69.8766 12.2789 70.2661 12.5617 70.6804 12.8044C71.7236 13.4116 72.9085 13.733 74.1155 13.7363C75.3226 13.7395 76.5091 13.4245 77.5556 12.823C78.6021 12.2215 79.4715 11.3548 80.0763 10.3101C80.681 9.26549 80.9996 8.07989 81.0001 6.87285C80.9982 5.05062 80.2735 3.30356 78.985 2.01505C77.6965 0.726539 75.9494 0.00183231 74.1272 0Z" fill="#1B79A4"/>
<path d="M74.1276 2.66504C73.2991 2.67737 72.4931 2.93732 71.8135 3.41141C71.1339 3.8855 70.6116 4.55205 70.3139 5.32537C70.0162 6.09869 69.9566 6.94339 70.1429 7.75083C70.3292 8.55827 70.7527 9.29152 71.3591 9.85628C71.5702 10.0521 71.8023 10.2238 72.0512 10.3685C72.6821 10.7344 73.3983 10.9278 74.1276 10.9291C75.1521 10.8262 76.1018 10.3466 76.7925 9.58305C77.4832 8.81953 77.8657 7.82666 77.8657 6.79708C77.8657 5.7675 77.4832 4.77462 76.7925 4.01111C76.1018 3.2476 75.1521 2.76787 74.1276 2.66504Z" fill="#D94428"/>
<path d="M7.04608 2.66476C6.21752 2.67709 5.41161 2.93705 4.73198 3.41113C4.05235 3.88522 3.53009 4.55178 3.23237 5.32509C2.93465 6.09841 2.87508 6.94311 3.06134 7.75055C3.24761 8.55799 3.67117 9.29124 4.27756 9.856C4.48889 10.0515 4.72098 10.2232 4.96969 10.3682C5.52037 10.702 6.14113 10.9031 6.78292 10.9557C7.42471 11.0084 8.06993 10.911 8.66763 10.6714C9.26532 10.4318 9.79911 10.0564 10.2268 9.57504C10.6545 9.09364 10.9644 8.5194 11.132 7.89764C11.2996 7.27589 11.3203 6.62368 11.1924 5.99255C11.0646 5.36143 10.7918 4.76868 10.3955 4.26113C9.99918 3.75358 9.49026 3.34512 8.90897 3.06807C8.32767 2.79102 7.68991 2.65295 7.04608 2.66476Z" fill="#D94428"/>
<path d="M11.6688 79.3185C11.3242 78.9853 10.9461 78.6884 10.5407 78.4326C9.06025 77.5036 7.2798 77.178 5.5664 77.5229C3.853 77.8679 2.33726 78.857 1.33164 80.2865C0.32603 81.716 -0.0927904 83.4769 0.161519 85.2061C0.415828 86.9353 1.32388 88.501 2.69848 89.5804C4.07308 90.6599 5.80946 91.1707 7.54962 91.0078C9.28978 90.8448 10.9011 90.0204 12.0514 88.7045C13.2016 87.3886 13.8032 85.6816 13.732 83.9352C13.6609 82.1889 12.9224 80.5364 11.6688 79.3185Z" fill="#1B79A4"/>
<path d="M78.0722 78.6116C76.9379 77.8112 75.587 77.3746 74.1988 77.3598C72.8106 77.3449 71.4507 77.7526 70.2996 78.5285C69.0805 79.3454 68.1549 80.5309 67.6582 81.9118C67.1614 83.2926 67.1197 84.7961 67.5391 86.2023C67.9585 87.6086 68.8169 88.8436 69.9888 89.7268C71.1607 90.61 72.5845 91.0949 74.0519 91.1106C75.5192 91.1263 76.9531 90.6719 78.1436 89.814C79.3341 88.956 80.2187 87.7396 80.668 86.3426C81.1174 84.9457 81.1078 83.4416 80.6407 82.0505C80.1736 80.6594 79.2735 79.4543 78.0722 78.6116Z" fill="#1B79A4"/>
<path d="M6.86591 80.2314C6.03735 80.2438 5.23142 80.5037 4.55179 80.9778C3.87216 81.4519 3.3499 82.1185 3.05218 82.8918C2.75446 83.6651 2.69491 84.5098 2.88118 85.3172C3.06744 86.1247 3.491 86.8579 4.09739 87.4227C4.30847 87.6185 4.5406 87.7902 4.78952 87.9349C5.42041 88.3008 6.13656 88.4942 6.86591 88.4955C7.89034 88.3927 8.84003 87.913 9.53074 87.1495C10.2215 86.3859 10.6039 85.3931 10.6039 84.3635C10.6039 83.3339 10.2215 82.341 9.53074 81.5775C8.84003 80.814 7.89034 80.3343 6.86591 80.2314Z" fill="#D94428"/>
<path d="M74.4318 80.322C73.6033 80.3343 72.7973 80.5942 72.1177 81.0683C71.4381 81.5424 70.9158 82.209 70.6181 82.9823C70.3204 83.7556 70.2608 84.6003 70.4471 85.4078C70.6334 86.2152 71.0569 86.9485 71.6633 87.5132C71.8746 87.7087 72.1067 87.8804 72.3554 88.0254C72.9061 88.3592 73.5269 88.5604 74.1686 88.613C74.8104 88.6656 75.4557 88.5683 76.0534 88.3286C76.6511 88.089 77.1849 87.7137 77.6125 87.2323C78.0402 86.7509 78.3501 86.1766 78.5177 85.5549C78.6853 84.9331 78.706 84.2809 78.5782 83.6498C78.4503 83.0187 78.1775 82.4259 77.7812 81.9183C77.3849 81.4108 76.876 81.0023 76.2947 80.7253C75.7134 80.4482 75.0757 80.3102 74.4318 80.322Z" fill="#D94428"/>
</g>
<defs>
<clipPath id="clip0_979_531">
<rect width="81" height="91.0982" fill="white"/>
</clipPath>
</defs>
</svg>
