<svg width="112" height="96" viewBox="0 0 112 96" fill="none" xmlns="http://www.w3.org/2000/svg">
<g clip-path="url(#clip0_979_416)">
<path fill-rule="evenodd" clip-rule="evenodd" d="M71.4972 92.5116L65.5097 74.5494C65.3501 74.1459 65.0764 73.7977 64.7219 73.5474C64.3674 73.2972 63.9476 73.1559 63.5139 73.1406H42.2645C41.8123 73.148 41.3743 73.3001 41.0151 73.5749C40.6558 73.8496 40.3942 74.2323 40.2686 74.6668L34.2812 92.5116H71.4972Z" fill="#1B79A4"/>
<path fill-rule="evenodd" clip-rule="evenodd" d="M95.5639 77.25H9.62683C8.36147 77.2571 7.10742 77.0114 5.93818 76.5276C4.76895 76.0438 3.70802 75.3314 2.81758 74.4324C1.02325 72.619 0.0116475 70.1743 0 67.6232V12.5624C0.0116475 10.0113 1.02325 7.56653 2.81758 5.75313C4.64471 3.97957 7.08073 2.9716 9.62683 2.93555H95.5639C98.1171 2.93555 100.566 3.94981 102.371 5.75519C104.176 7.56057 105.191 10.0092 105.191 12.5624V67.6232C105.179 70.1743 104.167 72.619 102.373 74.4324C101.491 75.3424 100.432 76.062 99.2604 76.5466C98.0892 77.0312 96.8312 77.2706 95.5639 77.25Z" fill="#2185B2"/>
<path d="M94.1551 12.0918H11.153C10.0508 12.0918 9.15723 12.9854 9.15723 14.0876V66.096C9.15723 67.1982 10.0508 68.0918 11.153 68.0918H94.1551C95.2574 68.0918 96.1509 67.1982 96.1509 66.096V14.0876C96.1509 12.9854 95.2574 12.0918 94.1551 12.0918Z" fill="white"/>
<path fill-rule="evenodd" clip-rule="evenodd" d="M30.1717 91.2207C29.9051 91.2035 29.6379 91.2433 29.3879 91.3375C29.138 91.4317 28.911 91.5781 28.7221 91.767C28.5332 91.9559 28.3868 92.1829 28.2926 92.4329C28.1984 92.6828 28.1585 92.95 28.1758 93.2166C28.1758 93.7459 28.3861 94.2536 28.7604 94.6278C29.1347 95.0021 29.6423 95.2124 30.1717 95.2124H75.0186C75.5593 95.2132 76.0798 95.0067 76.4729 94.6355C76.866 94.2642 77.1018 93.7565 77.1318 93.2166C77.1323 92.9443 77.077 92.6748 76.9694 92.4247C76.8619 92.1746 76.7043 91.9491 76.5064 91.7622C76.3084 91.5752 76.0743 91.4307 75.8185 91.3376C75.5626 91.2445 75.2904 91.2047 75.0186 91.2207H30.1717Z" fill="#2185B2"/>
<path fill-rule="evenodd" clip-rule="evenodd" d="M87.1118 33.8114C87.0834 33.229 86.8392 32.6781 86.4269 32.2657C86.0146 31.8534 85.4636 31.6094 84.8812 31.5809C84.4436 31.5802 84.0166 31.7153 83.6591 31.9677C83.3016 32.22 83.0313 32.5771 82.8854 32.9896C81.7114 30.0546 79.246 25.476 79.246 24.6542C79.246 24.0938 79.0233 23.5562 78.627 23.1599C78.2307 22.7636 77.6933 22.541 77.1328 22.541H20.311C19.7505 22.541 19.213 22.7636 18.8167 23.1599C18.4204 23.5562 18.1978 24.0938 18.1978 24.6542V49.0735C18.197 49.6453 18.4158 50.1956 18.8091 50.6107C19.2023 51.0258 19.74 51.2741 20.311 51.3042H84.8812C85.4636 51.2757 86.0146 51.0315 86.4269 50.6192C86.8392 50.2069 87.0834 49.6559 87.1118 49.0735V33.8114Z" fill="#D94428"/>
<path fill-rule="evenodd" clip-rule="evenodd" d="M20.311 56.1172C19.7505 56.1172 19.213 56.3398 18.8167 56.7361C18.4204 57.1324 18.1978 57.6699 18.1978 58.2304C18.197 58.8022 18.4158 59.3525 18.8091 59.7676C19.2023 60.1827 19.74 60.4309 20.311 60.461H84.8812C85.4636 60.4326 86.0146 60.1884 86.4269 59.7761C86.8392 59.3638 87.0834 58.8128 87.1118 58.2304C87.0817 57.6594 86.8335 57.1218 86.4184 56.7285C86.0033 56.3352 85.453 56.1164 84.8812 56.1172H20.311Z" fill="#B5D5F5"/>
<path fill-rule="evenodd" clip-rule="evenodd" d="M31.9332 55.1784C32.0098 54.8511 32.0115 54.5108 31.9381 54.1827C31.8646 53.8547 31.718 53.5475 31.5091 53.2841C31.3003 53.0207 31.0346 52.8079 30.7319 52.6617C30.4293 52.5154 30.0975 52.4395 29.7614 52.4395C29.4252 52.4395 29.0934 52.5154 28.7908 52.6617C28.4881 52.8079 28.2224 53.0207 28.0136 53.2841C27.8047 53.5475 27.6581 53.8547 27.5846 54.1827C27.5112 54.5108 27.5129 54.8511 27.5895 55.1784V61.4007C27.589 61.6884 27.6473 61.9731 27.7607 62.2375C27.8742 62.5018 28.0405 62.7401 28.2493 62.938C28.4582 63.1358 28.7052 63.289 28.9753 63.388C29.2454 63.487 29.5328 63.5299 29.82 63.5139C30.3805 63.5139 30.918 63.2912 31.3143 62.8949C31.7106 62.4986 31.9332 61.9612 31.9332 61.4007V55.1784Z" fill="#FFC107"/>
<path fill-rule="evenodd" clip-rule="evenodd" d="M92.9813 0C95.5464 0.0140873 98.0828 0.54062 100.442 1.54866C102.8 2.55669 104.934 4.02591 106.717 5.87002C110.235 9.48654 112.213 14.3262 112.235 19.3711C112.235 24.4152 110.231 29.2527 106.664 32.8194C103.098 36.3861 98.2602 38.3899 93.2161 38.3899C88.1909 38.329 83.3887 36.3056 79.8351 32.752C76.2815 29.1984 74.2582 24.3963 74.1973 19.3711C74.1973 16.8735 74.6892 14.4003 75.645 12.0929C76.6008 9.78538 78.0017 7.68875 79.7678 5.92269C81.5338 4.15662 83.6304 2.75568 85.9378 1.7999C88.2453 0.84411 90.7185 0.352187 93.2161 0.352187L92.9813 0Z" fill="#FFC107"/>
<path fill-rule="evenodd" clip-rule="evenodd" d="M92.9815 2.93607C90.8089 2.88507 88.6485 3.27491 86.6307 4.08202C84.6129 4.88914 82.7796 6.09681 81.2415 7.63211C78.2446 10.6647 76.564 14.7564 76.564 19.02C76.564 23.2835 78.2446 27.3751 81.2415 30.4077C82.7796 31.943 84.6129 33.1507 86.6307 33.9578C88.6485 34.7649 90.8089 35.1548 92.9815 35.1038C97.2472 35.1038 101.338 33.4093 104.354 30.393C107.371 27.3766 109.065 23.2857 109.065 19.02C109.065 14.7543 107.371 10.6632 104.354 7.64689C101.338 4.63058 97.2472 2.93607 92.9815 2.93607Z" fill="#FFAE06"/>
<path fill-rule="evenodd" clip-rule="evenodd" d="M94.9768 8.33477C94.9768 7.92999 94.8159 7.54176 94.5297 7.25554C94.2435 6.96933 93.8554 6.80859 93.4506 6.80859C93.0458 6.80859 92.6576 6.96933 92.3714 7.25554C92.0851 7.54176 91.9243 7.92999 91.9243 8.33477V10.8002C91.9243 11.2049 92.0851 11.5932 92.3714 11.8794C92.6576 12.1656 93.0458 12.3264 93.4506 12.3264C93.8554 12.3264 94.2435 12.1656 94.5297 11.8794C94.8159 11.5932 94.9768 11.2049 94.9768 10.8002V8.33477Z" fill="white"/>
<path fill-rule="evenodd" clip-rule="evenodd" d="M94.9769 27.2371C94.9769 26.8323 94.8161 26.4441 94.5298 26.1579C94.2436 25.8717 93.8555 25.7109 93.4507 25.7109C93.0459 25.7109 92.6577 25.8717 92.3715 26.1579C92.0853 26.4441 91.9244 26.8323 91.9244 27.2371V29.3503C91.9082 29.5604 91.9357 29.7716 92.0051 29.9705C92.0746 30.1694 92.1844 30.3518 92.3278 30.5062C92.4711 30.6606 92.6449 30.7837 92.8381 30.8676C93.0314 30.9516 93.24 30.9945 93.4507 30.9939C93.6614 30.9945 93.8699 30.9516 94.0632 30.8676C94.2564 30.7837 94.4302 30.6606 94.5735 30.5062C94.7169 30.3518 94.8268 30.1694 94.8962 29.9705C94.9656 29.7716 94.9931 29.5604 94.9769 29.3503V27.2371Z" fill="white"/>
<path fill-rule="evenodd" clip-rule="evenodd" d="M95.6814 15.0282C95.6803 15.4445 95.8374 15.8457 96.1206 16.1508C96.4039 16.4559 96.7924 16.6421 97.2076 16.6718C97.6124 16.6718 98.0006 16.5111 98.2868 16.2249C98.573 15.9387 98.7338 15.5504 98.7338 15.1457C98.8333 14.2039 98.666 13.253 98.2508 12.4019C97.8356 11.5507 97.1893 10.8335 96.3858 10.3322C95.6842 9.74779 94.8275 9.38065 93.9204 9.27563C93.0748 9.04614 92.1833 9.04614 91.3376 9.27563C90.3699 9.60034 89.5036 10.1718 88.8242 10.9336C88.1448 11.6953 87.6758 12.6211 87.4634 13.6195C87.248 14.42 87.2662 15.2654 87.5159 16.0559C87.7655 16.8465 88.2362 17.549 88.8722 18.0807C89.8694 18.9292 91.0272 19.568 92.2768 19.959C93.0982 20.2381 93.8564 20.677 94.5074 21.2504C94.8463 21.4861 95.1208 21.8031 95.3054 22.1723C95.49 22.5415 95.5789 22.9511 95.564 23.3636C95.564 24.0681 94.6248 24.5377 93.803 24.8899H92.5116H91.455C91.07 24.6151 90.7679 24.2398 90.5816 23.805C90.3952 23.3703 90.3319 22.8928 90.3984 22.4245C90.3984 22.0197 90.2376 21.6315 89.9514 21.3453C89.6651 21.0591 89.277 20.8982 88.8722 20.8982C88.6622 20.882 88.451 20.9095 88.252 20.979C88.0531 21.0484 87.8706 21.1582 87.7162 21.3016C87.5618 21.445 87.4389 21.6187 87.3549 21.8119C87.271 22.0052 87.2279 22.2138 87.2285 22.4245C87.133 23.4679 87.35 24.516 87.8517 25.4358C88.3534 26.3556 89.1173 27.1055 90.0462 27.5901C90.857 27.7802 91.7008 27.7802 92.5116 27.5901H94.8596C95.7938 27.2997 96.6341 26.7662 97.2943 26.0442C97.9544 25.3222 98.4107 24.4375 98.6164 23.4811C98.7127 22.5473 98.5691 21.6044 98.1994 20.7416C97.8296 19.8788 97.2458 19.1245 96.5032 18.5503C95.562 17.7472 94.4898 17.1118 93.3334 16.6718C92.4418 16.448 91.6038 16.0489 90.868 15.4978C90.7214 15.2703 90.6435 15.0054 90.6435 14.7347C90.6435 14.4641 90.7214 14.1992 90.868 13.9717C90.9565 13.4983 91.1648 13.0555 91.4731 12.6855C91.7813 12.3156 92.1794 12.0308 92.629 11.8585C92.8331 11.7713 93.0528 11.7263 93.2747 11.7263C93.4967 11.7263 93.7163 11.7713 93.9204 11.8585C94.2631 11.7422 94.6344 11.7422 94.977 11.8585C95.4584 12.2119 95.7952 12.728 95.9247 13.311C96.0543 13.894 95.9678 14.5042 95.6814 15.0282Z" fill="white"/>
<path fill-rule="evenodd" clip-rule="evenodd" d="M84.5285 10.0956C86.0608 8.5446 87.8904 7.31885 89.9077 6.49176C91.925 5.66467 94.0885 5.25321 96.2686 5.28212C99.4083 5.27646 102.477 6.21751 105.074 7.98237C103.544 6.43584 101.712 5.22076 99.6922 4.41285C97.6724 3.60495 95.5079 3.2215 93.3335 3.28634C91.1609 3.23534 89.0005 3.62517 86.9827 4.43229C84.9649 5.23941 83.1316 6.44708 81.5935 7.98237C78.5967 11.015 76.916 15.1067 76.916 19.3702C76.916 23.6338 78.5967 27.7255 81.5935 30.7581C82.4113 31.5617 83.3171 32.2705 84.2937 32.8713C81.347 29.8836 79.695 25.8559 79.695 21.6595C79.695 17.4632 81.347 13.4355 84.2937 10.4478L84.5285 10.0956Z" fill="#FF9D05"/>
<g clip-path="url(#clip1_979_416)">
<path fill-rule="evenodd" clip-rule="evenodd" d="M52.7728 42.664L49.2435 46.3128C49.1049 46.4749 48.9337 46.6061 48.7411 46.6977C48.5485 46.7893 48.3389 46.8394 48.1256 46.8446C47.9124 46.8499 47.7004 46.8102 47.5036 46.7281C47.3067 46.646 47.1294 46.5234 46.9831 46.3682L43.3343 42.8389C43.1202 42.522 43.0133 42.1449 43.0294 41.7629C43.0454 41.3808 43.1836 41.014 43.4236 40.7163L47.0907 36.9228L45.3539 35.269C45.1584 34.998 45.0428 34.6776 45.0202 34.3442C44.9153 33.92 44.9779 33.4718 45.195 33.0926C45.4121 32.7134 45.7671 32.4325 46.186 32.3083L58.145 28.8487C58.3659 28.6872 58.6285 28.5924 58.9016 28.5757C59.3373 28.6728 59.7172 28.9374 59.9592 29.3124C60.2012 29.6874 60.2858 30.1426 60.1948 30.5795L57.284 43.3167C57.1959 43.6705 57.0189 43.9959 56.77 44.2623C56.6185 44.4122 56.4387 44.5305 56.241 44.6103C56.0434 44.69 55.8318 44.7297 55.6187 44.7271C55.4056 44.7244 55.1951 44.6794 54.9995 44.5947C54.8039 44.51 54.6271 44.3873 54.4793 44.2337L52.7728 42.664Z" fill="white"/>
</g>
</g>
<defs>
<clipPath id="clip0_979_416">
<rect width="112" height="95.2117" fill="white"/>
</clipPath>
<clipPath id="clip1_979_416">
<rect width="15.5516" height="20.8248" fill="white" transform="translate(59.3784 27.2637) rotate(70.1606)"/>
</clipPath>
</defs>
</svg>
