<svg width="44" height="44" viewBox="0 0 44 44" fill="none" xmlns="http://www.w3.org/2000/svg">
<path d="M16.5 20.625H8.40125C8.65679 18.9232 9.26446 17.2934 10.1854 15.8398C11.1064 14.3861 12.3204 13.1405 13.75 12.1825L16.2113 10.5325L14.6987 8.25L12.2375 9.9C10.1658 11.2806 8.46685 13.1513 7.29153 15.346C6.11621 17.5407 5.50083 19.9916 5.5 22.4813V31.625C5.5 32.3543 5.78973 33.0538 6.30546 33.5695C6.82118 34.0853 7.52065 34.375 8.25 34.375H16.5C17.2293 34.375 17.9288 34.0853 18.4445 33.5695C18.9603 33.0538 19.25 32.3543 19.25 31.625V23.375C19.25 22.6457 18.9603 21.9462 18.4445 21.4305C17.9288 20.9147 17.2293 20.625 16.5 20.625ZM35.75 20.625H27.6513C27.9068 18.9232 28.5145 17.2934 29.4354 15.8398C30.3564 14.3861 31.5704 13.1405 33 12.1825L35.4613 10.5325L33.9625 8.25L31.4875 9.9C29.4158 11.2806 27.7169 13.1513 26.5415 15.346C25.3662 17.5407 24.7508 19.9916 24.75 22.4813V31.625C24.75 32.3543 25.0397 33.0538 25.5555 33.5695C26.0712 34.0853 26.7707 34.375 27.5 34.375H35.75C36.4793 34.375 37.1788 34.0853 37.6945 33.5695C38.2103 33.0538 38.5 32.3543 38.5 31.625V23.375C38.5 22.6457 38.2103 21.9462 37.6945 21.4305C37.1788 20.9147 36.4793 20.625 35.75 20.625Z" fill="black"/>
</svg>
