<svg width="100" height="100" viewBox="0 0 100 100" fill="none" xmlns="http://www.w3.org/2000/svg">
<g clip-path="url(#clip0_979_444)">
<path fill-rule="evenodd" clip-rule="evenodd" d="M71.9079 63.7322L64.151 71.489C63.7818 71.8354 63.2945 72.0282 62.7883 72.0282C62.282 72.0282 61.7949 71.8354 61.4257 71.489L56.0797 64.6756C55.7333 64.3064 55.5405 63.8192 55.5405 63.3129C55.5405 62.8067 55.7333 62.3195 56.0797 61.9503L57.6521 60.6924L59.1196 59.3297L60.6919 57.6525L61.9497 56.0802C62.3189 55.7338 62.8062 55.541 63.3124 55.541C63.8187 55.541 64.306 55.7338 64.6752 56.0802L71.5933 61.531C71.9397 61.9002 72.1325 62.3874 72.1325 62.8936C72.1325 63.3999 71.9397 63.8871 71.5933 64.2563L71.9079 63.7322Z" fill="#2184B0"/>
<path fill-rule="evenodd" clip-rule="evenodd" d="M59.2247 70.6491L70.3358 59.538C70.5031 59.3395 70.7117 59.1799 70.9471 59.0705C71.1825 58.961 71.439 58.9043 71.6985 58.9043C71.9581 58.9043 72.2146 58.961 72.45 59.0705C72.6853 59.1799 72.894 59.3395 73.0613 59.538L98.1137 84.5904C98.6073 85.0661 99.0007 85.6357 99.2707 86.2658C99.5408 86.8959 99.6819 87.5736 99.6859 88.2592C99.6862 88.9299 99.5464 89.5933 99.2757 90.207C99.0049 90.8206 98.6092 91.3711 98.1137 91.8231L91.5099 98.5317C90.5457 99.447 89.2751 99.9702 87.946 99.9992C86.5825 99.9861 85.2735 99.4625 84.2771 98.5317L59.2247 73.3745C58.8783 73.0053 58.6855 72.5181 58.6855 72.0118C58.6855 71.5056 58.8783 71.0183 59.2247 70.6491Z" fill="#1B79A4"/>
<path fill-rule="evenodd" clip-rule="evenodd" d="M61.8449 10.482C68.6364 17.2823 72.451 26.5001 72.451 36.1109C72.451 45.7217 68.6364 54.9396 61.8449 61.7398C57.6318 65.9756 52.4375 69.105 46.7237 70.8499C41.0099 72.5949 34.9536 72.9013 29.0929 71.742C23.2321 70.5827 17.7485 67.9936 13.1294 64.2047C8.51023 60.4158 4.89855 55.5445 2.61537 50.0237C0.332187 44.5029 -0.551869 38.5035 0.0418484 32.5588C0.635566 26.614 2.68873 20.9081 6.01869 15.9478C9.34864 10.9876 13.8523 6.92683 19.1296 4.12632C24.4068 1.3258 30.2941 -0.127678 36.2684 -0.104996C41.0213 -0.129443 45.7315 0.794262 50.1231 2.61212C54.5148 4.42997 58.4997 7.10545 61.8449 10.482Z" fill="#1B79A4"/>
<path fill-rule="evenodd" clip-rule="evenodd" d="M59.2239 13.3132C53.9352 8 46.9671 4.68586 39.5079 3.93595C32.0488 3.18604 24.5605 5.04679 18.32 9.20091C12.0794 13.355 7.47296 19.5453 5.28633 26.7161C3.09971 33.8868 3.46824 41.594 6.32902 48.5235C9.1898 55.4529 14.3657 61.1754 20.9741 64.7152C27.5825 68.255 35.2143 69.3929 42.5678 67.9348C49.9214 66.4767 56.5415 62.5128 61.2992 56.7193C66.0569 50.9257 68.6576 43.6611 68.6578 36.1643C68.6693 31.9216 67.8419 27.7184 66.2228 23.7967C64.6037 19.875 62.2252 16.3122 59.2239 13.3132Z" fill="white"/>
<path d="M24.4235 36.793H17.7149C16.6729 36.793 15.8281 37.6377 15.8281 38.6798V53.4596C15.8281 54.5017 16.6729 55.3464 17.7149 55.3464H24.4235C25.4656 55.3464 26.3103 54.5017 26.3103 53.4596V38.6798C26.3103 37.6377 25.4656 36.793 24.4235 36.793Z" fill="#D94428"/>
<path d="M39.6227 26.7305H32.9141C31.8721 26.7305 31.0273 27.5752 31.0273 28.6173V53.46C31.0273 54.5021 31.8721 55.3468 32.9141 55.3468H39.6227C40.6648 55.3468 41.5095 54.5021 41.5095 53.46V28.6173C41.5095 27.5752 40.6648 26.7305 39.6227 26.7305Z" fill="#98DB7C"/>
<path d="M54.8224 32.1797H48.1138C47.0718 32.1797 46.2271 33.0244 46.2271 34.0665V53.4585C46.2271 54.5006 47.0718 55.3453 48.1138 55.3453H54.8224C55.8645 55.3453 56.7092 54.5006 56.7092 53.4585V34.0665C56.7092 33.0244 55.8645 32.1797 54.8224 32.1797Z" fill="#2185B2"/>
<path fill-rule="evenodd" clip-rule="evenodd" d="M22.6413 24.9486C22.3702 25.0769 22.1317 25.2648 21.9434 25.4982C21.7551 25.7315 21.622 26.0044 21.554 26.2964C21.4859 26.5885 21.4846 26.8922 21.5503 27.1848C21.6159 27.4774 21.7467 27.7513 21.933 27.9863C22.1194 28.2212 22.3564 28.411 22.6264 28.5416C22.8963 28.6722 23.1923 28.7401 23.4922 28.7403C23.792 28.7405 24.088 28.673 24.3581 28.5428C24.6283 28.4126 24.8656 28.2231 25.0523 27.9884L34.6959 20.5461C35.0423 20.1769 35.2351 19.6897 35.2351 19.1834C35.2351 18.6772 35.0423 18.1899 34.6959 17.8207C34.3442 17.4813 33.8744 17.2916 33.3856 17.2916C32.8968 17.2916 32.4271 17.4813 32.0753 17.8207L22.3268 25.2631L22.6413 24.9486ZM40.2514 16.5629C40.0243 16.4597 39.7791 16.4021 39.5297 16.3937C39.2804 16.3852 39.0318 16.4259 38.7982 16.5136C38.5645 16.6012 38.3504 16.7339 38.1681 16.9043C37.9858 17.0746 37.8389 17.2791 37.7356 17.5063C37.6324 17.7334 37.5749 17.9787 37.5664 18.228C37.558 18.4774 37.5988 18.7259 37.6864 18.9595C37.774 19.1931 37.9066 19.4072 38.077 19.5895C38.2473 19.7718 38.4519 19.9188 38.679 20.022L47.4841 23.9004C47.7082 24.0214 47.9555 24.093 48.2095 24.1103C48.4635 24.1277 48.7182 24.0904 48.9566 24.001C49.195 23.9116 49.4115 23.7722 49.5914 23.5921C49.7714 23.412 49.9105 23.1955 49.9998 22.957C50.0471 22.5316 49.9484 22.1027 49.7199 21.7408C49.4913 21.3789 49.1464 21.1054 48.742 20.9654L40.2514 16.5629Z" fill="#B5D5F5"/>
<path fill-rule="evenodd" clip-rule="evenodd" d="M24.9481 24.7384C25.9484 25.7828 26.5111 27.1706 26.5205 28.6168C26.517 30.0333 25.9514 31.3904 24.9481 32.3903C23.8924 33.3731 22.5118 33.9328 21.0697 33.9627C19.6532 33.9592 18.296 33.3937 17.2961 32.3903C16.7846 31.9064 16.3804 31.3204 16.1095 30.6704C15.8387 30.0204 15.7073 29.3208 15.7239 28.6168C15.7055 27.897 15.8356 27.1811 16.1061 26.5138C16.3767 25.8465 16.7817 25.2421 17.2961 24.7384C18.296 23.735 19.6532 23.1695 21.0697 23.166C22.5118 23.1958 23.8924 23.7555 24.9481 24.7384Z" fill="#D94428"/>
<path fill-rule="evenodd" clip-rule="evenodd" d="M40.1466 13.1024C41.15 14.1023 41.7156 15.4595 41.7191 16.876C41.7333 17.5957 41.602 18.3109 41.3331 18.9786C41.0642 19.6464 40.6633 20.253 40.1543 20.762C39.6453 21.271 39.0387 21.672 38.3709 21.9408C37.7032 22.2097 36.988 22.341 36.2683 22.3267C35.5573 22.3268 34.8535 22.1852 34.1979 21.91C33.5424 21.6349 32.9485 21.2317 32.4507 20.7241C31.9529 20.2165 31.5612 19.6148 31.2988 18.954C31.0364 18.2933 30.9085 17.5868 30.9224 16.876C30.9224 15.4582 31.4856 14.0984 32.4881 13.0959C33.4907 12.0933 34.8504 11.5301 36.2683 11.5301C36.9873 11.5178 37.7013 11.6508 38.3677 11.921C39.0341 12.1911 39.6391 12.593 40.1466 13.1024Z" fill="#98DB7C"/>
<path fill-rule="evenodd" clip-rule="evenodd" d="M53.9828 18.8676C54.6083 19.1891 55.1626 19.6333 55.6128 20.1735C56.063 20.7138 56.3999 21.3391 56.6034 22.0122C56.856 22.8519 56.8982 23.7409 56.7262 24.6007C56.5542 25.4606 56.1734 26.2649 55.6173 26.9429C55.0612 27.6208 54.3468 28.1516 53.5372 28.4883C52.7276 28.8251 51.8474 28.9576 50.9746 28.874C50.1017 28.7904 49.2627 28.4934 48.5317 28.0092C47.8007 27.5249 47.2001 26.8682 46.7827 26.097C46.3653 25.3258 46.144 24.4638 46.1383 23.587C46.1326 22.7101 46.3427 21.8454 46.7501 21.0689C47.0716 20.4434 47.5158 19.8891 48.056 19.4389C48.5963 18.9887 49.2216 18.6518 49.8948 18.4483C50.5673 18.2266 51.279 18.1493 51.9835 18.2216C52.688 18.2938 53.3693 18.514 53.9828 18.8676Z" fill="#1B79A4"/>
</g>
<defs>
<clipPath id="clip0_979_444">
<rect width="100" height="100" fill="white"/>
</clipPath>
</defs>
</svg>
