<svg width="111" height="94" viewBox="0 0 111 94" fill="none" xmlns="http://www.w3.org/2000/svg">
<g clip-path="url(#clip0_979_581)">
<path fill-rule="evenodd" clip-rule="evenodd" d="M101.343 93.6631H9.54115C8.28708 93.67 7.04423 93.4266 5.88543 92.9471C4.72664 92.4676 3.67518 91.7616 2.7927 90.8706C1.89815 89.9666 1.19097 88.8948 0.711758 87.7168C0.23255 86.5387 -0.00922464 85.2776 0.000269124 84.0058V21.0593C-0.000516294 20.4926 0.216333 19.9473 0.606078 19.5359C0.995822 19.1245 1.52865 18.8785 2.09457 18.8486H108.906C109.472 18.8785 110.005 19.1245 110.394 19.5359C110.784 19.9473 111.001 20.4926 111 21.0593V84.0058C111.016 85.2784 110.777 86.5411 110.297 87.7199C109.817 88.8986 109.106 89.9694 108.207 90.8693C107.307 91.7692 106.236 92.48 105.057 92.9598C103.878 93.4396 102.616 93.6787 101.343 93.6631Z" fill="#2185B2"/>
<path fill-rule="evenodd" clip-rule="evenodd" d="M107.626 22.2236H2.90869V84.0066C2.92657 85.7015 3.59271 87.3252 4.77032 88.5443C5.9587 89.6827 7.54619 90.3093 9.19168 90.2896H100.994C101.81 90.3123 102.623 90.1694 103.383 89.8694C104.143 89.5694 104.834 89.1187 105.415 88.5443C106.019 87.9555 106.496 87.2491 106.816 86.4686C107.137 85.688 107.293 84.8501 107.277 84.0066V22.2236H107.626Z" fill="#EEF2F4"/>
<path fill-rule="evenodd" clip-rule="evenodd" d="M108.905 23.154H1.97742C1.42197 23.154 0.889289 22.9334 0.496525 22.5406C0.10376 22.1479 -0.116918 21.6152 -0.116918 21.0597V9.42448C-0.126412 8.15273 0.115406 6.8917 0.594615 5.71365C1.07382 4.53559 1.781 3.46376 2.67555 2.55975C3.55804 1.66871 4.60945 0.962749 5.76825 0.483247C6.92704 0.00374563 8.16989 -0.239629 9.42396 -0.23268H101.226C102.498 -0.248296 103.761 -0.00914991 104.94 0.470642C106.119 0.950434 107.189 1.66119 108.089 2.56108C108.989 3.46096 109.7 4.53173 110.18 5.71045C110.66 6.88917 110.899 8.15195 110.883 9.42448V21.0597C110.884 21.5956 110.679 22.1114 110.311 22.501C109.943 22.8906 109.44 23.1243 108.905 23.154Z" fill="#2185B2"/>
<path fill-rule="evenodd" clip-rule="evenodd" d="M21.8746 11.6354C21.8902 11.2131 21.8206 10.7921 21.6697 10.3974C21.5188 10.0027 21.2899 9.64252 20.9966 9.33837C20.7034 9.03422 20.3517 8.79242 19.9628 8.62732C19.5739 8.46222 19.1556 8.37724 18.7331 8.37753C18.2619 8.28726 17.7765 8.30215 17.3118 8.4212C16.847 8.54025 16.4143 8.76052 16.0445 9.0662C15.6747 9.37188 15.377 9.75542 15.1726 10.1895C14.9682 10.6236 14.8623 11.0975 14.8623 11.5772C14.8623 12.057 14.9682 12.5308 15.1726 12.9649C15.377 13.3989 15.6747 13.7826 16.0445 14.0883C16.4143 14.3939 16.847 14.6141 17.3118 14.7332C17.7765 14.8522 18.2619 14.8672 18.7331 14.7769C19.5662 14.7769 20.3653 14.4459 20.9545 13.8567C21.5436 13.2676 21.8746 12.4686 21.8746 11.6354Z" fill="#98DB7C"/>
<path fill-rule="evenodd" clip-rule="evenodd" d="M34.2071 11.6354C34.2973 11.1642 34.2824 10.6789 34.1633 10.2142C34.0443 9.74939 33.8241 9.31667 33.5184 8.94688C33.2127 8.57709 32.8291 8.27935 32.3951 8.07499C31.961 7.87063 31.4871 7.76465 31.0074 7.76465C30.5276 7.76465 30.0537 7.87063 29.6197 8.07499C29.1856 8.27935 28.802 8.57709 28.4963 8.94688C28.1907 9.31667 27.9704 9.74939 27.8514 10.2142C27.7323 10.6789 27.7174 11.1642 27.8077 11.6354C27.9503 12.3796 28.3477 13.0508 28.9317 13.5335C29.5157 14.0163 30.2497 14.2804 31.0074 14.2804C31.765 14.2804 32.4991 14.0163 33.0831 13.5335C33.6671 13.0508 34.0645 12.3796 34.2071 11.6354Z" fill="#FFC107"/>
<path fill-rule="evenodd" clip-rule="evenodd" d="M46.4241 11.6356C46.4241 11.0143 46.2399 10.4069 45.8947 9.89031C45.5495 9.37369 45.0589 8.97106 44.4848 8.73328C43.9108 8.49551 43.2792 8.43329 42.6698 8.5545C42.0604 8.67572 41.5006 8.97489 41.0613 9.41424C40.6219 9.85358 40.3227 10.4133 40.2015 11.0227C40.0803 11.6321 40.1425 12.2638 40.3803 12.8378C40.618 13.4119 41.0207 13.9025 41.5373 14.2477C42.0539 14.5928 42.6613 14.7772 43.2826 14.7772C44.1158 14.7772 44.9149 14.4461 45.504 13.857C46.0931 13.2678 46.4241 12.4688 46.4241 11.6356Z" fill="#EF5350"/>
<path fill-rule="evenodd" clip-rule="evenodd" d="M62.0157 70.1599C63.9936 73.5341 70.393 81.7951 70.393 82.7259C70.393 83.2814 70.6137 83.8141 71.0064 84.2069C71.3992 84.5996 71.9319 84.8203 72.4874 84.8203H95.7578C96.3133 84.8203 96.8459 84.5996 97.2387 84.2069C97.6315 83.8141 97.8522 83.2814 97.8522 82.7259C98.03 82.2374 98.03 81.7019 97.8522 81.2134L74.5817 52.707L81.3301 61.0844L74.349 67.3674H71.7892L64.6918 61.2008L71.4402 52.8234L59.805 67.0184C59.6008 67.2139 59.4384 67.4487 59.3274 67.7087C59.2164 67.9686 59.1592 68.2483 59.1592 68.5309C59.1592 68.8136 59.2164 69.0933 59.3274 69.3533C59.4384 69.6133 59.6008 69.8481 59.805 70.0436C60.1199 70.2812 60.4986 70.4192 60.8925 70.4399C61.2864 70.4607 61.6776 70.3631 62.0157 70.1599Z" fill="#829399"/>
<path fill-rule="evenodd" clip-rule="evenodd" d="M80.981 61.0851L74.2326 52.7078C73.8228 52.3233 73.282 52.1094 72.72 52.1094C72.1581 52.1094 71.6172 52.3233 71.2074 52.7078L64.459 61.0851L71.5565 67.2518H73.6508L80.981 61.0851Z" fill="#BFC5D2"/>
<path fill-rule="evenodd" clip-rule="evenodd" d="M46.0756 29.903C46.1516 29.5786 46.1532 29.2413 46.0804 28.9162C46.0076 28.5911 45.8623 28.2866 45.6553 28.0256C45.4483 27.7645 45.185 27.5537 44.8851 27.4087C44.5851 27.2638 44.2562 27.1885 43.9231 27.1885C43.59 27.1885 43.2611 27.2638 42.9612 27.4087C42.6612 27.5537 42.3979 27.7645 42.1909 28.0256C41.9839 28.2866 41.8386 28.5911 41.7658 28.9162C41.693 29.2413 41.6946 29.5786 41.7706 29.903V47.1231C41.7537 47.4179 41.7993 47.7128 41.9044 47.9886C42.0096 48.2645 42.1718 48.5151 42.3806 48.7238C42.5893 48.9326 42.8398 49.0949 43.1157 49.2C43.3916 49.3051 43.6866 49.3506 43.9813 49.3338C44.2664 49.3342 44.5486 49.2765 44.8106 49.164C45.0726 49.0516 45.3088 48.8868 45.5049 48.6798C45.701 48.4728 45.8527 48.228 45.9509 47.9603C46.049 47.6926 46.0915 47.4078 46.0756 47.1231V29.903Z" fill="#8F6E4E"/>
<path d="M55.6163 27.6924H43.9811C42.8244 27.6924 41.8867 28.63 41.8867 29.7867V38.8622C41.8867 40.0189 42.8244 40.9565 43.9811 40.9565H55.6163C56.773 40.9565 57.7106 40.0189 57.7106 38.8622V29.7867C57.7106 28.63 56.773 27.6924 55.6163 27.6924Z" fill="#D94428"/>
<path fill-rule="evenodd" clip-rule="evenodd" d="M13.6132 81.3307L34.7893 55.0352L42.3522 61.6672H42.9339H43.5157L51.1949 55.0352L72.2547 81.2144C72.4325 81.7029 72.4325 82.2384 72.2547 82.7269C72.2249 83.2929 71.9788 83.8257 71.5674 84.2154C71.156 84.6052 70.6107 84.8221 70.044 84.8213H15.3585C14.9053 84.9721 14.4154 84.9721 13.9622 84.8213C13.5777 84.4115 13.3638 83.8707 13.3638 83.3087C13.3638 82.7468 13.5777 82.2059 13.9622 81.7961L13.6132 81.3307Z" fill="#4C5E66"/>
<path fill-rule="evenodd" clip-rule="evenodd" d="M34.9058 55.0343L42.1196 45.9588C42.5294 45.5744 43.0702 45.3604 43.6322 45.3604C44.1941 45.3604 44.7349 45.5744 45.1447 45.9588L52.5913 55.1506L44.912 61.7827H44.3303L34.9058 55.0343Z" fill="#BFC5D2"/>
</g>
<defs>
<clipPath id="clip0_979_581">
<rect width="111" height="93.6635" fill="white"/>
</clipPath>
</defs>
</svg>
