<svg width="81" height="79" viewBox="0 0 81 79" fill="none" xmlns="http://www.w3.org/2000/svg">
<g clip-path="url(#clip0_979_519)">
<path d="M77.7238 10.4736H2.76136C2.38684 10.48 2.01728 10.5603 1.67398 10.7102C1.33068 10.86 1.02044 11.0763 0.761146 11.3467C0.501849 11.617 0.298632 11.936 0.163201 12.2852C0.0277707 12.6344 -0.0371986 13.0071 -0.0279419 13.3815V66.2736C-0.0371987 66.6477 0.0278153 67.02 0.163329 67.3688C0.298843 67.7177 0.502164 68.0362 0.76155 68.3059C1.02094 68.5757 1.33123 68.7914 1.67449 68.9404C2.01775 69.0895 2.38716 69.169 2.76136 69.1744H77.7238C78.098 69.169 78.4675 69.0895 78.8107 68.9404C79.154 68.7914 79.4643 68.5757 79.7237 68.3059C79.983 68.0362 80.1864 67.7177 80.3219 67.3688C80.4574 67.02 80.5224 66.6477 80.5131 66.2736V13.3815C80.5224 13.0071 80.4574 12.6344 80.322 12.2852C80.1866 11.936 79.9834 11.617 79.7241 11.3467C79.4648 11.0763 79.1545 10.86 78.8112 10.7102C78.4679 10.5603 78.0984 10.48 77.7238 10.4736Z" fill="#2185B2"/>
<path d="M40.2426 10.4736H2.76136C2.38684 10.48 2.01728 10.5603 1.67398 10.7102C1.33068 10.86 1.02044 11.0763 0.761146 11.3467C0.501849 11.617 0.298632 11.936 0.163201 12.2852C0.0277707 12.6344 -0.0371986 13.0071 -0.0279419 13.3815V66.2736C-0.0371987 66.6477 0.0278153 67.02 0.163329 67.3688C0.298843 67.7177 0.502164 68.0362 0.76155 68.3059C1.02094 68.5757 1.33123 68.7914 1.67449 68.9404C2.01775 69.0895 2.38716 69.169 2.76136 69.1744H40.2426V10.4736Z" fill="#2185B2"/>
<path d="M76.9155 60.4025C76.9155 60.535 76.769 60.6466 76.5877 60.6466H3.89854C3.71724 60.6466 3.5708 60.535 3.5708 60.4025V15.1531C3.5708 15.0206 3.71724 14.916 3.89854 14.916H76.5877C76.769 14.916 76.9155 15.0206 76.9155 15.1531V60.4025Z" fill="#E3E1DF"/>
<path d="M76.8179 60.5832C76.7528 60.6355 76.6712 60.6627 76.5877 60.6599H3.89854C3.71724 60.6599 3.5708 60.5484 3.5708 60.4159V15.1664C3.57177 15.1326 3.5812 15.0996 3.59825 15.0703C3.61531 15.0411 3.63944 15.0166 3.66842 14.9991C3.7242 14.9433 76.8806 60.5275 76.8179 60.5832Z" fill="#EEEEEE"/>
<path d="M48.8547 69.1748H30.8916V79.0001H48.8547V69.1748Z" fill="#1B79A4"/>
<path d="M40.2427 69.1748H30.8916V79.0001H40.2427V69.1748Z" fill="#1B79A4"/>
<path d="M55.696 5.76689L53.3808 0L47.614 2.32206L46.1496 5.75293L50.1104 4.15603C41.338 20.9755 22.4056 29.0645 18.8074 27.8651C18.6446 27.8066 18.4717 27.7813 18.2989 27.7906C18.1261 27.7999 17.9569 27.8438 17.8013 27.9195C17.6457 27.9952 17.5068 28.1012 17.3928 28.2315C17.2789 28.3617 17.1921 28.5134 17.1377 28.6777C17.0832 28.8419 17.0622 29.0154 17.0758 29.1879C17.0894 29.3604 17.1375 29.5285 17.217 29.6821C17.2966 29.8358 17.4061 29.972 17.5392 30.0827C17.6722 30.1934 17.826 30.2763 17.9916 30.3267C18.5136 30.4847 19.0571 30.56 19.6024 30.5499C26.6663 30.5499 44.2598 21.2057 52.551 4.99985L54.2316 9.18381L55.696 5.76689Z" fill="#98DB7C"/>
<path d="M28.918 55.9258C28.9238 56.0172 28.8934 56.1071 28.8333 56.1763C28.7733 56.2454 28.6885 56.2882 28.5972 56.2954H20.1038C20.058 56.2927 20.0131 56.281 19.9719 56.261C19.9306 56.2409 19.8936 56.213 19.8632 56.1787C19.8327 56.1443 19.8094 56.1043 19.7944 56.0609C19.7795 56.0176 19.7732 55.9716 19.7761 55.9258V37.3491C19.7732 37.3033 19.7795 37.2573 19.7944 37.2139C19.8094 37.1705 19.8327 37.1305 19.8632 37.0962C19.8936 37.0619 19.9306 37.0339 19.9719 37.0139C20.0131 36.9938 20.058 36.9822 20.1038 36.9795H28.5972C28.6427 36.9821 28.6873 36.9938 28.7282 37.014C28.7692 37.0341 28.8056 37.0622 28.8355 37.0966C28.8654 37.1311 28.8881 37.1712 28.9023 37.2145C28.9165 37.2579 28.9218 37.3036 28.918 37.3491V55.9258Z" fill="#D94428"/>
<path d="M45.9398 55.779C45.9398 56.0649 45.7933 56.295 45.619 56.295H37.1256C36.9443 56.295 36.7979 56.0649 36.7979 55.779V29.6223C36.7979 29.3434 36.9443 29.1133 37.1256 29.1133H45.619C45.7933 29.1133 45.9398 29.3434 45.9398 29.6223V55.779Z" fill="#D94428"/>
<path d="M62.6478 55.5976C62.6478 55.9811 62.5014 56.2949 62.327 56.2949H53.8266C53.6523 56.2949 53.5059 55.9811 53.5059 55.5976V20.1944C53.5059 19.8039 53.6523 19.4971 53.8266 19.4971H62.327C62.5014 19.4971 62.6478 19.8039 62.6478 20.1944V55.5976Z" fill="#D94428"/>
</g>
<defs>
<clipPath id="clip0_979_519">
<rect width="80.4783" height="79" fill="white"/>
</clipPath>
</defs>
</svg>
