<svg width="121" height="94" viewBox="0 0 121 94" fill="none" xmlns="http://www.w3.org/2000/svg">
<g clip-path="url(#clip0_979_468)">
<path fill-rule="evenodd" clip-rule="evenodd" d="M72.1898 91.1202L66.1318 72.8204C65.9939 72.3997 65.7217 72.0358 65.3568 71.785C64.992 71.5341 64.5548 71.4102 64.1126 71.4322H43.0361C42.5776 71.4177 42.1277 71.5598 41.7607 71.835C41.3937 72.1103 41.1315 72.5024 41.017 72.9467L34.959 91.1202H72.1898Z" fill="#1B79A4"/>
<path fill-rule="evenodd" clip-rule="evenodd" d="M97.3044 75.4727H9.84401C8.56006 75.4982 7.28415 75.2656 6.0918 74.7886C4.89944 74.3117 3.81498 73.6001 2.90277 72.6962C1.06581 70.8503 0.023928 68.359 0 65.755V9.71975C0.023928 7.11569 1.06581 4.6243 2.90277 2.77842C3.81498 1.87451 4.89944 1.16304 6.0918 0.686099C7.28415 0.209157 8.56006 -0.0235641 9.84401 0.00188286H97.3044C98.5883 -0.0235641 99.8643 0.209157 101.057 0.686099C102.249 1.16304 103.334 1.87451 104.246 2.77842C106.083 4.6243 107.124 7.11569 107.148 9.71975V65.755C107.124 68.359 106.083 70.8503 104.246 72.6962C103.334 73.6001 102.249 74.3117 101.057 74.7886C99.8643 75.2656 98.5883 75.4982 97.3044 75.4727Z" fill="#2185B2"/>
<path d="M95.7898 9.21289H11.2322C10.117 9.21289 9.21289 10.117 9.21289 11.2322V64.2385C9.21289 65.3537 10.117 66.2577 11.2322 66.2577H95.7898C96.905 66.2577 97.8091 65.3537 97.8091 64.2385V11.2322C97.8091 10.117 96.905 9.21289 95.7898 9.21289Z" fill="white"/>
<path fill-rule="evenodd" clip-rule="evenodd" d="M30.6683 90.3633C30.1327 90.3633 29.6192 90.576 29.2405 90.9547C28.8618 91.3334 28.6489 91.8471 28.6489 92.3826C28.648 92.9304 28.8566 93.4579 29.232 93.8568C29.6075 94.2557 30.1214 94.4959 30.6683 94.5281H76.4809C77.0278 94.4959 77.5415 94.2557 77.9169 93.8568C78.2924 93.4579 78.5012 92.9304 78.5002 92.3826C78.5002 91.8471 78.2873 91.3334 77.9086 90.9547C77.53 90.576 77.0165 90.3633 76.4809 90.3633H30.6683Z" fill="#2185B2"/>
<path d="M39.3762 18.5527H21.0764C19.8218 18.5527 18.8047 19.5698 18.8047 20.8244V29.9112C18.8047 31.1658 19.8218 32.1829 21.0764 32.1829H39.3762C40.6308 32.1829 41.6479 31.1658 41.6479 29.9112V20.8244C41.6479 19.5698 40.6308 18.5527 39.3762 18.5527Z" fill="#5C9CEE"/>
<path d="M65.3745 18.5527H47.4533C46.1987 18.5527 45.1816 19.5698 45.1816 20.8244V29.9112C45.1816 31.1658 46.1987 32.1829 47.4533 32.1829H65.3745C66.6291 32.1829 67.6462 31.1658 67.6462 29.9112V20.8244C67.6462 19.5698 66.6291 18.5527 65.3745 18.5527Z" fill="#D94428"/>
<path d="M86.0719 18.5527H73.4514C72.1968 18.5527 71.1797 19.5698 71.1797 20.8244V29.9112C71.1797 31.1658 72.1968 32.1829 73.4514 32.1829H86.0719C87.3266 32.1829 88.3436 31.1658 88.3436 29.9112V20.8244C88.3436 19.5698 87.3266 18.5527 86.0719 18.5527Z" fill="#44C4A1"/>
<path d="M59.6953 35.9688H41.7741C40.5195 35.9688 39.5024 36.9858 39.5024 38.2404V47.3272C39.5024 48.5819 40.5195 49.5989 41.7741 49.5989H59.6953C60.9499 49.5989 61.967 48.5819 61.967 47.3272V38.2404C61.967 36.9858 60.9499 35.9688 59.6953 35.9688Z" fill="#FCD462"/>
<path d="M33.6969 35.9688H21.0764C19.8218 35.9688 18.8047 36.9858 18.8047 38.2404V47.3272C18.8047 48.5819 19.8218 49.5989 21.0764 49.5989H33.6969C34.9516 49.5989 35.9686 48.5819 35.9686 47.3272V38.2404C35.9686 36.9858 34.9516 35.9688 33.6969 35.9688Z" fill="#98DB7C"/>
<path fill-rule="evenodd" clip-rule="evenodd" d="M106.013 68.0248L101.974 72.0634C101.787 72.2409 101.538 72.3398 101.28 72.3398C101.022 72.3398 100.773 72.2409 100.586 72.0634L97.8093 68.5295C97.6317 68.342 97.5327 68.0936 97.5327 67.8354C97.5327 67.5772 97.6317 67.3289 97.8093 67.1414L98.6926 66.5103C98.8769 66.198 99.1374 65.9375 99.4498 65.7531L100.207 64.8697V64.1124C100.395 63.9349 100.643 63.8359 100.901 63.8359C101.159 63.8359 101.408 63.9349 101.595 64.1124L105.129 66.8889C105.307 67.0764 105.406 67.3248 105.406 67.583C105.406 67.8413 105.307 68.0897 105.129 68.2772L106.013 68.0248Z" fill="#979FC7"/>
<path fill-rule="evenodd" clip-rule="evenodd" d="M99.5767 71.5592L105.382 65.8799C105.465 65.7749 105.57 65.69 105.69 65.6316C105.811 65.5733 105.943 65.543 106.076 65.543C106.21 65.543 106.342 65.5733 106.462 65.6316C106.582 65.69 106.688 65.7749 106.77 65.8799L119.391 78.5004C119.659 78.7373 119.875 79.0287 120.022 79.3551C120.169 79.6815 120.245 80.0354 120.245 80.3935C120.245 80.7516 120.169 81.1057 120.022 81.4321C119.875 81.7585 119.659 82.0497 119.391 82.2866L115.983 85.6941C115.517 86.1697 114.882 86.4419 114.216 86.4514C113.865 86.4638 113.516 86.4028 113.19 86.2724C112.864 86.142 112.569 85.9451 112.323 85.6941L99.7028 73.0736C99.5253 72.8861 99.4263 72.6377 99.4263 72.3794C99.4263 72.1212 99.5253 71.8728 99.7028 71.6853L99.5767 71.5592Z" fill="#A5ABCC"/>
<path fill-rule="evenodd" clip-rule="evenodd" d="M101.091 40.6378C104.582 44.1391 106.542 48.8819 106.542 53.8263C106.542 58.7707 104.582 63.5134 101.091 67.0147C97.7333 70.372 93.2164 72.3143 88.4701 72.4416C83.7124 72.3671 79.1765 70.4167 75.8496 67.0147C74.0903 65.2983 72.6923 63.2471 71.7377 60.9822C70.7832 58.7172 70.2915 56.2842 70.2915 53.8263C70.2915 51.3684 70.7832 48.9353 71.7377 46.6704C72.6923 44.4054 74.0903 42.3543 75.8496 40.6378C79.1765 37.2358 83.7124 35.2854 88.4701 35.2109C93.2164 35.3383 97.7333 37.2805 101.091 40.6378Z" fill="#A5ABCC"/>
<path fill-rule="evenodd" clip-rule="evenodd" d="M98.0615 43.2892C95.2733 40.53 91.5091 38.9824 87.5865 38.9824C83.6638 38.9824 79.8998 40.53 77.1116 43.2892C74.3744 46.1143 72.8438 49.8937 72.8438 53.8274C72.8438 57.761 74.3744 61.5404 77.1116 64.3655C79.8998 67.1247 83.6638 68.6723 87.5865 68.6723C91.5091 68.6723 95.2733 67.1247 98.0615 64.3655C99.462 62.991 100.575 61.351 101.334 59.5416C102.093 57.7322 102.484 55.7897 102.484 53.8274C102.484 51.8651 102.093 49.9224 101.334 48.113C100.575 46.3036 99.462 44.6637 98.0615 43.2892Z" fill="white"/>
<path fill-rule="evenodd" clip-rule="evenodd" d="M88.4702 45.8125C89.6724 47.019 90.3476 48.6527 90.3476 50.3559C90.3476 52.0591 89.6724 53.6929 88.4702 54.8993C87.8975 55.4937 87.2116 55.9674 86.4529 56.2925C85.6943 56.6176 84.8782 56.7875 84.0529 56.7923C82.5951 56.4993 81.2839 55.7107 80.3418 54.5604C79.3997 53.4101 78.8848 51.969 78.8848 50.4821C78.8848 48.9952 79.3997 47.5542 80.3418 46.4038C81.2839 45.2535 82.5951 44.4648 84.0529 44.1718C85.6841 44.1143 87.272 44.7041 88.4702 45.8125Z" fill="#FFC107"/>
<path fill-rule="evenodd" clip-rule="evenodd" d="M86.072 50.3568C86.1954 49.9022 86.1954 49.423 86.072 48.9685C85.6238 48.8044 85.132 48.8044 84.6838 48.9685C84.4664 48.867 84.2296 48.8145 83.9897 48.8145C83.7499 48.8145 83.5128 48.867 83.2955 48.9685C83.1043 49.1457 82.9518 49.3605 82.8476 49.5994C82.7433 49.8383 82.6895 50.0961 82.6895 50.3568C82.6895 50.6174 82.7433 50.8753 82.8476 51.1142C82.9518 51.3531 83.1043 51.5678 83.2955 51.745C83.5101 51.8557 83.7482 51.9135 83.9897 51.9135C84.2312 51.9135 84.4691 51.8557 84.6838 51.745C85.1298 51.9208 85.626 51.9208 86.072 51.745C86.1954 51.2905 86.1954 50.8113 86.072 50.3568Z" fill="white"/>
<path fill-rule="evenodd" clip-rule="evenodd" d="M93.6447 63.1034C94.0924 63.4618 94.6488 63.6572 95.2222 63.6572C95.7957 63.6572 96.3521 63.4618 96.7998 63.1034C97.2085 62.6799 97.4369 62.1144 97.4369 61.5258C97.4369 60.9373 97.2085 60.3718 96.7998 59.9483L93.897 57.0456L88.7227 51.8711C88.5332 51.6563 88.3002 51.4843 88.039 51.3664C87.7779 51.2485 87.4946 51.1875 87.2081 51.1875C86.9216 51.1875 86.6384 51.2485 86.3773 51.3664C86.1162 51.4843 85.8832 51.6563 85.6937 51.8711C85.285 52.2946 85.0566 52.8602 85.0566 53.4487C85.0566 54.0372 85.285 54.6028 85.6937 55.0263L90.8681 60.2007L93.6447 63.1034Z" fill="#FFC107"/>
<path fill-rule="evenodd" clip-rule="evenodd" d="M90.8682 57.0448C90.4595 57.4683 90.231 58.0338 90.231 58.6223C90.231 59.2109 90.4595 59.7764 90.8682 60.1999C91.3159 60.5583 91.8723 60.7537 92.4458 60.7537C93.0192 60.7537 93.5756 60.5583 94.0233 60.1999L96.1688 58.0544C96.4652 57.6172 96.6001 57.0904 96.5501 56.5645C96.5001 56.0386 96.2685 55.5467 95.895 55.1731C95.5214 54.7996 95.0295 54.568 94.5036 54.518C93.9777 54.468 93.4509 54.6028 93.0137 54.8993L90.8682 57.0448Z" fill="#FFC107"/>
</g>
<defs>
<clipPath id="clip0_979_468">
<rect width="120.4" height="93.8968" fill="white"/>
</clipPath>
</defs>
</svg>
